<svg width="20" height="20" viewBox="0 0 20 20" fill="none" xmlns="http://www.w3.org/2000/svg">
<g id="honey 1">
<path id="Vector" d="M12.8833 1.92548L12.8833 1.92548L15.55 3.46503C15.6841 3.54248 15.7666 3.68553 15.7666 3.84037V6.67054L18.2166 8.08515C18.3508 8.16259 18.4333 8.30565 18.4333 8.46049V11.5396C18.4333 11.6944 18.3508 11.8375 18.2166 11.9149L15.7666 13.3295V16.1597C15.7666 16.3146 15.6841 16.4576 15.55 16.535L12.8833 18.0746L12.8333 17.988L12.8833 18.0746C12.8162 18.1133 12.7414 18.1326 12.6666 18.1326C12.5918 18.1326 12.5171 18.1133 12.45 18.0746L12.5 17.988L12.45 18.0746L9.99996 16.6601L7.54995 18.0746C7.48284 18.1133 7.40809 18.1326 7.33329 18.1326C7.25849 18.1326 7.18374 18.1133 7.11663 18.0746L7.16663 17.988L7.11663 18.0746L4.44996 16.5351C4.31581 16.4576 4.23329 16.3146 4.23329 16.1597V13.3295L1.7833 11.9149C1.78329 11.9149 1.78329 11.9149 1.78329 11.9149C1.64914 11.8375 1.56663 11.6944 1.56663 11.5396V8.46049C1.56663 8.30565 1.64914 8.16259 1.7833 8.08515M12.8833 1.92548L4.33329 6.72827M12.8833 1.92548C12.7492 1.84805 12.5841 1.84805 12.45 1.92548L12.45 1.92548L9.99996 3.33993L7.54996 1.92548L7.54995 1.92548C7.41583 1.84805 7.25076 1.84805 7.11663 1.92548L7.11663 1.92548L4.44996 3.46503C4.44996 3.46503 4.44996 3.46503 4.44996 3.46503C4.31581 3.54248 4.23329 3.68553 4.23329 3.84037V6.67054M12.8833 1.92548L4.33329 6.72827M1.7833 8.08515L1.83329 8.17175L1.78329 8.08515L1.7833 8.08515ZM1.7833 8.08515L4.23329 6.67054M4.23329 6.67054V6.72827H4.33329M4.23329 6.67054L4.28329 6.64167L4.33329 6.72827M10.4333 4.09049L12.6666 2.80122L14.9 4.09049V6.66952L12.6666 7.95879L10.4333 6.66952V4.09049ZM5.09996 4.09049L7.33329 2.80122L9.56663 4.09049V6.66952L7.33329 7.95879L5.09996 6.66952V4.09049ZM4.66663 12.5789L2.43329 11.2895V8.71061L4.66663 7.42118L6.89996 8.71061V11.2895L4.66663 12.5789ZM9.56663 13.3306V15.9096L7.33329 17.1989L5.09996 15.9096V13.3306L7.33329 12.0413L9.56663 13.3306ZM9.99996 12.5789L7.76663 11.2895V8.71061L9.99996 7.42118L12.2333 8.71061V11.2895L9.99996 12.5789ZM14.9 13.3306V15.9096L12.6666 17.1989L10.4333 15.9096V13.3306L12.6666 12.0413L14.9 13.3306ZM17.5666 8.71061V11.2895L15.3333 12.5789L13.1 11.2895V8.71061L15.3333 7.42118L17.5666 8.71061Z" fill="#7A889B" stroke="#7A889B" stroke-width="0.2"/>
</g>
</svg>
