<svg width="20" height="20" viewBox="0 0 20 20" fill="none" xmlns="http://www.w3.org/2000/svg">
<g id="vuesax/linear/cards">
<path id="Vector" d="M1.66675 10.5088H15.8334" stroke="#BEBFC9" stroke-width="1.5" stroke-miterlimit="10" stroke-linecap="round" stroke-linejoin="round"/>
<path id="Vector_2" d="M15.8334 8.56634V14.5247C15.8084 16.8997 15.1584 17.4997 12.6834 17.4997H4.81677C2.30011 17.4997 1.66675 16.8747 1.66675 14.3913V8.56634C1.66675 6.31634 2.19175 5.59134 4.16675 5.47467C4.36675 5.46634 4.58344 5.45801 4.81677 5.45801H12.6834C15.2001 5.45801 15.8334 6.08301 15.8334 8.56634Z" stroke="#BEBFC9" stroke-width="1.5" stroke-linecap="round" stroke-linejoin="round"/>
<path id="Vector_3" d="M18.3334 5.60833V11.4333C18.3334 13.6833 17.8084 14.4083 15.8334 14.525V8.56667C15.8334 6.08333 15.2001 5.45833 12.6834 5.45833H4.81677C4.58344 5.45833 4.36675 5.46667 4.16675 5.475C4.19175 3.1 4.84177 2.5 7.31677 2.5H15.1834C17.7001 2.5 18.3334 3.125 18.3334 5.60833Z" stroke="#BEBFC9" stroke-width="1.5" stroke-linecap="round" stroke-linejoin="round"/>
<path id="Vector_4" d="M4.375 14.8418H5.80831" stroke="#BEBFC9" stroke-width="1.5" stroke-miterlimit="10" stroke-linecap="round" stroke-linejoin="round"/>
<path id="Vector_5" d="M7.59155 14.8418H10.4582" stroke="#BEBFC9" stroke-width="1.5" stroke-miterlimit="10" stroke-linecap="round" stroke-linejoin="round"/>
</g>
</svg>
