<svg width="20" height="20" viewBox="0 0 20 20" fill="none" xmlns="http://www.w3.org/2000/svg">
<g id="Group">
<mask id="mask0_82_3225" style="mask-type:alpha" maskUnits="userSpaceOnUse" x="-1" y="-1" width="22" height="22">
<g id="path-2-outside-1_144_719">
<path id="Vector" d="M20.15 0V-0.15H20H0H-0.15V0V20V20.15H0H20H20.15V20V0Z" fill="white" stroke="#7A889B" stroke-width="0.3"/>
<g id="Vector_2">
<mask id="path-2-outside-1_82_3225" maskUnits="userSpaceOnUse" x="-0.672119" y="-0.655151" width="21" height="21" fill="black">
<rect fill="white" x="-0.672119" y="-0.655151" width="21" height="21"/>
<path d="M18.7277 8.81319C18.799 9.0604 18.8577 9.45785 18.6725 9.83699C18.4956 10.199 18.1492 10.4516 17.6423 10.5897C17.1029 12.4307 16.3213 13.9317 15.3173 15.0529C13.9899 16.5359 12.2985 17.3223 10.2873 17.3943L9.77227 18.7679L11.0101 19.0155C11.0516 19.0238 11.091 19.0402 11.1261 19.0637C11.1612 19.0872 11.1913 19.1174 11.2148 19.1526C11.2382 19.1877 11.2545 19.2272 11.2627 19.2686C11.2709 19.3101 11.2709 19.3527 11.2626 19.3942C11.2543 19.4356 11.2379 19.475 11.2144 19.5101C11.1909 19.5453 11.1607 19.5754 11.1255 19.5989C11.0903 19.6223 11.0509 19.6386 11.0095 19.6468C10.968 19.655 10.9253 19.6549 10.8839 19.6466L7.90699 19.0513L7.69509 19.4751C7.6764 19.5132 7.65034 19.5473 7.61844 19.5753C7.5865 19.6033 7.54936 19.6247 7.50913 19.6383C7.46886 19.6519 7.42634 19.6574 7.38398 19.6544C7.34162 19.6515 7.30024 19.6402 7.26224 19.6212C7.22427 19.6022 7.19044 19.5759 7.16267 19.5437C7.1349 19.5116 7.11378 19.4743 7.1005 19.434C7.08722 19.3936 7.08208 19.351 7.08535 19.3087C7.0886 19.2663 7.10021 19.2251 7.11949 19.1872L7.44129 18.5436C7.4729 18.4805 7.52434 18.4295 7.58775 18.3985C7.65116 18.3675 7.72299 18.3582 7.79221 18.372L9.1329 18.6401L9.60617 17.3782C8.34188 17.2452 7.12604 16.819 6.05542 16.1334C4.90945 15.3977 3.9848 14.3863 3.30716 13.1275C2.50389 11.6351 2.04992 9.79144 1.956 7.64347C1.91879 7.63471 1.88166 7.62475 1.84474 7.6123C1.70585 7.56819 1.57978 7.49095 1.47742 7.38723C1.37507 7.2835 1.29949 7.15643 1.25723 7.01699C1.16351 6.71557 1.21676 6.34681 1.38671 6.12023L1.61506 5.81547H0.649687C0.602076 5.81547 0.555058 5.80488 0.512023 5.78454C0.468987 5.76416 0.431006 5.7345 0.400821 5.69768C0.370635 5.66085 0.348995 5.61778 0.337464 5.57161C0.325931 5.5254 0.324793 5.47723 0.334131 5.43054C0.532595 4.43819 1.15985 4.07016 1.65106 3.93623C1.75112 3.90916 1.85298 3.88933 1.95588 3.87685C1.96706 3.81312 1.98134 3.74716 1.99976 3.67975C1.69318 3.51102 1.46414 3.22976 1.36097 2.89536C1.31273 2.75136 1.29975 2.59789 1.32312 2.44783C1.34649 2.29778 1.40553 2.15552 1.49527 2.03301C1.58512 1.90907 1.70301 1.80813 1.83932 1.73844C1.97562 1.66876 2.12648 1.6323 2.27956 1.63205H2.31379C2.38055 1.44396 2.50387 1.28112 2.66684 1.16589C2.8298 1.05067 3.02443 0.988683 3.22402 0.988449H3.27916C3.34593 0.800356 3.46925 0.637525 3.63221 0.522293C3.79519 0.407066 3.98981 0.345083 4.18939 0.344849H4.83296C4.91831 0.344849 5.00017 0.378752 5.0605 0.4391C5.12086 0.499452 5.15476 0.581304 5.15476 0.666649V2.4962C6.16578 3.00943 6.5727 4.31109 6.8628 5.23954C6.96378 5.56275 7.09817 5.99295 7.20172 6.13723H16.6809L19.2006 5.19237C19.2456 5.17547 19.2939 5.16888 19.3419 5.17312C19.3898 5.17737 19.4362 5.1923 19.4776 5.21685C19.519 5.2414 19.5544 5.27492 19.5811 5.31492C19.6079 5.35495 19.6253 5.40047 19.6321 5.44812C19.6457 5.54323 19.9358 7.68888 18.7277 8.81319ZM1.87169 6.82575C1.88379 6.86799 1.90654 6.9064 1.93776 6.93733C1.96897 6.96826 2.00761 6.99064 2.04996 7.00233C2.18824 7.04743 2.33844 7.03864 2.47054 6.97778C2.51547 6.95926 2.55553 6.93064 2.58761 6.89416C2.6197 6.85768 2.64295 6.81426 2.65557 6.76733C2.66873 6.71985 2.67078 6.66999 2.66157 6.62157C2.65236 6.57319 2.63214 6.52754 2.60248 6.48823L2.25864 6.02999L1.9015 6.50619C1.86964 6.54868 1.83131 6.69585 1.87169 6.82575ZM1.80182 4.56237C1.64433 4.60333 1.49817 4.67943 1.37433 4.78499C1.25049 4.89057 1.15218 5.02285 1.0868 5.17185H2.25864V4.50216C2.10432 4.50106 1.95059 4.5213 1.80182 4.56237ZM4.51119 0.988449H4.18939C4.10408 0.988545 4.02227 1.02248 3.96195 1.08281C3.90162 1.14314 3.86768 1.22493 3.86758 1.31025C3.86758 1.3956 3.83368 1.47745 3.77336 1.5378C3.71299 1.59815 3.63116 1.63205 3.54581 1.63205H3.22402C3.1387 1.63215 3.05691 1.66608 2.99658 1.72641C2.93625 1.78674 2.90232 1.86853 2.90222 1.95385C2.90222 2.0392 2.86832 2.12105 2.80797 2.1814C2.74763 2.24175 2.66578 2.27565 2.58043 2.27565H2.27956C2.22819 2.27542 2.17752 2.28752 2.1318 2.31093C2.08609 2.33435 2.04665 2.36839 2.01682 2.4102C1.98724 2.45041 1.96773 2.49712 1.95994 2.54642C1.95215 2.59573 1.9563 2.64618 1.97205 2.69355C2.02156 2.85839 2.12862 2.99998 2.27373 3.09254C2.30249 3.05187 2.3329 3.01161 2.36624 2.97219C2.75895 2.51 3.37236 2.27565 4.18939 2.27565C4.29703 2.27549 4.40454 2.28268 4.51119 2.29717V0.988449ZM6.2485 5.4315C5.81906 4.05702 5.36768 2.91925 4.18939 2.91925C3.55441 2.91925 2.80227 3.09624 2.61052 3.88512C2.62931 3.88816 2.64081 3.89037 2.64354 3.89088C2.71649 3.90547 2.78213 3.94488 2.8293 4.00243C2.87646 4.05995 2.90223 4.13206 2.90222 4.20647V5.49364C2.9022 5.5723 2.87325 5.64816 2.82089 5.70685L3.11718 6.10188C3.20544 6.2194 3.2657 6.35554 3.29336 6.49985C3.32102 6.64419 3.31535 6.79295 3.27678 6.93478C3.23822 7.07657 3.16777 7.20771 3.07082 7.31816C2.97387 7.42861 2.85297 7.51547 2.71735 7.57209C2.67807 7.58837 2.63881 7.60268 2.59958 7.61506C2.68884 9.65575 3.11304 11.4006 3.86358 12.8034C4.48463 13.964 5.33031 14.8965 6.37699 15.5748C8.17076 16.7376 9.96421 16.7567 9.98162 16.7567C14.0936 16.7567 16.0243 13.5841 16.9289 10.7225L15.5979 10.9444C15.1697 11.3233 13.0116 13.1097 10.4017 13.1097C10.305 13.1097 10.2076 13.1072 10.1096 13.1021C8.52303 13.0199 7.09899 12.2633 5.87699 10.8532C4.74447 9.54661 4.36722 8.45264 4.75575 7.60171C4.99565 7.07633 5.50965 6.6824 6.28352 6.43085C6.38214 6.39868 6.48175 6.37026 6.58158 6.34461C6.46106 6.11106 6.36358 5.79971 6.2485 5.4315ZM8.37267 6.78085C6.50391 6.78085 5.58139 7.34299 5.34116 7.86909C5.07054 8.46181 5.42398 9.34795 6.36329 10.4317C7.46542 11.7032 8.73558 12.3854 10.139 12.4591C12.331 12.5747 14.2921 11.1768 14.9753 10.6256C14.1996 9.87288 11.7861 7.59102 10.2257 6.78075L8.37267 6.78085ZM16.4496 6.78085H11.4538C12.9783 7.83019 14.7469 9.50523 15.4123 10.1522C15.7931 9.59147 16.5536 8.26861 16.4496 6.78085ZM19.0243 5.94581L17.0869 6.67226C17.2128 8.15254 16.6022 9.45719 16.15 10.2L17.325 10.0042C17.7279 9.92243 17.9862 9.77237 18.0928 9.55747C18.2467 9.2473 18.0615 8.85778 18.0606 8.85561C18.0269 8.78823 18.0178 8.71116 18.0351 8.63778C18.0524 8.56444 18.0949 8.49947 18.1551 8.45423C18.9671 7.84526 19.0441 6.59285 19.0243 5.94581Z"/>
</mask>
<path d="M18.7277 8.81319C18.799 9.0604 18.8577 9.45785 18.6725 9.83699C18.4956 10.199 18.1492 10.4516 17.6423 10.5897C17.1029 12.4307 16.3213 13.9317 15.3173 15.0529C13.9899 16.5359 12.2985 17.3223 10.2873 17.3943L9.77227 18.7679L11.0101 19.0155C11.0516 19.0238 11.091 19.0402 11.1261 19.0637C11.1612 19.0872 11.1913 19.1174 11.2148 19.1526C11.2382 19.1877 11.2545 19.2272 11.2627 19.2686C11.2709 19.3101 11.2709 19.3527 11.2626 19.3942C11.2543 19.4356 11.2379 19.475 11.2144 19.5101C11.1909 19.5453 11.1607 19.5754 11.1255 19.5989C11.0903 19.6223 11.0509 19.6386 11.0095 19.6468C10.968 19.655 10.9253 19.6549 10.8839 19.6466L7.90699 19.0513L7.69509 19.4751C7.6764 19.5132 7.65034 19.5473 7.61844 19.5753C7.5865 19.6033 7.54936 19.6247 7.50913 19.6383C7.46886 19.6519 7.42634 19.6574 7.38398 19.6544C7.34162 19.6515 7.30024 19.6402 7.26224 19.6212C7.22427 19.6022 7.19044 19.5759 7.16267 19.5437C7.1349 19.5116 7.11378 19.4743 7.1005 19.434C7.08722 19.3936 7.08208 19.351 7.08535 19.3087C7.0886 19.2663 7.10021 19.2251 7.11949 19.1872L7.44129 18.5436C7.4729 18.4805 7.52434 18.4295 7.58775 18.3985C7.65116 18.3675 7.72299 18.3582 7.79221 18.372L9.1329 18.6401L9.60617 17.3782C8.34188 17.2452 7.12604 16.819 6.05542 16.1334C4.90945 15.3977 3.9848 14.3863 3.30716 13.1275C2.50389 11.6351 2.04992 9.79144 1.956 7.64347C1.91879 7.63471 1.88166 7.62475 1.84474 7.6123C1.70585 7.56819 1.57978 7.49095 1.47742 7.38723C1.37507 7.2835 1.29949 7.15643 1.25723 7.01699C1.16351 6.71557 1.21676 6.34681 1.38671 6.12023L1.61506 5.81547H0.649687C0.602076 5.81547 0.555058 5.80488 0.512023 5.78454C0.468987 5.76416 0.431006 5.7345 0.400821 5.69768C0.370635 5.66085 0.348995 5.61778 0.337464 5.57161C0.325931 5.5254 0.324793 5.47723 0.334131 5.43054C0.532595 4.43819 1.15985 4.07016 1.65106 3.93623C1.75112 3.90916 1.85298 3.88933 1.95588 3.87685C1.96706 3.81312 1.98134 3.74716 1.99976 3.67975C1.69318 3.51102 1.46414 3.22976 1.36097 2.89536C1.31273 2.75136 1.29975 2.59789 1.32312 2.44783C1.34649 2.29778 1.40553 2.15552 1.49527 2.03301C1.58512 1.90907 1.70301 1.80813 1.83932 1.73844C1.97562 1.66876 2.12648 1.6323 2.27956 1.63205H2.31379C2.38055 1.44396 2.50387 1.28112 2.66684 1.16589C2.8298 1.05067 3.02443 0.988683 3.22402 0.988449H3.27916C3.34593 0.800356 3.46925 0.637525 3.63221 0.522293C3.79519 0.407066 3.98981 0.345083 4.18939 0.344849H4.83296C4.91831 0.344849 5.00017 0.378752 5.0605 0.4391C5.12086 0.499452 5.15476 0.581304 5.15476 0.666649V2.4962C6.16578 3.00943 6.5727 4.31109 6.8628 5.23954C6.96378 5.56275 7.09817 5.99295 7.20172 6.13723H16.6809L19.2006 5.19237C19.2456 5.17547 19.2939 5.16888 19.3419 5.17312C19.3898 5.17737 19.4362 5.1923 19.4776 5.21685C19.519 5.2414 19.5544 5.27492 19.5811 5.31492C19.6079 5.35495 19.6253 5.40047 19.6321 5.44812C19.6457 5.54323 19.9358 7.68888 18.7277 8.81319ZM1.87169 6.82575C1.88379 6.86799 1.90654 6.9064 1.93776 6.93733C1.96897 6.96826 2.00761 6.99064 2.04996 7.00233C2.18824 7.04743 2.33844 7.03864 2.47054 6.97778C2.51547 6.95926 2.55553 6.93064 2.58761 6.89416C2.6197 6.85768 2.64295 6.81426 2.65557 6.76733C2.66873 6.71985 2.67078 6.66999 2.66157 6.62157C2.65236 6.57319 2.63214 6.52754 2.60248 6.48823L2.25864 6.02999L1.9015 6.50619C1.86964 6.54868 1.83131 6.69585 1.87169 6.82575ZM1.80182 4.56237C1.64433 4.60333 1.49817 4.67943 1.37433 4.78499C1.25049 4.89057 1.15218 5.02285 1.0868 5.17185H2.25864V4.50216C2.10432 4.50106 1.95059 4.5213 1.80182 4.56237ZM4.51119 0.988449H4.18939C4.10408 0.988545 4.02227 1.02248 3.96195 1.08281C3.90162 1.14314 3.86768 1.22493 3.86758 1.31025C3.86758 1.3956 3.83368 1.47745 3.77336 1.5378C3.71299 1.59815 3.63116 1.63205 3.54581 1.63205H3.22402C3.1387 1.63215 3.05691 1.66608 2.99658 1.72641C2.93625 1.78674 2.90232 1.86853 2.90222 1.95385C2.90222 2.0392 2.86832 2.12105 2.80797 2.1814C2.74763 2.24175 2.66578 2.27565 2.58043 2.27565H2.27956C2.22819 2.27542 2.17752 2.28752 2.1318 2.31093C2.08609 2.33435 2.04665 2.36839 2.01682 2.4102C1.98724 2.45041 1.96773 2.49712 1.95994 2.54642C1.95215 2.59573 1.9563 2.64618 1.97205 2.69355C2.02156 2.85839 2.12862 2.99998 2.27373 3.09254C2.30249 3.05187 2.3329 3.01161 2.36624 2.97219C2.75895 2.51 3.37236 2.27565 4.18939 2.27565C4.29703 2.27549 4.40454 2.28268 4.51119 2.29717V0.988449ZM6.2485 5.4315C5.81906 4.05702 5.36768 2.91925 4.18939 2.91925C3.55441 2.91925 2.80227 3.09624 2.61052 3.88512C2.62931 3.88816 2.64081 3.89037 2.64354 3.89088C2.71649 3.90547 2.78213 3.94488 2.8293 4.00243C2.87646 4.05995 2.90223 4.13206 2.90222 4.20647V5.49364C2.9022 5.5723 2.87325 5.64816 2.82089 5.70685L3.11718 6.10188C3.20544 6.2194 3.2657 6.35554 3.29336 6.49985C3.32102 6.64419 3.31535 6.79295 3.27678 6.93478C3.23822 7.07657 3.16777 7.20771 3.07082 7.31816C2.97387 7.42861 2.85297 7.51547 2.71735 7.57209C2.67807 7.58837 2.63881 7.60268 2.59958 7.61506C2.68884 9.65575 3.11304 11.4006 3.86358 12.8034C4.48463 13.964 5.33031 14.8965 6.37699 15.5748C8.17076 16.7376 9.96421 16.7567 9.98162 16.7567C14.0936 16.7567 16.0243 13.5841 16.9289 10.7225L15.5979 10.9444C15.1697 11.3233 13.0116 13.1097 10.4017 13.1097C10.305 13.1097 10.2076 13.1072 10.1096 13.1021C8.52303 13.0199 7.09899 12.2633 5.87699 10.8532C4.74447 9.54661 4.36722 8.45264 4.75575 7.60171C4.99565 7.07633 5.50965 6.6824 6.28352 6.43085C6.38214 6.39868 6.48175 6.37026 6.58158 6.34461C6.46106 6.11106 6.36358 5.79971 6.2485 5.4315ZM8.37267 6.78085C6.50391 6.78085 5.58139 7.34299 5.34116 7.86909C5.07054 8.46181 5.42398 9.34795 6.36329 10.4317C7.46542 11.7032 8.73558 12.3854 10.139 12.4591C12.331 12.5747 14.2921 11.1768 14.9753 10.6256C14.1996 9.87288 11.7861 7.59102 10.2257 6.78075L8.37267 6.78085ZM16.4496 6.78085H11.4538C12.9783 7.83019 14.7469 9.50523 15.4123 10.1522C15.7931 9.59147 16.5536 8.26861 16.4496 6.78085ZM19.0243 5.94581L17.0869 6.67226C17.2128 8.15254 16.6022 9.45719 16.15 10.2L17.325 10.0042C17.7279 9.92243 17.9862 9.77237 18.0928 9.55747C18.2467 9.2473 18.0615 8.85778 18.0606 8.85561C18.0269 8.78823 18.0178 8.71116 18.0351 8.63778C18.0524 8.56444 18.0949 8.49947 18.1551 8.45423C18.9671 7.84526 19.0441 6.59285 19.0243 5.94581Z" fill="black"/>
<path d="M18.7277 8.81319C18.799 9.0604 18.8577 9.45785 18.6725 9.83699C18.4956 10.199 18.1492 10.4516 17.6423 10.5897C17.1029 12.4307 16.3213 13.9317 15.3173 15.0529C13.9899 16.5359 12.2985 17.3223 10.2873 17.3943L9.77227 18.7679L11.0101 19.0155C11.0516 19.0238 11.091 19.0402 11.1261 19.0637C11.1612 19.0872 11.1913 19.1174 11.2148 19.1526C11.2382 19.1877 11.2545 19.2272 11.2627 19.2686C11.2709 19.3101 11.2709 19.3527 11.2626 19.3942C11.2543 19.4356 11.2379 19.475 11.2144 19.5101C11.1909 19.5453 11.1607 19.5754 11.1255 19.5989C11.0903 19.6223 11.0509 19.6386 11.0095 19.6468C10.968 19.655 10.9253 19.6549 10.8839 19.6466L7.90699 19.0513L7.69509 19.4751C7.6764 19.5132 7.65034 19.5473 7.61844 19.5753C7.5865 19.6033 7.54936 19.6247 7.50913 19.6383C7.46886 19.6519 7.42634 19.6574 7.38398 19.6544C7.34162 19.6515 7.30024 19.6402 7.26224 19.6212C7.22427 19.6022 7.19044 19.5759 7.16267 19.5437C7.1349 19.5116 7.11378 19.4743 7.1005 19.434C7.08722 19.3936 7.08208 19.351 7.08535 19.3087C7.0886 19.2663 7.10021 19.2251 7.11949 19.1872L7.44129 18.5436C7.4729 18.4805 7.52434 18.4295 7.58775 18.3985C7.65116 18.3675 7.72299 18.3582 7.79221 18.372L9.1329 18.6401L9.60617 17.3782C8.34188 17.2452 7.12604 16.819 6.05542 16.1334C4.90945 15.3977 3.9848 14.3863 3.30716 13.1275C2.50389 11.6351 2.04992 9.79144 1.956 7.64347C1.91879 7.63471 1.88166 7.62475 1.84474 7.6123C1.70585 7.56819 1.57978 7.49095 1.47742 7.38723C1.37507 7.2835 1.29949 7.15643 1.25723 7.01699C1.16351 6.71557 1.21676 6.34681 1.38671 6.12023L1.61506 5.81547H0.649687C0.602076 5.81547 0.555058 5.80488 0.512023 5.78454C0.468987 5.76416 0.431006 5.7345 0.400821 5.69768C0.370635 5.66085 0.348995 5.61778 0.337464 5.57161C0.325931 5.5254 0.324793 5.47723 0.334131 5.43054C0.532595 4.43819 1.15985 4.07016 1.65106 3.93623C1.75112 3.90916 1.85298 3.88933 1.95588 3.87685C1.96706 3.81312 1.98134 3.74716 1.99976 3.67975C1.69318 3.51102 1.46414 3.22976 1.36097 2.89536C1.31273 2.75136 1.29975 2.59789 1.32312 2.44783C1.34649 2.29778 1.40553 2.15552 1.49527 2.03301C1.58512 1.90907 1.70301 1.80813 1.83932 1.73844C1.97562 1.66876 2.12648 1.6323 2.27956 1.63205H2.31379C2.38055 1.44396 2.50387 1.28112 2.66684 1.16589C2.8298 1.05067 3.02443 0.988683 3.22402 0.988449H3.27916C3.34593 0.800356 3.46925 0.637525 3.63221 0.522293C3.79519 0.407066 3.98981 0.345083 4.18939 0.344849H4.83296C4.91831 0.344849 5.00017 0.378752 5.0605 0.4391C5.12086 0.499452 5.15476 0.581304 5.15476 0.666649V2.4962C6.16578 3.00943 6.5727 4.31109 6.8628 5.23954C6.96378 5.56275 7.09817 5.99295 7.20172 6.13723H16.6809L19.2006 5.19237C19.2456 5.17547 19.2939 5.16888 19.3419 5.17312C19.3898 5.17737 19.4362 5.1923 19.4776 5.21685C19.519 5.2414 19.5544 5.27492 19.5811 5.31492C19.6079 5.35495 19.6253 5.40047 19.6321 5.44812C19.6457 5.54323 19.9358 7.68888 18.7277 8.81319ZM1.87169 6.82575C1.88379 6.86799 1.90654 6.9064 1.93776 6.93733C1.96897 6.96826 2.00761 6.99064 2.04996 7.00233C2.18824 7.04743 2.33844 7.03864 2.47054 6.97778C2.51547 6.95926 2.55553 6.93064 2.58761 6.89416C2.6197 6.85768 2.64295 6.81426 2.65557 6.76733C2.66873 6.71985 2.67078 6.66999 2.66157 6.62157C2.65236 6.57319 2.63214 6.52754 2.60248 6.48823L2.25864 6.02999L1.9015 6.50619C1.86964 6.54868 1.83131 6.69585 1.87169 6.82575ZM1.80182 4.56237C1.64433 4.60333 1.49817 4.67943 1.37433 4.78499C1.25049 4.89057 1.15218 5.02285 1.0868 5.17185H2.25864V4.50216C2.10432 4.50106 1.95059 4.5213 1.80182 4.56237ZM4.51119 0.988449H4.18939C4.10408 0.988545 4.02227 1.02248 3.96195 1.08281C3.90162 1.14314 3.86768 1.22493 3.86758 1.31025C3.86758 1.3956 3.83368 1.47745 3.77336 1.5378C3.71299 1.59815 3.63116 1.63205 3.54581 1.63205H3.22402C3.1387 1.63215 3.05691 1.66608 2.99658 1.72641C2.93625 1.78674 2.90232 1.86853 2.90222 1.95385C2.90222 2.0392 2.86832 2.12105 2.80797 2.1814C2.74763 2.24175 2.66578 2.27565 2.58043 2.27565H2.27956C2.22819 2.27542 2.17752 2.28752 2.1318 2.31093C2.08609 2.33435 2.04665 2.36839 2.01682 2.4102C1.98724 2.45041 1.96773 2.49712 1.95994 2.54642C1.95215 2.59573 1.9563 2.64618 1.97205 2.69355C2.02156 2.85839 2.12862 2.99998 2.27373 3.09254C2.30249 3.05187 2.3329 3.01161 2.36624 2.97219C2.75895 2.51 3.37236 2.27565 4.18939 2.27565C4.29703 2.27549 4.40454 2.28268 4.51119 2.29717V0.988449ZM6.2485 5.4315C5.81906 4.05702 5.36768 2.91925 4.18939 2.91925C3.55441 2.91925 2.80227 3.09624 2.61052 3.88512C2.62931 3.88816 2.64081 3.89037 2.64354 3.89088C2.71649 3.90547 2.78213 3.94488 2.8293 4.00243C2.87646 4.05995 2.90223 4.13206 2.90222 4.20647V5.49364C2.9022 5.5723 2.87325 5.64816 2.82089 5.70685L3.11718 6.10188C3.20544 6.2194 3.2657 6.35554 3.29336 6.49985C3.32102 6.64419 3.31535 6.79295 3.27678 6.93478C3.23822 7.07657 3.16777 7.20771 3.07082 7.31816C2.97387 7.42861 2.85297 7.51547 2.71735 7.57209C2.67807 7.58837 2.63881 7.60268 2.59958 7.61506C2.68884 9.65575 3.11304 11.4006 3.86358 12.8034C4.48463 13.964 5.33031 14.8965 6.37699 15.5748C8.17076 16.7376 9.96421 16.7567 9.98162 16.7567C14.0936 16.7567 16.0243 13.5841 16.9289 10.7225L15.5979 10.9444C15.1697 11.3233 13.0116 13.1097 10.4017 13.1097C10.305 13.1097 10.2076 13.1072 10.1096 13.1021C8.52303 13.0199 7.09899 12.2633 5.87699 10.8532C4.74447 9.54661 4.36722 8.45264 4.75575 7.60171C4.99565 7.07633 5.50965 6.6824 6.28352 6.43085C6.38214 6.39868 6.48175 6.37026 6.58158 6.34461C6.46106 6.11106 6.36358 5.79971 6.2485 5.4315ZM8.37267 6.78085C6.50391 6.78085 5.58139 7.34299 5.34116 7.86909C5.07054 8.46181 5.42398 9.34795 6.36329 10.4317C7.46542 11.7032 8.73558 12.3854 10.139 12.4591C12.331 12.5747 14.2921 11.1768 14.9753 10.6256C14.1996 9.87288 11.7861 7.59102 10.2257 6.78075L8.37267 6.78085ZM16.4496 6.78085H11.4538C12.9783 7.83019 14.7469 9.50523 15.4123 10.1522C15.7931 9.59147 16.5536 8.26861 16.4496 6.78085ZM19.0243 5.94581L17.0869 6.67226C17.2128 8.15254 16.6022 9.45719 16.15 10.2L17.325 10.0042C17.7279 9.92243 17.9862 9.77237 18.0928 9.55747C18.2467 9.2473 18.0615 8.85778 18.0606 8.85561C18.0269 8.78823 18.0178 8.71116 18.0351 8.63778C18.0524 8.56444 18.0949 8.49947 18.1551 8.45423C18.9671 7.84526 19.0441 6.59285 19.0243 5.94581Z" stroke="#7A889B" stroke-width="0.6" mask="url(#path-2-outside-1_82_3225)"/>
</g>
</g>
</mask>
<g mask="url(#mask0_82_3225)">
<g id="Vector_3">
<mask id="path-3-outside-2_82_3225" maskUnits="userSpaceOnUse" x="-0.672119" y="-0.655151" width="21" height="21" fill="black">
<rect fill="white" x="-0.672119" y="-0.655151" width="21" height="21"/>
<path d="M18.7277 8.81319C18.799 9.0604 18.8577 9.45785 18.6725 9.83699C18.4956 10.199 18.1492 10.4516 17.6423 10.5897C17.1029 12.4307 16.3213 13.9317 15.3173 15.0529C13.9899 16.5359 12.2985 17.3223 10.2873 17.3943L9.77227 18.7679L11.0101 19.0155C11.0516 19.0238 11.091 19.0402 11.1261 19.0637C11.1612 19.0872 11.1913 19.1174 11.2148 19.1526C11.2382 19.1877 11.2545 19.2272 11.2627 19.2686C11.2709 19.3101 11.2709 19.3527 11.2626 19.3942C11.2543 19.4356 11.2379 19.475 11.2144 19.5101C11.1909 19.5453 11.1607 19.5754 11.1255 19.5989C11.0903 19.6223 11.0509 19.6386 11.0095 19.6468C10.968 19.655 10.9253 19.6549 10.8839 19.6466L7.90699 19.0513L7.69509 19.4751C7.6764 19.5132 7.65034 19.5473 7.61844 19.5753C7.5865 19.6033 7.54936 19.6247 7.50913 19.6383C7.46886 19.6519 7.42634 19.6574 7.38398 19.6544C7.34162 19.6515 7.30024 19.6402 7.26224 19.6212C7.22427 19.6022 7.19044 19.5759 7.16267 19.5437C7.1349 19.5116 7.11378 19.4743 7.1005 19.434C7.08722 19.3936 7.08208 19.351 7.08535 19.3087C7.0886 19.2663 7.10021 19.2251 7.11949 19.1872L7.44129 18.5436C7.4729 18.4805 7.52434 18.4295 7.58775 18.3985C7.65116 18.3675 7.72299 18.3582 7.79221 18.372L9.1329 18.6401L9.60617 17.3782C8.34188 17.2452 7.12604 16.819 6.05542 16.1334C4.90945 15.3977 3.9848 14.3863 3.30716 13.1275C2.50389 11.6351 2.04992 9.79144 1.956 7.64347C1.91879 7.63471 1.88166 7.62475 1.84474 7.6123C1.70585 7.56819 1.57978 7.49095 1.47742 7.38723C1.37507 7.2835 1.29949 7.15643 1.25723 7.01699C1.16351 6.71557 1.21676 6.34681 1.38671 6.12023L1.61506 5.81547H0.649687C0.602076 5.81547 0.555058 5.80488 0.512023 5.78454C0.468987 5.76416 0.431006 5.7345 0.400821 5.69768C0.370635 5.66085 0.348995 5.61778 0.337464 5.57161C0.325931 5.5254 0.324793 5.47723 0.334131 5.43054C0.532595 4.43819 1.15985 4.07016 1.65106 3.93623C1.75112 3.90916 1.85298 3.88933 1.95588 3.87685C1.96706 3.81312 1.98134 3.74716 1.99976 3.67975C1.69318 3.51102 1.46414 3.22976 1.36097 2.89536C1.31273 2.75136 1.29975 2.59789 1.32312 2.44783C1.34649 2.29778 1.40553 2.15552 1.49527 2.03301C1.58512 1.90907 1.70301 1.80813 1.83932 1.73844C1.97562 1.66876 2.12648 1.6323 2.27956 1.63205H2.31379C2.38055 1.44396 2.50387 1.28112 2.66684 1.16589C2.8298 1.05067 3.02443 0.988683 3.22402 0.988449H3.27916C3.34593 0.800356 3.46925 0.637525 3.63221 0.522293C3.79519 0.407066 3.98981 0.345083 4.18939 0.344849H4.83296C4.91831 0.344849 5.00017 0.378752 5.0605 0.4391C5.12086 0.499452 5.15476 0.581304 5.15476 0.666649V2.4962C6.16578 3.00943 6.5727 4.31109 6.8628 5.23954C6.96378 5.56275 7.09817 5.99295 7.20172 6.13723H16.6809L19.2006 5.19237C19.2456 5.17547 19.2939 5.16888 19.3419 5.17312C19.3898 5.17737 19.4362 5.1923 19.4776 5.21685C19.519 5.2414 19.5544 5.27492 19.5811 5.31492C19.6079 5.35495 19.6253 5.40047 19.6321 5.44812C19.6457 5.54323 19.9358 7.68888 18.7277 8.81319ZM1.87169 6.82575C1.88379 6.86799 1.90654 6.9064 1.93776 6.93733C1.96897 6.96826 2.00761 6.99064 2.04996 7.00233C2.18824 7.04743 2.33844 7.03864 2.47054 6.97778C2.51547 6.95926 2.55553 6.93064 2.58761 6.89416C2.6197 6.85768 2.64295 6.81426 2.65557 6.76733C2.66873 6.71985 2.67078 6.66999 2.66157 6.62157C2.65236 6.57319 2.63214 6.52754 2.60248 6.48823L2.25864 6.02999L1.9015 6.50619C1.86964 6.54868 1.83131 6.69585 1.87169 6.82575ZM1.80182 4.56237C1.64433 4.60333 1.49817 4.67943 1.37433 4.78499C1.25049 4.89057 1.15218 5.02285 1.0868 5.17185H2.25864V4.50216C2.10432 4.50106 1.95059 4.5213 1.80182 4.56237ZM4.51119 0.988449H4.18939C4.10408 0.988545 4.02227 1.02248 3.96195 1.08281C3.90162 1.14314 3.86768 1.22493 3.86758 1.31025C3.86758 1.3956 3.83368 1.47745 3.77336 1.5378C3.71299 1.59815 3.63116 1.63205 3.54581 1.63205H3.22402C3.1387 1.63215 3.05691 1.66608 2.99658 1.72641C2.93625 1.78674 2.90232 1.86853 2.90222 1.95385C2.90222 2.0392 2.86832 2.12105 2.80797 2.1814C2.74763 2.24175 2.66578 2.27565 2.58043 2.27565H2.27956C2.22819 2.27542 2.17752 2.28752 2.1318 2.31093C2.08609 2.33435 2.04665 2.36839 2.01682 2.4102C1.98724 2.45041 1.96773 2.49712 1.95994 2.54642C1.95215 2.59573 1.9563 2.64618 1.97205 2.69355C2.02156 2.85839 2.12862 2.99998 2.27373 3.09254C2.30249 3.05187 2.3329 3.01161 2.36624 2.97219C2.75895 2.51 3.37236 2.27565 4.18939 2.27565C4.29703 2.27549 4.40454 2.28268 4.51119 2.29717V0.988449ZM6.2485 5.4315C5.81906 4.05702 5.36768 2.91925 4.18939 2.91925C3.55441 2.91925 2.80227 3.09624 2.61052 3.88512C2.62931 3.88816 2.64081 3.89037 2.64354 3.89088C2.71649 3.90547 2.78213 3.94488 2.8293 4.00243C2.87646 4.05995 2.90223 4.13206 2.90222 4.20647V5.49364C2.9022 5.5723 2.87325 5.64816 2.82089 5.70685L3.11718 6.10188C3.20544 6.2194 3.2657 6.35554 3.29336 6.49985C3.32102 6.64419 3.31535 6.79295 3.27678 6.93478C3.23822 7.07657 3.16777 7.20771 3.07082 7.31816C2.97387 7.42861 2.85297 7.51547 2.71735 7.57209C2.67807 7.58837 2.63881 7.60268 2.59958 7.61506C2.68884 9.65575 3.11304 11.4006 3.86358 12.8034C4.48463 13.964 5.33031 14.8965 6.37699 15.5748C8.17076 16.7376 9.96421 16.7567 9.98162 16.7567C14.0936 16.7567 16.0243 13.5841 16.9289 10.7225L15.5979 10.9444C15.1697 11.3233 13.0116 13.1097 10.4017 13.1097C10.305 13.1097 10.2076 13.1072 10.1096 13.1021C8.52303 13.0199 7.09899 12.2633 5.87699 10.8532C4.74447 9.54661 4.36722 8.45264 4.75575 7.60171C4.99565 7.07633 5.50965 6.6824 6.28352 6.43085C6.38214 6.39868 6.48175 6.37026 6.58158 6.34461C6.46106 6.11106 6.36358 5.79971 6.2485 5.4315ZM8.37267 6.78085C6.50391 6.78085 5.58139 7.34299 5.34116 7.86909C5.07054 8.46181 5.42398 9.34795 6.36329 10.4317C7.46542 11.7032 8.73558 12.3854 10.139 12.4591C12.331 12.5747 14.2921 11.1768 14.9753 10.6256C14.1996 9.87288 11.7861 7.59102 10.2257 6.78075L8.37267 6.78085ZM16.4496 6.78085H11.4538C12.9783 7.83019 14.7469 9.50523 15.4123 10.1522C15.7931 9.59147 16.5536 8.26861 16.4496 6.78085ZM19.0243 5.94581L17.0869 6.67226C17.2128 8.15254 16.6022 9.45719 16.15 10.2L17.325 10.0042C17.7279 9.92243 17.9862 9.77237 18.0928 9.55747C18.2467 9.2473 18.0615 8.85778 18.0606 8.85561C18.0269 8.78823 18.0178 8.71116 18.0351 8.63778C18.0524 8.56444 18.0949 8.49947 18.1551 8.45423C18.9671 7.84526 19.0441 6.59285 19.0243 5.94581Z"/>
</mask>
<path d="M18.7277 8.81319C18.799 9.0604 18.8577 9.45785 18.6725 9.83699C18.4956 10.199 18.1492 10.4516 17.6423 10.5897C17.1029 12.4307 16.3213 13.9317 15.3173 15.0529C13.9899 16.5359 12.2985 17.3223 10.2873 17.3943L9.77227 18.7679L11.0101 19.0155C11.0516 19.0238 11.091 19.0402 11.1261 19.0637C11.1612 19.0872 11.1913 19.1174 11.2148 19.1526C11.2382 19.1877 11.2545 19.2272 11.2627 19.2686C11.2709 19.3101 11.2709 19.3527 11.2626 19.3942C11.2543 19.4356 11.2379 19.475 11.2144 19.5101C11.1909 19.5453 11.1607 19.5754 11.1255 19.5989C11.0903 19.6223 11.0509 19.6386 11.0095 19.6468C10.968 19.655 10.9253 19.6549 10.8839 19.6466L7.90699 19.0513L7.69509 19.4751C7.6764 19.5132 7.65034 19.5473 7.61844 19.5753C7.5865 19.6033 7.54936 19.6247 7.50913 19.6383C7.46886 19.6519 7.42634 19.6574 7.38398 19.6544C7.34162 19.6515 7.30024 19.6402 7.26224 19.6212C7.22427 19.6022 7.19044 19.5759 7.16267 19.5437C7.1349 19.5116 7.11378 19.4743 7.1005 19.434C7.08722 19.3936 7.08208 19.351 7.08535 19.3087C7.0886 19.2663 7.10021 19.2251 7.11949 19.1872L7.44129 18.5436C7.4729 18.4805 7.52434 18.4295 7.58775 18.3985C7.65116 18.3675 7.72299 18.3582 7.79221 18.372L9.1329 18.6401L9.60617 17.3782C8.34188 17.2452 7.12604 16.819 6.05542 16.1334C4.90945 15.3977 3.9848 14.3863 3.30716 13.1275C2.50389 11.6351 2.04992 9.79144 1.956 7.64347C1.91879 7.63471 1.88166 7.62475 1.84474 7.6123C1.70585 7.56819 1.57978 7.49095 1.47742 7.38723C1.37507 7.2835 1.29949 7.15643 1.25723 7.01699C1.16351 6.71557 1.21676 6.34681 1.38671 6.12023L1.61506 5.81547H0.649687C0.602076 5.81547 0.555058 5.80488 0.512023 5.78454C0.468987 5.76416 0.431006 5.7345 0.400821 5.69768C0.370635 5.66085 0.348995 5.61778 0.337464 5.57161C0.325931 5.5254 0.324793 5.47723 0.334131 5.43054C0.532595 4.43819 1.15985 4.07016 1.65106 3.93623C1.75112 3.90916 1.85298 3.88933 1.95588 3.87685C1.96706 3.81312 1.98134 3.74716 1.99976 3.67975C1.69318 3.51102 1.46414 3.22976 1.36097 2.89536C1.31273 2.75136 1.29975 2.59789 1.32312 2.44783C1.34649 2.29778 1.40553 2.15552 1.49527 2.03301C1.58512 1.90907 1.70301 1.80813 1.83932 1.73844C1.97562 1.66876 2.12648 1.6323 2.27956 1.63205H2.31379C2.38055 1.44396 2.50387 1.28112 2.66684 1.16589C2.8298 1.05067 3.02443 0.988683 3.22402 0.988449H3.27916C3.34593 0.800356 3.46925 0.637525 3.63221 0.522293C3.79519 0.407066 3.98981 0.345083 4.18939 0.344849H4.83296C4.91831 0.344849 5.00017 0.378752 5.0605 0.4391C5.12086 0.499452 5.15476 0.581304 5.15476 0.666649V2.4962C6.16578 3.00943 6.5727 4.31109 6.8628 5.23954C6.96378 5.56275 7.09817 5.99295 7.20172 6.13723H16.6809L19.2006 5.19237C19.2456 5.17547 19.2939 5.16888 19.3419 5.17312C19.3898 5.17737 19.4362 5.1923 19.4776 5.21685C19.519 5.2414 19.5544 5.27492 19.5811 5.31492C19.6079 5.35495 19.6253 5.40047 19.6321 5.44812C19.6457 5.54323 19.9358 7.68888 18.7277 8.81319ZM1.87169 6.82575C1.88379 6.86799 1.90654 6.9064 1.93776 6.93733C1.96897 6.96826 2.00761 6.99064 2.04996 7.00233C2.18824 7.04743 2.33844 7.03864 2.47054 6.97778C2.51547 6.95926 2.55553 6.93064 2.58761 6.89416C2.6197 6.85768 2.64295 6.81426 2.65557 6.76733C2.66873 6.71985 2.67078 6.66999 2.66157 6.62157C2.65236 6.57319 2.63214 6.52754 2.60248 6.48823L2.25864 6.02999L1.9015 6.50619C1.86964 6.54868 1.83131 6.69585 1.87169 6.82575ZM1.80182 4.56237C1.64433 4.60333 1.49817 4.67943 1.37433 4.78499C1.25049 4.89057 1.15218 5.02285 1.0868 5.17185H2.25864V4.50216C2.10432 4.50106 1.95059 4.5213 1.80182 4.56237ZM4.51119 0.988449H4.18939C4.10408 0.988545 4.02227 1.02248 3.96195 1.08281C3.90162 1.14314 3.86768 1.22493 3.86758 1.31025C3.86758 1.3956 3.83368 1.47745 3.77336 1.5378C3.71299 1.59815 3.63116 1.63205 3.54581 1.63205H3.22402C3.1387 1.63215 3.05691 1.66608 2.99658 1.72641C2.93625 1.78674 2.90232 1.86853 2.90222 1.95385C2.90222 2.0392 2.86832 2.12105 2.80797 2.1814C2.74763 2.24175 2.66578 2.27565 2.58043 2.27565H2.27956C2.22819 2.27542 2.17752 2.28752 2.1318 2.31093C2.08609 2.33435 2.04665 2.36839 2.01682 2.4102C1.98724 2.45041 1.96773 2.49712 1.95994 2.54642C1.95215 2.59573 1.9563 2.64618 1.97205 2.69355C2.02156 2.85839 2.12862 2.99998 2.27373 3.09254C2.30249 3.05187 2.3329 3.01161 2.36624 2.97219C2.75895 2.51 3.37236 2.27565 4.18939 2.27565C4.29703 2.27549 4.40454 2.28268 4.51119 2.29717V0.988449ZM6.2485 5.4315C5.81906 4.05702 5.36768 2.91925 4.18939 2.91925C3.55441 2.91925 2.80227 3.09624 2.61052 3.88512C2.62931 3.88816 2.64081 3.89037 2.64354 3.89088C2.71649 3.90547 2.78213 3.94488 2.8293 4.00243C2.87646 4.05995 2.90223 4.13206 2.90222 4.20647V5.49364C2.9022 5.5723 2.87325 5.64816 2.82089 5.70685L3.11718 6.10188C3.20544 6.2194 3.2657 6.35554 3.29336 6.49985C3.32102 6.64419 3.31535 6.79295 3.27678 6.93478C3.23822 7.07657 3.16777 7.20771 3.07082 7.31816C2.97387 7.42861 2.85297 7.51547 2.71735 7.57209C2.67807 7.58837 2.63881 7.60268 2.59958 7.61506C2.68884 9.65575 3.11304 11.4006 3.86358 12.8034C4.48463 13.964 5.33031 14.8965 6.37699 15.5748C8.17076 16.7376 9.96421 16.7567 9.98162 16.7567C14.0936 16.7567 16.0243 13.5841 16.9289 10.7225L15.5979 10.9444C15.1697 11.3233 13.0116 13.1097 10.4017 13.1097C10.305 13.1097 10.2076 13.1072 10.1096 13.1021C8.52303 13.0199 7.09899 12.2633 5.87699 10.8532C4.74447 9.54661 4.36722 8.45264 4.75575 7.60171C4.99565 7.07633 5.50965 6.6824 6.28352 6.43085C6.38214 6.39868 6.48175 6.37026 6.58158 6.34461C6.46106 6.11106 6.36358 5.79971 6.2485 5.4315ZM8.37267 6.78085C6.50391 6.78085 5.58139 7.34299 5.34116 7.86909C5.07054 8.46181 5.42398 9.34795 6.36329 10.4317C7.46542 11.7032 8.73558 12.3854 10.139 12.4591C12.331 12.5747 14.2921 11.1768 14.9753 10.6256C14.1996 9.87288 11.7861 7.59102 10.2257 6.78075L8.37267 6.78085ZM16.4496 6.78085H11.4538C12.9783 7.83019 14.7469 9.50523 15.4123 10.1522C15.7931 9.59147 16.5536 8.26861 16.4496 6.78085ZM19.0243 5.94581L17.0869 6.67226C17.2128 8.15254 16.6022 9.45719 16.15 10.2L17.325 10.0042C17.7279 9.92243 17.9862 9.77237 18.0928 9.55747C18.2467 9.2473 18.0615 8.85778 18.0606 8.85561C18.0269 8.78823 18.0178 8.71116 18.0351 8.63778C18.0524 8.56444 18.0949 8.49947 18.1551 8.45423C18.9671 7.84526 19.0441 6.59285 19.0243 5.94581Z" fill="#7A889B"/>
<path d="M18.7277 8.81319C18.799 9.0604 18.8577 9.45785 18.6725 9.83699C18.4956 10.199 18.1492 10.4516 17.6423 10.5897C17.1029 12.4307 16.3213 13.9317 15.3173 15.0529C13.9899 16.5359 12.2985 17.3223 10.2873 17.3943L9.77227 18.7679L11.0101 19.0155C11.0516 19.0238 11.091 19.0402 11.1261 19.0637C11.1612 19.0872 11.1913 19.1174 11.2148 19.1526C11.2382 19.1877 11.2545 19.2272 11.2627 19.2686C11.2709 19.3101 11.2709 19.3527 11.2626 19.3942C11.2543 19.4356 11.2379 19.475 11.2144 19.5101C11.1909 19.5453 11.1607 19.5754 11.1255 19.5989C11.0903 19.6223 11.0509 19.6386 11.0095 19.6468C10.968 19.655 10.9253 19.6549 10.8839 19.6466L7.90699 19.0513L7.69509 19.4751C7.6764 19.5132 7.65034 19.5473 7.61844 19.5753C7.5865 19.6033 7.54936 19.6247 7.50913 19.6383C7.46886 19.6519 7.42634 19.6574 7.38398 19.6544C7.34162 19.6515 7.30024 19.6402 7.26224 19.6212C7.22427 19.6022 7.19044 19.5759 7.16267 19.5437C7.1349 19.5116 7.11378 19.4743 7.1005 19.434C7.08722 19.3936 7.08208 19.351 7.08535 19.3087C7.0886 19.2663 7.10021 19.2251 7.11949 19.1872L7.44129 18.5436C7.4729 18.4805 7.52434 18.4295 7.58775 18.3985C7.65116 18.3675 7.72299 18.3582 7.79221 18.372L9.1329 18.6401L9.60617 17.3782C8.34188 17.2452 7.12604 16.819 6.05542 16.1334C4.90945 15.3977 3.9848 14.3863 3.30716 13.1275C2.50389 11.6351 2.04992 9.79144 1.956 7.64347C1.91879 7.63471 1.88166 7.62475 1.84474 7.6123C1.70585 7.56819 1.57978 7.49095 1.47742 7.38723C1.37507 7.2835 1.29949 7.15643 1.25723 7.01699C1.16351 6.71557 1.21676 6.34681 1.38671 6.12023L1.61506 5.81547H0.649687C0.602076 5.81547 0.555058 5.80488 0.512023 5.78454C0.468987 5.76416 0.431006 5.7345 0.400821 5.69768C0.370635 5.66085 0.348995 5.61778 0.337464 5.57161C0.325931 5.5254 0.324793 5.47723 0.334131 5.43054C0.532595 4.43819 1.15985 4.07016 1.65106 3.93623C1.75112 3.90916 1.85298 3.88933 1.95588 3.87685C1.96706 3.81312 1.98134 3.74716 1.99976 3.67975C1.69318 3.51102 1.46414 3.22976 1.36097 2.89536C1.31273 2.75136 1.29975 2.59789 1.32312 2.44783C1.34649 2.29778 1.40553 2.15552 1.49527 2.03301C1.58512 1.90907 1.70301 1.80813 1.83932 1.73844C1.97562 1.66876 2.12648 1.6323 2.27956 1.63205H2.31379C2.38055 1.44396 2.50387 1.28112 2.66684 1.16589C2.8298 1.05067 3.02443 0.988683 3.22402 0.988449H3.27916C3.34593 0.800356 3.46925 0.637525 3.63221 0.522293C3.79519 0.407066 3.98981 0.345083 4.18939 0.344849H4.83296C4.91831 0.344849 5.00017 0.378752 5.0605 0.4391C5.12086 0.499452 5.15476 0.581304 5.15476 0.666649V2.4962C6.16578 3.00943 6.5727 4.31109 6.8628 5.23954C6.96378 5.56275 7.09817 5.99295 7.20172 6.13723H16.6809L19.2006 5.19237C19.2456 5.17547 19.2939 5.16888 19.3419 5.17312C19.3898 5.17737 19.4362 5.1923 19.4776 5.21685C19.519 5.2414 19.5544 5.27492 19.5811 5.31492C19.6079 5.35495 19.6253 5.40047 19.6321 5.44812C19.6457 5.54323 19.9358 7.68888 18.7277 8.81319ZM1.87169 6.82575C1.88379 6.86799 1.90654 6.9064 1.93776 6.93733C1.96897 6.96826 2.00761 6.99064 2.04996 7.00233C2.18824 7.04743 2.33844 7.03864 2.47054 6.97778C2.51547 6.95926 2.55553 6.93064 2.58761 6.89416C2.6197 6.85768 2.64295 6.81426 2.65557 6.76733C2.66873 6.71985 2.67078 6.66999 2.66157 6.62157C2.65236 6.57319 2.63214 6.52754 2.60248 6.48823L2.25864 6.02999L1.9015 6.50619C1.86964 6.54868 1.83131 6.69585 1.87169 6.82575ZM1.80182 4.56237C1.64433 4.60333 1.49817 4.67943 1.37433 4.78499C1.25049 4.89057 1.15218 5.02285 1.0868 5.17185H2.25864V4.50216C2.10432 4.50106 1.95059 4.5213 1.80182 4.56237ZM4.51119 0.988449H4.18939C4.10408 0.988545 4.02227 1.02248 3.96195 1.08281C3.90162 1.14314 3.86768 1.22493 3.86758 1.31025C3.86758 1.3956 3.83368 1.47745 3.77336 1.5378C3.71299 1.59815 3.63116 1.63205 3.54581 1.63205H3.22402C3.1387 1.63215 3.05691 1.66608 2.99658 1.72641C2.93625 1.78674 2.90232 1.86853 2.90222 1.95385C2.90222 2.0392 2.86832 2.12105 2.80797 2.1814C2.74763 2.24175 2.66578 2.27565 2.58043 2.27565H2.27956C2.22819 2.27542 2.17752 2.28752 2.1318 2.31093C2.08609 2.33435 2.04665 2.36839 2.01682 2.4102C1.98724 2.45041 1.96773 2.49712 1.95994 2.54642C1.95215 2.59573 1.9563 2.64618 1.97205 2.69355C2.02156 2.85839 2.12862 2.99998 2.27373 3.09254C2.30249 3.05187 2.3329 3.01161 2.36624 2.97219C2.75895 2.51 3.37236 2.27565 4.18939 2.27565C4.29703 2.27549 4.40454 2.28268 4.51119 2.29717V0.988449ZM6.2485 5.4315C5.81906 4.05702 5.36768 2.91925 4.18939 2.91925C3.55441 2.91925 2.80227 3.09624 2.61052 3.88512C2.62931 3.88816 2.64081 3.89037 2.64354 3.89088C2.71649 3.90547 2.78213 3.94488 2.8293 4.00243C2.87646 4.05995 2.90223 4.13206 2.90222 4.20647V5.49364C2.9022 5.5723 2.87325 5.64816 2.82089 5.70685L3.11718 6.10188C3.20544 6.2194 3.2657 6.35554 3.29336 6.49985C3.32102 6.64419 3.31535 6.79295 3.27678 6.93478C3.23822 7.07657 3.16777 7.20771 3.07082 7.31816C2.97387 7.42861 2.85297 7.51547 2.71735 7.57209C2.67807 7.58837 2.63881 7.60268 2.59958 7.61506C2.68884 9.65575 3.11304 11.4006 3.86358 12.8034C4.48463 13.964 5.33031 14.8965 6.37699 15.5748C8.17076 16.7376 9.96421 16.7567 9.98162 16.7567C14.0936 16.7567 16.0243 13.5841 16.9289 10.7225L15.5979 10.9444C15.1697 11.3233 13.0116 13.1097 10.4017 13.1097C10.305 13.1097 10.2076 13.1072 10.1096 13.1021C8.52303 13.0199 7.09899 12.2633 5.87699 10.8532C4.74447 9.54661 4.36722 8.45264 4.75575 7.60171C4.99565 7.07633 5.50965 6.6824 6.28352 6.43085C6.38214 6.39868 6.48175 6.37026 6.58158 6.34461C6.46106 6.11106 6.36358 5.79971 6.2485 5.4315ZM8.37267 6.78085C6.50391 6.78085 5.58139 7.34299 5.34116 7.86909C5.07054 8.46181 5.42398 9.34795 6.36329 10.4317C7.46542 11.7032 8.73558 12.3854 10.139 12.4591C12.331 12.5747 14.2921 11.1768 14.9753 10.6256C14.1996 9.87288 11.7861 7.59102 10.2257 6.78075L8.37267 6.78085ZM16.4496 6.78085H11.4538C12.9783 7.83019 14.7469 9.50523 15.4123 10.1522C15.7931 9.59147 16.5536 8.26861 16.4496 6.78085ZM19.0243 5.94581L17.0869 6.67226C17.2128 8.15254 16.6022 9.45719 16.15 10.2L17.325 10.0042C17.7279 9.92243 17.9862 9.77237 18.0928 9.55747C18.2467 9.2473 18.0615 8.85778 18.0606 8.85561C18.0269 8.78823 18.0178 8.71116 18.0351 8.63778C18.0524 8.56444 18.0949 8.49947 18.1551 8.45423C18.9671 7.84526 19.0441 6.59285 19.0243 5.94581Z" stroke="#7A889B" stroke-width="0.6" mask="url(#path-3-outside-2_82_3225)"/>
</g>
<g id="Vector_4">
<mask id="path-4-outside-3_82_3225" maskUnits="userSpaceOnUse" x="-0.672119" y="-0.655151" width="21" height="21" fill="black">
<rect fill="white" x="-0.672119" y="-0.655151" width="21" height="21"/>
<path d="M18.7277 8.81319C18.799 9.0604 18.8577 9.45785 18.6725 9.83699C18.4956 10.199 18.1492 10.4516 17.6423 10.5897C17.1029 12.4307 16.3213 13.9317 15.3173 15.0529C13.9899 16.5359 12.2985 17.3223 10.2873 17.3943L9.77227 18.7679L11.0101 19.0155C11.0516 19.0238 11.091 19.0402 11.1261 19.0637C11.1612 19.0872 11.1913 19.1174 11.2148 19.1526C11.2382 19.1877 11.2545 19.2272 11.2627 19.2686C11.2709 19.3101 11.2709 19.3527 11.2626 19.3942C11.2543 19.4356 11.2379 19.475 11.2144 19.5101C11.1909 19.5453 11.1607 19.5754 11.1255 19.5989C11.0903 19.6223 11.0509 19.6386 11.0095 19.6468C10.968 19.655 10.9253 19.6549 10.8839 19.6466L7.90699 19.0513L7.69509 19.4751C7.6764 19.5132 7.65034 19.5473 7.61844 19.5753C7.5865 19.6033 7.54936 19.6247 7.50913 19.6383C7.46886 19.6519 7.42634 19.6574 7.38398 19.6544C7.34162 19.6515 7.30024 19.6402 7.26224 19.6212C7.22427 19.6022 7.19044 19.5759 7.16267 19.5437C7.1349 19.5116 7.11378 19.4743 7.1005 19.434C7.08722 19.3936 7.08208 19.351 7.08535 19.3087C7.0886 19.2663 7.10021 19.2251 7.11949 19.1872L7.44129 18.5436C7.4729 18.4805 7.52434 18.4295 7.58775 18.3985C7.65116 18.3675 7.72299 18.3582 7.79221 18.372L9.1329 18.6401L9.60617 17.3782C8.34188 17.2452 7.12604 16.819 6.05542 16.1334C4.90945 15.3977 3.9848 14.3863 3.30716 13.1275C2.50389 11.6351 2.04992 9.79144 1.956 7.64347C1.91879 7.63471 1.88166 7.62475 1.84474 7.6123C1.70585 7.56819 1.57978 7.49095 1.47742 7.38723C1.37507 7.2835 1.29949 7.15643 1.25723 7.01699C1.16351 6.71557 1.21676 6.34681 1.38671 6.12023L1.61506 5.81547H0.649687C0.602076 5.81547 0.555058 5.80488 0.512023 5.78454C0.468987 5.76416 0.431006 5.7345 0.400821 5.69768C0.370635 5.66085 0.348995 5.61778 0.337464 5.57161C0.325931 5.5254 0.324793 5.47723 0.334131 5.43054C0.532595 4.43819 1.15985 4.07016 1.65106 3.93623C1.75112 3.90916 1.85298 3.88933 1.95588 3.87685C1.96706 3.81312 1.98134 3.74716 1.99976 3.67975C1.69318 3.51102 1.46414 3.22976 1.36097 2.89536C1.31273 2.75136 1.29975 2.59789 1.32312 2.44783C1.34649 2.29778 1.40553 2.15552 1.49527 2.03301C1.58512 1.90907 1.70301 1.80813 1.83932 1.73844C1.97562 1.66876 2.12648 1.6323 2.27956 1.63205H2.31379C2.38055 1.44396 2.50387 1.28112 2.66684 1.16589C2.8298 1.05067 3.02443 0.988683 3.22402 0.988449H3.27916C3.34593 0.800356 3.46925 0.637525 3.63221 0.522293C3.79519 0.407066 3.98981 0.345083 4.18939 0.344849H4.83296C4.91831 0.344849 5.00017 0.378752 5.0605 0.4391C5.12086 0.499452 5.15476 0.581304 5.15476 0.666649V2.4962C6.16578 3.00943 6.5727 4.31109 6.8628 5.23954C6.96378 5.56275 7.09817 5.99295 7.20172 6.13723H16.6809L19.2006 5.19237C19.2456 5.17547 19.2939 5.16888 19.3419 5.17312C19.3898 5.17737 19.4362 5.1923 19.4776 5.21685C19.519 5.2414 19.5544 5.27492 19.5811 5.31492C19.6079 5.35495 19.6253 5.40047 19.6321 5.44812C19.6457 5.54323 19.9358 7.68888 18.7277 8.81319ZM1.87169 6.82575C1.88379 6.86799 1.90654 6.9064 1.93776 6.93733C1.96897 6.96826 2.00761 6.99064 2.04996 7.00233C2.18824 7.04743 2.33844 7.03864 2.47054 6.97778C2.51547 6.95926 2.55553 6.93064 2.58761 6.89416C2.6197 6.85768 2.64295 6.81426 2.65557 6.76733C2.66873 6.71985 2.67078 6.66999 2.66157 6.62157C2.65236 6.57319 2.63214 6.52754 2.60248 6.48823L2.25864 6.02999L1.9015 6.50619C1.86964 6.54868 1.83131 6.69585 1.87169 6.82575ZM1.80182 4.56237C1.64433 4.60333 1.49817 4.67943 1.37433 4.78499C1.25049 4.89057 1.15218 5.02285 1.0868 5.17185H2.25864V4.50216C2.10432 4.50106 1.95059 4.5213 1.80182 4.56237ZM4.51119 0.988449H4.18939C4.10408 0.988545 4.02227 1.02248 3.96195 1.08281C3.90162 1.14314 3.86768 1.22493 3.86758 1.31025C3.86758 1.3956 3.83368 1.47745 3.77336 1.5378C3.71299 1.59815 3.63116 1.63205 3.54581 1.63205H3.22402C3.1387 1.63215 3.05691 1.66608 2.99658 1.72641C2.93625 1.78674 2.90232 1.86853 2.90222 1.95385C2.90222 2.0392 2.86832 2.12105 2.80797 2.1814C2.74763 2.24175 2.66578 2.27565 2.58043 2.27565H2.27956C2.22819 2.27542 2.17752 2.28752 2.1318 2.31093C2.08609 2.33435 2.04665 2.36839 2.01682 2.4102C1.98724 2.45041 1.96773 2.49712 1.95994 2.54642C1.95215 2.59573 1.9563 2.64618 1.97205 2.69355C2.02156 2.85839 2.12862 2.99998 2.27373 3.09254C2.30249 3.05187 2.3329 3.01161 2.36624 2.97219C2.75895 2.51 3.37236 2.27565 4.18939 2.27565C4.29703 2.27549 4.40454 2.28268 4.51119 2.29717V0.988449ZM6.2485 5.4315C5.81906 4.05702 5.36768 2.91925 4.18939 2.91925C3.55441 2.91925 2.80227 3.09624 2.61052 3.88512C2.62931 3.88816 2.64081 3.89037 2.64354 3.89088C2.71649 3.90547 2.78213 3.94488 2.8293 4.00243C2.87646 4.05995 2.90223 4.13206 2.90222 4.20647V5.49364C2.9022 5.5723 2.87325 5.64816 2.82089 5.70685L3.11718 6.10188C3.20544 6.2194 3.2657 6.35554 3.29336 6.49985C3.32102 6.64419 3.31535 6.79295 3.27678 6.93478C3.23822 7.07657 3.16777 7.20771 3.07082 7.31816C2.97387 7.42861 2.85297 7.51547 2.71735 7.57209C2.67807 7.58837 2.63881 7.60268 2.59958 7.61506C2.68884 9.65575 3.11304 11.4006 3.86358 12.8034C4.48463 13.964 5.33031 14.8965 6.37699 15.5748C8.17076 16.7376 9.96421 16.7567 9.98162 16.7567C14.0936 16.7567 16.0243 13.5841 16.9289 10.7225L15.5979 10.9444C15.1697 11.3233 13.0116 13.1097 10.4017 13.1097C10.305 13.1097 10.2076 13.1072 10.1096 13.1021C8.52303 13.0199 7.09899 12.2633 5.87699 10.8532C4.74447 9.54661 4.36722 8.45264 4.75575 7.60171C4.99565 7.07633 5.50965 6.6824 6.28352 6.43085C6.38214 6.39868 6.48175 6.37026 6.58158 6.34461C6.46106 6.11106 6.36358 5.79971 6.2485 5.4315ZM8.37267 6.78085C6.50391 6.78085 5.58139 7.34299 5.34116 7.86909C5.07054 8.46181 5.42398 9.34795 6.36329 10.4317C7.46542 11.7032 8.73558 12.3854 10.139 12.4591C12.331 12.5747 14.2921 11.1768 14.9753 10.6256C14.1996 9.87288 11.7861 7.59102 10.2257 6.78075L8.37267 6.78085ZM16.4496 6.78085H11.4538C12.9783 7.83019 14.7469 9.50523 15.4123 10.1522C15.7931 9.59147 16.5536 8.26861 16.4496 6.78085ZM19.0243 5.94581L17.0869 6.67226C17.2128 8.15254 16.6022 9.45719 16.15 10.2L17.325 10.0042C17.7279 9.92243 17.9862 9.77237 18.0928 9.55747C18.2467 9.2473 18.0615 8.85778 18.0606 8.85561C18.0269 8.78823 18.0178 8.71116 18.0351 8.63778C18.0524 8.56444 18.0949 8.49947 18.1551 8.45423C18.9671 7.84526 19.0441 6.59285 19.0243 5.94581Z"/>
</mask>
<path d="M18.7277 8.81319C18.799 9.0604 18.8577 9.45785 18.6725 9.83699C18.4956 10.199 18.1492 10.4516 17.6423 10.5897C17.1029 12.4307 16.3213 13.9317 15.3173 15.0529C13.9899 16.5359 12.2985 17.3223 10.2873 17.3943L9.77227 18.7679L11.0101 19.0155C11.0516 19.0238 11.091 19.0402 11.1261 19.0637C11.1612 19.0872 11.1913 19.1174 11.2148 19.1526C11.2382 19.1877 11.2545 19.2272 11.2627 19.2686C11.2709 19.3101 11.2709 19.3527 11.2626 19.3942C11.2543 19.4356 11.2379 19.475 11.2144 19.5101C11.1909 19.5453 11.1607 19.5754 11.1255 19.5989C11.0903 19.6223 11.0509 19.6386 11.0095 19.6468C10.968 19.655 10.9253 19.6549 10.8839 19.6466L7.90699 19.0513L7.69509 19.4751C7.6764 19.5132 7.65034 19.5473 7.61844 19.5753C7.5865 19.6033 7.54936 19.6247 7.50913 19.6383C7.46886 19.6519 7.42634 19.6574 7.38398 19.6544C7.34162 19.6515 7.30024 19.6402 7.26224 19.6212C7.22427 19.6022 7.19044 19.5759 7.16267 19.5437C7.1349 19.5116 7.11378 19.4743 7.1005 19.434C7.08722 19.3936 7.08208 19.351 7.08535 19.3087C7.0886 19.2663 7.10021 19.2251 7.11949 19.1872L7.44129 18.5436C7.4729 18.4805 7.52434 18.4295 7.58775 18.3985C7.65116 18.3675 7.72299 18.3582 7.79221 18.372L9.1329 18.6401L9.60617 17.3782C8.34188 17.2452 7.12604 16.819 6.05542 16.1334C4.90945 15.3977 3.9848 14.3863 3.30716 13.1275C2.50389 11.6351 2.04992 9.79144 1.956 7.64347C1.91879 7.63471 1.88166 7.62475 1.84474 7.6123C1.70585 7.56819 1.57978 7.49095 1.47742 7.38723C1.37507 7.2835 1.29949 7.15643 1.25723 7.01699C1.16351 6.71557 1.21676 6.34681 1.38671 6.12023L1.61506 5.81547H0.649687C0.602076 5.81547 0.555058 5.80488 0.512023 5.78454C0.468987 5.76416 0.431006 5.7345 0.400821 5.69768C0.370635 5.66085 0.348995 5.61778 0.337464 5.57161C0.325931 5.5254 0.324793 5.47723 0.334131 5.43054C0.532595 4.43819 1.15985 4.07016 1.65106 3.93623C1.75112 3.90916 1.85298 3.88933 1.95588 3.87685C1.96706 3.81312 1.98134 3.74716 1.99976 3.67975C1.69318 3.51102 1.46414 3.22976 1.36097 2.89536C1.31273 2.75136 1.29975 2.59789 1.32312 2.44783C1.34649 2.29778 1.40553 2.15552 1.49527 2.03301C1.58512 1.90907 1.70301 1.80813 1.83932 1.73844C1.97562 1.66876 2.12648 1.6323 2.27956 1.63205H2.31379C2.38055 1.44396 2.50387 1.28112 2.66684 1.16589C2.8298 1.05067 3.02443 0.988683 3.22402 0.988449H3.27916C3.34593 0.800356 3.46925 0.637525 3.63221 0.522293C3.79519 0.407066 3.98981 0.345083 4.18939 0.344849H4.83296C4.91831 0.344849 5.00017 0.378752 5.0605 0.4391C5.12086 0.499452 5.15476 0.581304 5.15476 0.666649V2.4962C6.16578 3.00943 6.5727 4.31109 6.8628 5.23954C6.96378 5.56275 7.09817 5.99295 7.20172 6.13723H16.6809L19.2006 5.19237C19.2456 5.17547 19.2939 5.16888 19.3419 5.17312C19.3898 5.17737 19.4362 5.1923 19.4776 5.21685C19.519 5.2414 19.5544 5.27492 19.5811 5.31492C19.6079 5.35495 19.6253 5.40047 19.6321 5.44812C19.6457 5.54323 19.9358 7.68888 18.7277 8.81319ZM1.87169 6.82575C1.88379 6.86799 1.90654 6.9064 1.93776 6.93733C1.96897 6.96826 2.00761 6.99064 2.04996 7.00233C2.18824 7.04743 2.33844 7.03864 2.47054 6.97778C2.51547 6.95926 2.55553 6.93064 2.58761 6.89416C2.6197 6.85768 2.64295 6.81426 2.65557 6.76733C2.66873 6.71985 2.67078 6.66999 2.66157 6.62157C2.65236 6.57319 2.63214 6.52754 2.60248 6.48823L2.25864 6.02999L1.9015 6.50619C1.86964 6.54868 1.83131 6.69585 1.87169 6.82575ZM1.80182 4.56237C1.64433 4.60333 1.49817 4.67943 1.37433 4.78499C1.25049 4.89057 1.15218 5.02285 1.0868 5.17185H2.25864V4.50216C2.10432 4.50106 1.95059 4.5213 1.80182 4.56237ZM4.51119 0.988449H4.18939C4.10408 0.988545 4.02227 1.02248 3.96195 1.08281C3.90162 1.14314 3.86768 1.22493 3.86758 1.31025C3.86758 1.3956 3.83368 1.47745 3.77336 1.5378C3.71299 1.59815 3.63116 1.63205 3.54581 1.63205H3.22402C3.1387 1.63215 3.05691 1.66608 2.99658 1.72641C2.93625 1.78674 2.90232 1.86853 2.90222 1.95385C2.90222 2.0392 2.86832 2.12105 2.80797 2.1814C2.74763 2.24175 2.66578 2.27565 2.58043 2.27565H2.27956C2.22819 2.27542 2.17752 2.28752 2.1318 2.31093C2.08609 2.33435 2.04665 2.36839 2.01682 2.4102C1.98724 2.45041 1.96773 2.49712 1.95994 2.54642C1.95215 2.59573 1.9563 2.64618 1.97205 2.69355C2.02156 2.85839 2.12862 2.99998 2.27373 3.09254C2.30249 3.05187 2.3329 3.01161 2.36624 2.97219C2.75895 2.51 3.37236 2.27565 4.18939 2.27565C4.29703 2.27549 4.40454 2.28268 4.51119 2.29717V0.988449ZM6.2485 5.4315C5.81906 4.05702 5.36768 2.91925 4.18939 2.91925C3.55441 2.91925 2.80227 3.09624 2.61052 3.88512C2.62931 3.88816 2.64081 3.89037 2.64354 3.89088C2.71649 3.90547 2.78213 3.94488 2.8293 4.00243C2.87646 4.05995 2.90223 4.13206 2.90222 4.20647V5.49364C2.9022 5.5723 2.87325 5.64816 2.82089 5.70685L3.11718 6.10188C3.20544 6.2194 3.2657 6.35554 3.29336 6.49985C3.32102 6.64419 3.31535 6.79295 3.27678 6.93478C3.23822 7.07657 3.16777 7.20771 3.07082 7.31816C2.97387 7.42861 2.85297 7.51547 2.71735 7.57209C2.67807 7.58837 2.63881 7.60268 2.59958 7.61506C2.68884 9.65575 3.11304 11.4006 3.86358 12.8034C4.48463 13.964 5.33031 14.8965 6.37699 15.5748C8.17076 16.7376 9.96421 16.7567 9.98162 16.7567C14.0936 16.7567 16.0243 13.5841 16.9289 10.7225L15.5979 10.9444C15.1697 11.3233 13.0116 13.1097 10.4017 13.1097C10.305 13.1097 10.2076 13.1072 10.1096 13.1021C8.52303 13.0199 7.09899 12.2633 5.87699 10.8532C4.74447 9.54661 4.36722 8.45264 4.75575 7.60171C4.99565 7.07633 5.50965 6.6824 6.28352 6.43085C6.38214 6.39868 6.48175 6.37026 6.58158 6.34461C6.46106 6.11106 6.36358 5.79971 6.2485 5.4315ZM8.37267 6.78085C6.50391 6.78085 5.58139 7.34299 5.34116 7.86909C5.07054 8.46181 5.42398 9.34795 6.36329 10.4317C7.46542 11.7032 8.73558 12.3854 10.139 12.4591C12.331 12.5747 14.2921 11.1768 14.9753 10.6256C14.1996 9.87288 11.7861 7.59102 10.2257 6.78075L8.37267 6.78085ZM16.4496 6.78085H11.4538C12.9783 7.83019 14.7469 9.50523 15.4123 10.1522C15.7931 9.59147 16.5536 8.26861 16.4496 6.78085ZM19.0243 5.94581L17.0869 6.67226C17.2128 8.15254 16.6022 9.45719 16.15 10.2L17.325 10.0042C17.7279 9.92243 17.9862 9.77237 18.0928 9.55747C18.2467 9.2473 18.0615 8.85778 18.0606 8.85561C18.0269 8.78823 18.0178 8.71116 18.0351 8.63778C18.0524 8.56444 18.0949 8.49947 18.1551 8.45423C18.9671 7.84526 19.0441 6.59285 19.0243 5.94581Z" stroke="#7A889B" stroke-width="0.6" mask="url(#path-4-outside-3_82_3225)"/>
</g>
<path id="Vector_5" d="M3.80496 4.37502C3.80496 4.62568 4.00274 4.83753 4.25722 4.83753C4.51168 4.83753 4.70945 4.62567 4.70945 4.37502C4.70945 4.12436 4.51168 3.9125 4.25722 3.9125C4.00274 3.9125 3.80496 4.12435 3.80496 4.37502Z" fill="#7A889B" stroke="#7A889B" stroke-width="0.3"/>
</g>
</g>
</svg>
