<svg width="16" height="20" viewBox="0 0 16 20" fill="none" xmlns="http://www.w3.org/2000/svg">
<g id="Vector">
<path d="M6.76924 7.42186C7.10909 7.42186 7.38462 7.15955 7.38462 6.83593C7.38462 6.51234 7.10909 6.25 6.76924 6.25C6.42936 6.25 6.15383 6.51234 6.15383 6.83593C6.15383 7.15955 6.42936 7.42186 6.76924 7.42186Z" fill="white"/>
<path d="M9.23077 7.42186C9.57066 7.42186 9.84619 7.15955 9.84619 6.83593C9.84619 6.51234 9.57066 6.25 9.23077 6.25C8.89092 6.25 8.61539 6.51234 8.61539 6.83593C8.61539 7.15955 8.89092 7.42186 9.23077 7.42186Z" fill="white"/>
<path d="M16 11.1328C16 10.4291 15.6773 9.77007 15.1313 9.31348C15.3644 8.658 15.2978 7.93366 14.9282 7.32421C14.8469 7.19007 14.7523 7.06507 14.6467 6.94969C15.3539 6.56783 15.8117 6.08821 15.843 6.05493C16.0523 5.83245 16.0523 5.49569 15.843 5.27321C15.7975 5.22479 14.8495 4.23238 13.5444 3.96993C13.5361 3.97403 13.528 3.97852 13.5197 3.98272C13.5317 3.89362 13.5385 3.80303 13.5385 3.71093C13.5385 2.52629 12.5263 1.5625 11.2821 1.5625C11.1026 1.5625 10.9246 1.58312 10.7517 1.62348C10.5546 1.24789 10.2735 0.912772 9.92719 0.646952C9.38367 0.229766 8.69926 0 8.00001 0C7.30075 0 6.61635 0.229766 6.07286 0.646952C5.7266 0.912772 5.44546 1.24789 5.24837 1.62348C5.07537 1.58312 4.89744 1.5625 4.71795 1.5625C3.47376 1.5625 2.46153 2.52629 2.46153 3.71093C2.46153 3.79703 2.46751 3.88176 2.47786 3.96521C1.1612 4.22069 0.202709 5.22452 0.156925 5.27321C-0.0523082 5.49566 -0.0523082 5.83241 0.156925 6.05493C0.188226 6.08821 0.64595 6.56766 1.35286 6.94948C1.24743 7.06483 1.15316 7.1901 1.07184 7.32417C0.702236 7.93366 0.635694 8.658 0.86876 9.31345C0.32275 9.77007 1.80245e-06 10.4291 1.80245e-06 11.1328C1.80245e-06 11.8366 0.32275 12.4956 0.86876 12.9521C0.635654 13.6076 0.702197 14.3319 1.0718 14.9414C1.4217 15.5185 2.00112 15.9226 2.66666 16.079V19.4141C2.66666 19.7377 2.94219 20 3.28207 20H5.74358C6.08347 20 6.35896 19.7377 6.35896 19.4141V18.1744C6.81199 18.5401 7.38981 18.75 8.00001 18.75C8.61021 18.75 9.18803 18.5401 9.64102 18.1744V19.4141C9.64102 19.7377 9.91655 20 10.2564 20H12.7179C13.0578 20 13.3334 19.7377 13.3334 19.4141V16.079C13.9989 15.9226 14.5783 15.5184 14.9282 14.9414C15.2978 14.3319 15.3644 13.6076 15.1313 12.9521C15.6773 12.4956 16 11.8366 16 11.1328ZM13.0198 5.08076C13.5868 5.11166 14.1101 5.40665 14.4644 5.66403C14.0898 5.93617 13.5269 6.25 12.9231 6.25C12.6189 6.25 12.337 6.18586 12.1023 6.1049C12.1025 6.08807 12.1198 6.05776 12.1026 6.05469C12.1026 5.94228 12.0982 5.82921 12.091 5.71607C12.455 5.58245 12.774 5.36186 13.0191 5.08062C13.0193 5.08066 13.0196 5.08069 13.0198 5.08076ZM10.8718 6.05469C10.8718 7.04762 10.5033 8.10086 9.86081 8.94438C9.29146 9.69186 8.57845 10.1562 8.00001 10.1562C7.42157 10.1562 6.70855 9.69186 6.13921 8.94438C5.4967 8.10086 5.12821 7.04762 5.12821 6.05469C5.12821 5.97738 5.13031 5.89966 5.13443 5.82183C5.13443 5.82179 5.13443 5.82186 5.13443 5.82183C5.53625 5.74872 5.90902 5.57148 6.21298 5.31238C6.73039 5.66497 7.35388 5.85938 8.00001 5.85938C8.64613 5.85938 9.26966 5.66493 9.78704 5.31238C10.091 5.57148 10.4638 5.74862 10.8656 5.82172C10.8656 5.82176 10.8656 5.82169 10.8656 5.82172C10.8697 5.89955 10.8718 5.97738 10.8718 6.05469ZM4.71795 2.73438C4.91203 2.73438 5.10322 2.78875 5.27079 2.89156C5.43915 2.99492 5.64982 3.01375 5.83546 2.94207C6.02111 2.87043 6.15847 2.71723 6.20371 2.53141C6.39858 1.73098 7.13728 1.17188 8.00001 1.17188C8.86278 1.17188 9.60143 1.73098 9.79635 2.53144C9.84162 2.71723 9.97895 2.87047 10.1646 2.94211C10.3502 3.01383 10.5609 2.995 10.7293 2.8916C10.8968 2.78875 11.088 2.73438 11.2821 2.73438C11.8476 2.73438 12.3077 3.17246 12.3077 3.71093C12.3077 4.24941 11.8476 4.68752 11.2821 4.68752C10.9158 4.68752 10.5747 4.49379 10.3919 4.18197C10.2943 4.01541 10.1176 3.90452 9.91839 3.88479C9.89703 3.88266 9.87573 3.88166 9.85455 3.88166C9.67774 3.88166 9.50818 3.95421 9.39069 4.08262C9.03875 4.467 8.53187 4.68752 8.00001 4.68752C7.46818 4.68752 6.9613 4.467 6.60932 4.08255C6.47771 3.93879 6.28095 3.8649 6.08162 3.88476C5.8824 3.90459 5.70574 4.01541 5.6081 4.18197C5.42532 4.49379 5.08424 4.68752 4.71795 4.68752C4.15241 4.68752 3.69232 4.24941 3.69232 3.71093C3.69232 3.17246 4.15241 2.73438 4.71795 2.73438ZM2.98021 5.08076C2.98043 5.08062 2.98061 5.08052 2.98079 5.08038C3.2259 5.36176 3.54496 5.58238 3.90904 5.716C3.90208 5.82917 3.89745 5.94224 3.89745 6.05466C3.89745 6.07134 3.89752 6.08803 3.8977 6.10483C3.66306 6.18586 3.38116 6.25 3.07691 6.25C2.47294 6.25 1.90996 5.93607 1.53564 5.6641C1.89008 5.40652 2.41329 5.11166 2.98021 5.08076ZM5.12821 18.8281H3.89745V17.67C3.89763 17.6701 3.89821 17.67 3.89846 17.6701C3.93178 17.6905 3.96546 17.7105 3.99998 17.7295C4.35047 17.9222 4.73722 18.0278 5.12846 18.048C5.12839 18.0484 5.12828 18.0489 5.12821 18.0494V18.8281ZM12.1026 18.8281H10.8718V18.0493C10.8715 18.0488 10.8712 18.0484 10.8709 18.0479C11.2623 18.0278 11.6493 17.9222 12 17.7294C12.0346 17.7104 12.0682 17.6904 12.1016 17.67C12.1018 17.67 12.1024 17.67 12.1026 17.6699V18.8281ZM14.0658 12.2392C13.9167 12.3158 13.8074 12.4475 13.7636 12.6032C13.7197 12.759 13.7453 12.925 13.8342 13.0623C14.0929 13.462 14.1037 13.9574 13.8624 14.3555C13.6211 14.7534 13.1647 14.9924 12.6721 14.9788C12.5029 14.9746 12.339 15.0361 12.2193 15.1502C12.0995 15.2642 12.0344 15.4201 12.0393 15.5813C12.0534 16.0506 11.8026 16.4848 11.3846 16.7146C10.9667 16.9444 10.4463 16.9341 10.0265 16.6877C9.88232 16.6031 9.70791 16.5788 9.54432 16.6206C9.38077 16.6623 9.24246 16.7664 9.16206 16.9083C8.92789 17.3215 8.48262 17.5781 8.00001 17.5781C7.5174 17.5781 7.07212 17.3215 6.83795 16.9083C6.75755 16.7664 6.61925 16.6623 6.4557 16.6206C6.29214 16.5789 6.11769 16.6032 5.97352 16.6878C5.55378 16.9341 5.03336 16.9444 4.61539 16.7147C4.19742 16.4849 3.94659 16.0506 3.96075 15.5814C3.96561 15.4202 3.90053 15.2642 3.78076 15.1502C3.661 15.0361 3.49716 14.9742 3.32792 14.9788C2.83622 14.9933 2.37896 14.7534 2.13765 14.3555C1.89635 13.9576 1.9071 13.462 2.16586 13.0624C2.25474 12.9251 2.28023 12.759 2.23645 12.6033C2.19263 12.4476 2.08329 12.3159 1.93423 12.2393C1.50033 12.0163 1.23077 11.5923 1.23077 11.1328C1.23077 10.6733 1.50033 10.2493 1.93423 10.0264C2.08329 9.94979 2.19259 9.81817 2.23645 9.66241C2.28023 9.50666 2.25474 9.34059 2.16586 9.20331C1.90718 8.80362 1.89635 8.30814 2.13769 7.91021C2.30363 7.63645 2.53367 7.48497 2.72949 7.40121C2.84321 7.41417 2.95895 7.42193 3.07687 7.42193C3.39434 7.42193 3.71988 7.37707 4.04249 7.29052C4.23494 8.12297 4.61318 8.937 5.14287 9.63238C5.96374 10.71 7.00513 11.3281 8.00001 11.3281C8.99489 11.3281 10.0363 10.71 10.8571 9.63235C11.3868 8.937 11.765 8.12297 11.9574 7.29055C12.2801 7.37714 12.6056 7.42186 12.9231 7.42186C13.041 7.42186 13.1568 7.41414 13.2705 7.40117C13.4663 7.4849 13.6964 7.63641 13.8623 7.91021C14.1036 8.30814 14.0928 8.80359 13.8341 9.20331C13.7452 9.34059 13.7197 9.50666 13.7635 9.66241C13.8074 9.81817 13.9167 9.94979 14.0658 10.0264C14.4997 10.2493 14.7692 10.6733 14.7692 11.1328C14.7692 11.5923 14.4997 12.0163 14.0658 12.2392Z" fill="white"/>
</g>
</svg>
