<svg width="80" height="80" viewBox="0 0 80 80" fill="none" xmlns="http://www.w3.org/2000/svg">
<g id="comparison 1" opacity="0.5">
<g id="Group">
<path id="Vector" fill-rule="evenodd" clip-rule="evenodd" d="M68.7496 22.5H70.5671C72.4533 22.5 74.0458 23.9 74.2871 25.7713L76.2183 40.7713C76.3571 41.84 76.0271 42.9175 75.3158 43.7262C74.6033 44.5362 73.5771 45 72.4996 45H55.0008C53.9233 45 52.8971 44.5362 52.1846 43.7262C51.4733 42.9175 51.1433 41.84 51.2821 40.7713L53.2133 25.7713C53.4546 23.9 55.0471 22.5 56.9333 22.5H58.7496V21.25C58.7496 18.49 60.9908 16.25 63.7496 16.25C66.5096 16.25 68.7496 18.49 68.7496 21.25V22.5ZM66.2496 22.5V21.25C66.2496 19.87 65.1296 18.75 63.7496 18.75C62.3708 18.75 61.2496 19.87 61.2496 21.25V22.5H66.2496ZM59.9996 40H67.4996C68.1896 40 68.7496 39.44 68.7496 38.75C68.7496 38.06 68.1896 37.5 67.4996 37.5H59.9996C59.3096 37.5 58.7496 38.06 58.7496 38.75C58.7496 39.44 59.3096 40 59.9996 40ZM21.2496 22.5H23.0671C24.9533 22.5 26.5458 23.9 26.7871 25.7713L28.7183 40.7713C28.8571 41.84 28.5271 42.9175 27.8158 43.7262C27.1033 44.5362 26.0771 45 24.9996 45H7.50082C6.42332 45 5.39707 44.5362 4.68457 43.7262C3.97332 42.9175 3.64332 41.84 3.78207 40.7713L5.71332 25.7713C5.95457 23.9 7.54707 22.5 9.43332 22.5H11.2496V21.25C11.2496 18.49 13.4908 16.25 16.2496 16.25C19.0096 16.25 21.2496 18.49 21.2496 21.25V22.5ZM18.7496 22.5V21.25C18.7496 19.87 17.6296 18.75 16.2496 18.75C14.8708 18.75 13.7496 19.87 13.7496 21.25V22.5H18.7496ZM11.2496 25H9.43332C8.80457 25 8.27332 25.4662 8.19332 26.09L6.26082 41.09C6.21457 41.4463 6.32457 41.8062 6.56207 42.075C6.79957 42.345 7.14082 42.5 7.50082 42.5H24.9996C25.3583 42.5 25.7008 42.345 25.9383 42.075C26.1758 41.8062 26.2858 41.4463 26.2396 41.09L24.3071 26.09C24.2271 25.4662 23.6958 25 23.0671 25H21.2496V27.5C21.2496 28.19 20.6896 28.75 19.9996 28.75C19.3108 28.75 18.7496 28.19 18.7496 27.5V25H13.7496V27.5C13.7496 28.19 13.1896 28.75 12.4996 28.75C11.8108 28.75 11.2496 28.19 11.2496 27.5V25ZM36.4608 55H18.7496C16.6796 55 14.9996 53.3213 14.9996 51.25V48.75C14.9996 48.06 15.5596 47.5 16.2496 47.5C16.9396 47.5 17.4996 48.06 17.4996 48.75V51.25C17.4996 51.94 18.0596 52.5 18.7496 52.5H39.8258C39.8833 52.4963 39.9421 52.4937 39.9996 52.4937C40.0571 52.4937 40.1146 52.4963 40.1733 52.5H61.2496C61.5808 52.5 61.8996 52.3688 62.1333 52.1338C62.3683 51.9 62.4996 51.5812 62.4996 51.25V48.75C62.4996 48.06 63.0596 47.5 63.7496 47.5C64.4396 47.5 64.9996 48.06 64.9996 48.75V51.25C64.9996 52.245 64.6046 53.1987 63.9008 53.9012C63.1983 54.605 62.2446 55 61.2496 55H43.5383L48.0171 59.4838C48.7308 60.1988 48.9446 61.2738 48.5571 62.2075C48.1696 63.1412 47.2583 63.75 46.2483 63.75H33.7508C32.7408 63.75 31.8296 63.1412 31.4421 62.2075C31.0546 61.2738 31.2683 60.1988 31.9821 59.4838L36.4608 55Z" fill="#00C695"/>
</g>
</g>
</svg>
