<svg width="12" height="12" viewBox="0 0 12 12" fill="none" xmlns="http://www.w3.org/2000/svg">
<g id="vuesax/bold/edit-2">
<g id="edit-2">
<path id="Vector" d="M10.5 11H1.5C1.295 11 1.125 10.83 1.125 10.625C1.125 10.42 1.295 10.25 1.5 10.25H10.5C10.705 10.25 10.875 10.42 10.875 10.625C10.875 10.83 10.705 11 10.5 11Z" fill="white"/>
<path id="Vector_2" d="M9.51 1.73983C8.54 0.769834 7.59 0.744834 6.595 1.73983L5.99 2.34483C5.94 2.39483 5.92 2.47483 5.94 2.54483C6.32 3.86983 7.38 4.92983 8.705 5.30983C8.725 5.31483 8.745 5.31983 8.765 5.31983C8.82 5.31983 8.87 5.29983 8.91 5.25983L9.51 4.65483C10.005 4.16483 10.245 3.68983 10.245 3.20983C10.25 2.71483 10.01 2.23483 9.51 1.73983Z" fill="white"/>
<path id="Vector_3" d="M7.80491 5.76539C7.65991 5.69539 7.51992 5.62539 7.38492 5.54539C7.27492 5.48039 7.16992 5.41039 7.06492 5.33539C6.97992 5.28039 6.87991 5.20039 6.78491 5.12039C6.77491 5.11539 6.73991 5.08539 6.69991 5.04539C6.53491 4.90539 6.34992 4.72539 6.18492 4.52539C6.16992 4.51539 6.14492 4.48039 6.10992 4.43539C6.05992 4.37539 5.97492 4.27539 5.89992 4.16039C5.83992 4.08539 5.76992 3.97539 5.70492 3.86539C5.62492 3.73039 5.55492 3.59539 5.48492 3.45539C5.39314 3.25872 5.13501 3.2003 4.98155 3.35376L2.16992 6.16539C2.10492 6.23039 2.04492 6.35539 2.02992 6.44039L1.75992 8.35539C1.70992 8.69539 1.80492 9.01539 2.01492 9.23039C2.19492 9.40539 2.44492 9.50039 2.71492 9.50039C2.77492 9.50039 2.83492 9.49539 2.89492 9.48539L4.81492 9.21539C4.90492 9.20039 5.02992 9.14039 5.08992 9.07539L7.90618 6.25912C8.05658 6.10873 8.00007 5.84996 7.80491 5.76539Z" fill="white"/>
</g>
</g>
</svg>
