<svg width="20" height="20" viewBox="0 0 20 20" fill="none" xmlns="http://www.w3.org/2000/svg">
<g id="Hujjat-smalllogo" clip-path="url(#clip0_204_5626)">
<path id="Vector" d="M14.2942 3.32049C14.0869 3.32049 13.8865 3.23078 13.7574 3.0689C13.7193 3.02209 13.6792 2.97625 13.6371 2.93237C13.5032 2.79487 13.3496 2.67687 13.1814 2.58228C12.894 2.42138 12.5625 2.32873 12.2095 2.32873C11.5201 2.32873 10.9128 2.67882 10.5569 3.2103L9.35119 4.77254L9.30524 4.83202L8.55913 5.79843L8.4369 5.95641L7.76903 6.82237L6.48413 8.48603C6.42155 8.566 6.33648 8.62548 6.23967 8.65571L3.71486 9.43391C3.58285 9.47389 3.44986 9.37637 3.44986 9.23887V6.67609C3.44986 6.56687 3.48604 6.46155 3.55253 6.37574L5.32929 4.08699L7.28108 1.57394C7.28108 1.57394 7.28304 1.57004 7.28499 1.56809L7.37593 1.45107C7.38473 1.44132 7.39256 1.43059 7.40038 1.42084C8.11812 0.552928 9.20452 0 10.421 0C10.5393 0 10.6576 0.00487591 10.773 0.0165781C12.5683 0.175533 14.0155 1.54274 14.2903 3.29709C14.2913 3.30489 14.2923 3.31269 14.2942 3.32049Z" fill="#084E8C"/>
<path id="Vector_2" d="M16.6704 14.2425C16.6704 14.0358 16.7604 13.8358 16.9227 13.7071C16.9696 13.6691 17.0156 13.6291 17.0596 13.5872C17.1975 13.4536 17.3158 13.3005 17.4106 13.1327C17.572 12.846 17.6649 12.5155 17.6649 12.1634C17.6649 11.4759 17.3138 10.8703 16.7809 10.5154L15.2144 9.31296L15.1547 9.26712L14.1857 8.52306L14.0273 8.40116L13.1589 7.73511L11.4907 6.45372C11.4105 6.39131 11.3509 6.30647 11.3206 6.20993L10.5403 3.69201C10.5002 3.56036 10.598 3.42773 10.7358 3.42773H13.3056C13.4151 3.42773 13.5208 3.46382 13.6068 3.53013L15.9018 5.30203L18.4217 7.2485C18.4217 7.2485 18.4257 7.25045 18.4276 7.2524L18.545 7.34309C18.5547 7.35187 18.5655 7.35967 18.5753 7.36747C19.4456 8.08423 20 9.16765 20 10.3808C20 10.4988 19.9951 10.6168 19.9834 10.7318C19.824 12.5223 18.453 13.9655 16.6939 14.2396C16.6861 14.2405 16.6782 14.2415 16.6704 14.2435V14.2425Z" fill="#084E8C"/>
<path id="Vector_3" d="M5.71265 16.6791C5.91995 16.6791 6.12041 16.7688 6.24949 16.9307C6.28762 16.9775 6.32772 17.0233 6.36976 17.0672C6.50373 17.2047 6.65725 17.3227 6.82544 17.4173C7.11293 17.5782 7.44442 17.6709 7.79743 17.6709C8.48681 17.6709 9.09406 17.3208 9.45 16.7893L10.6557 15.2271L10.7016 15.1676L11.4477 14.2012L11.57 14.0432L12.2379 13.1772L13.5227 11.5136C13.5853 11.4336 13.6704 11.3741 13.7672 11.3439L16.292 10.5657C16.424 10.5257 16.557 10.6232 16.557 10.7607V13.3235C16.557 13.4327 16.5208 13.538 16.4543 13.6239L14.6776 15.9126L12.7258 18.4256C12.7258 18.4256 12.7238 18.4295 12.7219 18.4315L12.6309 18.5485C12.6221 18.5583 12.6143 18.569 12.6065 18.5788C11.8878 19.4467 10.8014 19.9996 9.58494 19.9996C9.46662 19.9996 9.3483 19.9947 9.23291 19.983C7.43758 19.8241 5.99036 18.4569 5.71558 16.7025C5.7146 16.6947 5.71363 16.6869 5.71167 16.6791H5.71265Z" fill="#084E8C"/>
<path id="Vector_4" d="M3.32959 5.73633C3.32959 5.94307 3.23962 6.14298 3.0773 6.2717C3.03036 6.30973 2.9844 6.34972 2.9404 6.39165C2.80252 6.52525 2.6842 6.67835 2.58935 6.84608C2.42801 7.13279 2.33511 7.46337 2.33511 7.81542C2.33511 8.50292 2.68616 9.10851 3.21909 9.46347L4.78561 10.6659L4.84526 10.7117L5.81431 11.4558L5.97272 11.5777L6.84105 12.2437L8.50927 13.5251C8.58945 13.5875 8.6491 13.6724 8.67941 13.7689L9.45974 16.2868C9.49983 16.4185 9.40204 16.5511 9.26417 16.5511H6.69437C6.58485 16.5511 6.47925 16.515 6.39319 16.4487L4.09818 14.6768L1.57825 12.7303C1.57825 12.7303 1.57434 12.7284 1.57239 12.7264L1.45504 12.6357C1.44526 12.627 1.43451 12.6192 1.42473 12.6114C0.554442 11.8956 0 10.8121 0 9.59902C0 9.48103 0.00488926 9.36303 0.0166235 9.24796C0.176013 7.45752 1.54696 6.01425 3.30612 5.74023C3.31394 5.73925 3.32176 5.73828 3.32959 5.73633Z" fill="#084E8C"/>
</g>
<defs>
<clipPath id="clip0_204_5626">
<rect width="20" height="20" fill="white"/>
</clipPath>
</defs>
</svg>
