<svg width="16" height="20" viewBox="0 0 16 20" fill="none" xmlns="http://www.w3.org/2000/svg">
<g id="Group">
<path id="Vector" d="M2.1881 7.53599L0.892796 6.29301C-0.297599 5.15073 -0.297599 3.29206 0.892796 2.14973L3.13306 0L4.42842 1.24296C5.61881 2.38532 5.61881 4.244 4.42842 5.38624L2.1881 7.53599ZM3.13306 1.6573L1.75633 2.97838C1.04211 3.66379 1.04211 4.77901 1.75633 5.46438L2.1881 5.87866L3.56486 4.55761C4.27905 3.87224 4.27905 2.75701 3.56486 2.07161L3.13306 1.6573Z" fill="#7A889B"/>
<path id="Vector_2" d="M10.3423 20.0001C9.59616 20.0001 8.80177 19.8865 7.98885 19.6584C6.30794 19.1868 4.7078 18.2798 3.4833 17.1048C2.26684 15.9375 1.43293 14.5095 1.07169 12.975C0.717521 11.4705 0.860123 9.95115 1.47319 8.69676C1.55447 8.53052 1.56427 8.35708 1.50083 8.20838C1.18416 7.46645 1.27961 6.75048 1.75617 6.29315C2.23273 5.83589 2.97888 5.74431 3.75205 6.04817C3.90702 6.10908 4.08773 6.09964 4.26097 6.02168C5.56756 5.43361 7.14404 5.2968 8.70001 5.63659C10.2846 5.98252 11.7654 6.78266 12.9824 7.95048C14.2061 9.12473 15.1513 10.6675 15.6439 12.2945C16.1609 14.0023 16.1135 15.6222 15.5107 16.8557C15.4294 17.022 15.4196 17.1955 15.483 17.3442C15.7997 18.086 15.7043 18.802 15.2277 19.2593C14.7511 19.7166 14.005 19.8083 13.2318 19.5043C13.0769 19.4434 12.8961 19.4529 12.7229 19.5309C12.0288 19.8432 11.2188 20 10.3423 20.0001ZM2.87602 7.04441C2.76417 7.04441 2.67359 7.07013 2.61973 7.12185C2.50817 7.2289 2.51267 7.48708 2.631 7.76424C2.82549 8.21995 2.80695 8.72785 2.57889 9.19445C1.52391 11.3528 2.25094 14.2649 4.34683 16.2762C6.58818 18.4269 10.1129 19.4112 12.2043 18.4698C12.6904 18.251 13.2198 18.2332 13.6946 18.4199C13.9835 18.5334 14.2525 18.5377 14.3641 18.4306C14.4757 18.3236 14.4712 18.0654 14.3528 17.7883C14.1584 17.3325 14.1769 16.8246 14.4049 16.3581C14.8817 15.3826 14.9052 14.0556 14.4711 12.6215C14.0412 11.2016 13.1839 9.80115 12.1188 8.77915C10.0306 6.77532 7.01256 6.07761 4.77958 7.08266C4.29341 7.30153 3.76408 7.31929 3.28921 7.13262C3.13988 7.07392 2.99574 7.04441 2.87602 7.04441Z" fill="#7A889B"/>
<path id="Vector_3" d="M4.88354 9.41479H6.10479V10.5867H4.88354V9.41479Z" fill="#7A889B"/>
<path id="Vector_4" d="M6.10474 11.7585H7.32595V12.9304H6.10474V11.7585Z" fill="#7A889B"/>
<path id="Vector_5" d="M3.66223 11.7585H4.88344V12.9304H3.66223V11.7585Z" fill="#7A889B"/>
</g>
</svg>
