<svg width="16" height="16" viewBox="0 0 16 16" fill="none" xmlns="http://www.w3.org/2000/svg">
<g id="location_on">
<path id="Vector" d="M7.99996 1.44086C5.19996 1.44086 2.66663 3.58752 2.66663 6.90752C2.66663 9.02752 4.29996 11.5209 7.55996 14.3942C7.81329 14.6142 8.19329 14.6142 8.44663 14.3942C11.7 11.5209 13.3333 9.02752 13.3333 6.90752C13.3333 3.58752 10.8 1.44086 7.99996 1.44086ZM7.99996 8.10752C7.26663 8.10752 6.66663 7.50752 6.66663 6.77419C6.66663 6.04086 7.26663 5.44086 7.99996 5.44086C8.73329 5.44086 9.33329 6.04086 9.33329 6.77419C9.33329 7.50752 8.73329 8.10752 7.99996 8.10752Z" fill="#BEBFC9"/>
</g>
</svg>
