<svg width="134" height="36" viewBox="0 0 134 36" fill="none" xmlns="http://www.w3.org/2000/svg">
<g id="Layer_1" clip-path="url(#clip0_82_3882)">
<g id="Group">
<path id="Vector" d="M42.8816 15.1469H46.1809C46.2712 15.1469 46.3614 15.1969 46.4016 15.277L50.3929 22.485C50.4932 22.6552 50.7439 22.6552 50.8341 22.485L54.8254 15.277C54.8656 15.1969 54.9558 15.1469 55.0461 15.1469H58.3454C58.4858 15.1469 58.5961 15.257 58.5961 15.3971V29.7431C58.5961 29.8832 58.4858 29.9933 58.3454 29.9933H55.1464C55.006 29.9933 54.8956 29.8832 54.8956 29.7431V22.3749C54.8956 22.1146 54.5446 22.0245 54.4243 22.2547L50.8341 28.7319C50.7338 28.9021 50.4831 28.9021 50.3929 28.7319L46.8027 22.2547C46.6723 22.0245 46.3314 22.1146 46.3314 22.3749V29.7431C46.3314 29.8832 46.221 29.9933 46.0806 29.9933H42.8816C42.7412 29.9933 42.6309 29.8832 42.6309 29.7431V15.3971C42.6309 15.257 42.7412 15.1469 42.8816 15.1469Z" fill="#424B52"/>
<path id="Vector_2" d="M70.9813 27.841H65.4356C65.3353 27.841 65.235 27.901 65.2049 28.0011L64.4628 29.8432C64.4227 29.9433 64.3325 30.0034 64.2322 30.0034H60.6219C60.4414 30.0034 60.3211 29.8232 60.3813 29.653L66.0674 15.307C66.1075 15.2069 66.1978 15.1469 66.3081 15.1469H70.1189C70.2192 15.1469 70.3194 15.2069 70.3596 15.307L76.0457 29.653C76.1159 29.8232 75.9855 30.0034 75.805 30.0034H72.1948C72.0945 30.0034 71.9942 29.9433 71.9641 29.8432L71.222 28.0011C71.1819 27.901 71.0916 27.841 70.9913 27.841H70.9813ZM69.8682 24.5974L68.4441 20.9833C68.3639 20.7731 68.053 20.7731 67.9728 20.9833L66.5487 24.5974C66.4785 24.7675 66.6089 24.9477 66.7894 24.9477H69.6375C69.818 24.9477 69.9384 24.7675 69.8782 24.5974H69.8682Z" fill="#424B52"/>
<path id="Vector_3" d="M86.4351 29.9032L83.587 25.8487C83.3663 25.5384 83.0154 25.3582 82.6343 25.3582H81.6715C81.5311 25.3582 81.4208 25.4683 81.4208 25.6085V29.7531C81.4208 29.8932 81.3105 30.0034 81.1701 30.0034H77.971C77.8306 30.0034 77.7203 29.8932 77.7203 29.7531V15.4071C77.7203 15.267 77.8306 15.1569 77.971 15.1569H84.6299C87.8992 15.1569 90.286 17.2492 90.286 20.2625C90.286 22.3148 89.1728 23.9666 87.4078 24.7876C87.2674 24.8576 87.2072 25.0278 87.2975 25.158L90.4364 29.6129C90.5567 29.7831 90.4364 30.0134 90.2258 30.0134H86.6456C86.5654 30.0134 86.4852 29.9733 86.4351 29.9032ZM81.4208 21.7342C81.4208 21.8743 81.5311 21.9844 81.6715 21.9844H84.2789C85.5626 21.9844 86.4651 21.2937 86.4651 20.2525C86.4651 19.2114 85.5525 18.5206 84.2789 18.5206H81.6715C81.5311 18.5206 81.4208 18.6307 81.4208 18.7709V21.7242V21.7342Z" fill="#424B52"/>
<path id="Vector_4" d="M92.9235 15.1469H96.1225C96.2629 15.1469 96.3733 15.257 96.3733 15.3971V20.8031C96.3733 21.0334 96.6641 21.1435 96.8145 20.9733L101.819 15.237C101.869 15.1769 101.939 15.1469 102.009 15.1469H105.72C105.94 15.1469 106.051 15.4071 105.91 15.5673L100.766 21.3037C100.685 21.3938 100.675 21.5239 100.746 21.624L106.432 29.6029C106.552 29.7731 106.432 30.0034 106.221 30.0034H102.38C102.3 30.0034 102.22 29.9633 102.17 29.8932L98.2486 24.3771C98.1583 24.247 97.9678 24.2369 97.8575 24.3471L96.4234 25.8888C96.4234 25.8888 96.3532 25.9989 96.3532 26.059V29.7531C96.3532 29.8932 96.2429 30.0034 96.1025 30.0034H92.9034C92.763 30.0034 92.6527 29.8932 92.6527 29.7531V15.4071C92.6527 15.267 92.763 15.1569 92.9034 15.1569L92.9235 15.1469Z" fill="#424B52"/>
<path id="Vector_5" d="M111.767 19.6218C111.767 20.2625 112.288 20.7831 112.93 20.7831H118.797C118.937 20.7831 119.048 20.8932 119.048 21.0334V23.8365C119.048 23.9767 118.937 24.0868 118.797 24.0868H112.028C111.887 24.0868 111.777 24.1969 111.777 24.3371V26.4494C111.777 26.5896 111.887 26.6997 112.028 26.6997H119.539C119.679 26.6997 119.79 26.8098 119.79 26.95V29.7531C119.79 29.8932 119.679 30.0034 119.539 30.0034H108.327C108.187 30.0034 108.076 29.8932 108.076 29.7531V15.4071C108.076 15.267 108.187 15.1569 108.327 15.1569H119.539C119.679 15.1569 119.79 15.267 119.79 15.4071V18.2103C119.79 18.3504 119.679 18.4605 119.539 18.4605H112.94C112.298 18.4605 111.777 18.9811 111.777 19.6218H111.767Z" fill="#424B52"/>
<path id="Vector_6" d="M125.536 18.4605H121.515C121.374 18.4605 121.264 18.3504 121.264 18.2103V15.4071C121.264 15.267 121.374 15.1569 121.515 15.1569H133.739C133.88 15.1569 133.99 15.267 133.99 15.4071V18.2103C133.99 18.3504 133.88 18.4605 133.739 18.4605H129.738C129.598 18.4605 129.487 18.5707 129.487 18.7108V29.7531C129.487 29.8932 129.377 30.0034 129.237 30.0034H126.037C125.897 30.0034 125.787 29.8932 125.787 29.7531V18.7108C125.787 18.5707 125.676 18.4605 125.536 18.4605Z" fill="#424B52"/>
</g>
<path id="Vector_7" d="M30.9664 0H5.03356C2.25503 0 0 2.25503 0 5.03356V17.8792C0 27.8859 8.11409 36 18.1208 36C23.0638 36 27.5336 33.9966 30.7651 30.7651C33.9966 27.5336 36 23.0638 36 18.1208V5.03356C36 2.25503 33.755 0 30.9664 0ZM30.1409 23.8389C26.9698 28.4295 22.6611 30.9564 18 30.9564C13.3389 30.9564 9.04027 28.4295 5.85906 23.8389C5.07383 22.6913 5.36577 21.1208 6.50336 20.3356C7.65101 19.5403 9.22148 19.8322 10.0067 20.9698C12.2114 24.1711 15.0503 25.9228 18 25.9228C20.9497 25.9228 23.7886 24.1711 25.9933 20.9698C26.7886 19.8322 28.3591 19.5403 29.4966 20.3356C30.6443 21.1208 30.9262 22.6913 30.1409 23.8389Z" fill="#2CB26D"/>
<g id="Group_2">
<path id="Vector_8" d="M63.0686 0.150024H60.9526C60.8623 0.150024 60.7721 0.20008 60.732 0.280169L58.1145 5.01543C58.0143 5.18562 57.7736 5.18562 57.6733 5.01543L55.0458 0.280169C55.0057 0.20008 54.9155 0.150024 54.8252 0.150024H52.7092C52.5688 0.150024 52.4585 0.260147 52.4585 0.400302V10.001C52.4585 10.1411 52.5688 10.2512 52.7092 10.2512H54.7249C54.8653 10.2512 54.9756 10.1411 54.9756 10.001V5.36582C54.9756 5.10553 55.3166 5.01543 55.447 5.24569L57.6833 9.27016C57.7836 9.44035 58.0243 9.44035 58.1246 9.27016L60.3408 5.2557C60.4712 5.02544 60.8122 5.11554 60.8122 5.37583V10.001C60.8122 10.1411 60.9225 10.2512 61.0629 10.2512H63.0786C63.219 10.2512 63.3293 10.1411 63.3293 10.001V0.410314C63.3293 0.270158 63.219 0.160036 63.0786 0.160036L63.0686 0.150024Z" fill="#7A889B"/>
<path id="Vector_9" d="M71.302 0.310202C71.2618 0.210091 71.1716 0.150024 71.0713 0.150024H68.5943C68.494 0.150024 68.3937 0.210091 68.3636 0.310202L64.5628 9.91087C64.4927 10.071 64.623 10.2512 64.7935 10.2512H67.08C67.1803 10.2512 67.2705 10.1912 67.3106 10.0911L67.772 8.92978C67.8121 8.82967 67.9023 8.7696 68.0026 8.7696H71.663C71.7633 8.7696 71.8535 8.82967 71.8936 8.92978L72.355 10.0911C72.3951 10.1912 72.4853 10.2512 72.5856 10.2512H74.8821C75.0626 10.2512 75.183 10.071 75.1128 9.91087L71.2919 0.310202H71.302ZM70.6802 6.80742H68.9854C68.8049 6.80742 68.6845 6.62722 68.7547 6.46704L69.5971 4.30464C69.6774 4.09441 69.9782 4.09441 70.0685 4.30464L70.9209 6.46704C70.9811 6.62722 70.8607 6.80742 70.6902 6.80742H70.6802Z" fill="#7A889B"/>
<path id="Vector_10" d="M82.8547 7.02767C82.7645 6.89752 82.8146 6.72733 82.955 6.65725C84.1083 6.08662 84.8303 4.99541 84.8303 3.62388C84.8303 1.58162 83.2158 0.150024 80.9794 0.150024H76.5469C76.4065 0.150024 76.2961 0.260147 76.2961 0.400302V10.001C76.2961 10.1411 76.4065 10.2512 76.5469 10.2512H78.5626C78.703 10.2512 78.8133 10.1411 78.8133 10.001V7.34802C78.8133 7.20787 78.9236 7.09774 79.064 7.09774H79.9064C79.9866 7.09774 80.0668 7.13779 80.1069 7.20787L82.1929 10.1511C82.243 10.2212 82.3132 10.2613 82.3934 10.2613H84.6398C84.8404 10.2613 84.9607 10.031 84.8404 9.86081L82.8447 7.02767H82.8547ZM80.7488 4.8052H79.064C78.9236 4.8052 78.8133 4.69507 78.8133 4.55492V2.71287C78.8133 2.57272 78.9236 2.46259 79.064 2.46259H80.7488C81.6212 2.46259 82.243 2.93312 82.243 3.6339C82.243 4.33467 81.6212 4.8052 80.7488 4.8052Z" fill="#7A889B"/>
<path id="Vector_11" d="M94.2771 0.150024H86.124C85.9836 0.150024 85.8733 0.260147 85.8733 0.400302V2.14224C85.8733 2.28239 85.9836 2.39252 86.124 2.39252H88.7113C88.8517 2.39252 88.9621 2.50264 88.9621 2.64279V9.99096C88.9621 10.1311 89.0724 10.2412 89.2128 10.2412H91.2185C91.3588 10.2412 91.4692 10.1311 91.4692 9.99096V2.65281C91.4692 2.51265 91.5795 2.40253 91.7199 2.40253H94.2771C94.4175 2.40253 94.5278 2.2924 94.5278 2.15225V0.410314C94.5278 0.270158 94.4175 0.160036 94.2771 0.160036V0.150024Z" fill="#7A889B"/>
<path id="Vector_12" d="M47.2738 4.11457C45.7595 3.79422 45.2882 3.58398 45.2882 2.9733C45.2882 2.47275 45.7394 2.09232 46.5518 2.09232C47.4944 2.09232 48.4973 2.46274 49.4399 3.17353L50.1219 3.68409C50.182 3.75417 50.2623 3.7842 50.3626 3.7842C50.5531 3.7842 50.7035 3.63404 50.7035 3.44383V1.63181C50.7035 1.47164 50.6333 1.31146 50.513 1.22136C49.47 0.430478 48.2064 0 46.6119 0C44.4658 0 42.9515 1.13126 42.771 2.8832C42.751 3.00334 42.751 3.12347 42.751 3.2436C42.751 3.36374 42.751 3.49388 42.771 3.61402C42.9515 5.32592 44.4859 5.87653 46.5116 6.32703C47.9959 6.68743 48.4572 6.81757 48.4572 7.41824C48.4572 7.96885 47.9758 8.34928 47.0231 8.34928C45.9902 8.34928 45.0575 8.02892 44.2051 7.43826L43.6936 7.06785L43.0418 6.58732C43.0418 6.58732 42.9716 6.53726 42.9215 6.53726C42.8312 6.53726 42.751 6.61735 42.751 6.70745V8.87987C42.751 9.05006 42.8212 9.21023 42.9716 9.31034C44.0948 10.0612 45.4587 10.4616 46.9328 10.4616C49.4199 10.4616 50.9743 9.1802 50.9743 7.15795C50.9743 6.67742 50.8941 6.27697 50.6935 5.92658C50.172 4.94549 48.9486 4.49499 47.2537 4.13459L47.2738 4.11457Z" fill="#7A889B"/>
</g>
</g>
<defs>
<clipPath id="clip0_82_3882">
<rect width="134" height="36" fill="white"/>
</clipPath>
</defs>
</svg>
