<svg width="16" height="16" viewBox="0 0 16 16" fill="none" xmlns="http://www.w3.org/2000/svg">
<g id="mic">
<g id="Vector">
<path d="M8.00004 9.66669C9.10671 9.66669 10 8.77335 10 7.66669V3.66669C10 2.56002 9.10671 1.66669 8.00004 1.66669C6.89337 1.66669 6.00004 2.56002 6.00004 3.66669V7.66669C6.00004 8.77335 6.89337 9.66669 8.00004 9.66669Z" fill="#2CB26D"/>
<path d="M11.3334 7.66669C11.3334 9.50669 9.84004 11 8.00004 11C6.16004 11 4.66671 9.50669 4.66671 7.66669H3.33337C3.33337 10.02 5.07337 11.9534 7.33337 12.28V14.3334H8.66671V12.28C10.9267 11.9534 12.6667 10.02 12.6667 7.66669H11.3334Z" fill="#2CB26D"/>
</g>
</g>
</svg>
