<svg width="155" height="20" viewBox="0 0 155 20" fill="none" xmlns="http://www.w3.org/2000/svg">
<g id="Oilakredit.uz">
<path d="M17.8457 10.2214C17.8457 12.2404 17.4764 13.9761 16.7378 15.4288C15.9991 16.8753 14.9866 17.9894 13.7001 18.7711C12.4198 19.5467 10.9641 19.9345 9.33293 19.9345C7.69562 19.9345 6.23374 19.5467 4.94728 18.7711C3.66697 17.9894 2.6575 16.8722 1.91887 15.4196C1.18023 13.9669 0.810913 12.2342 0.810913 10.2214C0.810913 8.20247 1.18023 6.46976 1.91887 5.02326C2.6575 3.57061 3.66697 2.4565 4.94728 1.68093C6.23374 0.899207 7.69562 0.508345 9.33293 0.508345C10.9641 0.508345 12.4198 0.899207 13.7001 1.68093C14.9866 2.4565 15.9991 3.57061 16.7378 5.02326C17.4764 6.46976 17.8457 8.20247 17.8457 10.2214ZM15.0204 10.2214C15.0204 8.68259 14.7711 7.3869 14.2726 6.33434C13.7801 5.27563 13.1031 4.47544 12.2413 3.93377C11.3857 3.38595 10.4163 3.11204 9.33293 3.11204C8.24344 3.11204 7.2709 3.38595 6.41532 3.93377C5.55973 4.47544 4.88265 5.27563 4.38407 6.33434C3.89164 7.3869 3.64543 8.68259 3.64543 10.2214C3.64543 11.7602 3.89164 13.059 4.38407 14.1177C4.88265 15.1703 5.55973 15.9705 6.41532 16.5183C7.2709 17.06 8.24344 17.3308 9.33293 17.3308C10.4163 17.3308 11.3857 17.06 12.2413 16.5183C13.1031 15.9705 13.7801 15.1703 14.2726 14.1177C14.7711 13.059 15.0204 11.7602 15.0204 10.2214Z" fill="#48545D"/>
<path d="M21.1811 19.676V5.49414H23.9418V19.676H21.1811ZM22.5753 3.30593C22.0952 3.30593 21.6828 3.14589 21.3381 2.82582C20.9995 2.49959 20.8303 2.1118 20.8303 1.66246C20.8303 1.20697 20.9995 0.819188 21.3381 0.499112C21.6828 0.172881 22.0952 0.00976562 22.5753 0.00976562C23.0554 0.00976562 23.4647 0.172881 23.8033 0.499112C24.148 0.819188 24.3203 1.20697 24.3203 1.66246C24.3203 2.1118 24.148 2.49959 23.8033 2.82582C23.4647 3.14589 23.0554 3.30593 22.5753 3.30593Z" fill="#48545D"/>
<path d="M30.4164 0.766868V19.676H27.6557V0.766868H30.4164Z" fill="#48545D"/>
<path d="M38.2575 19.9899C37.3588 19.9899 36.5463 19.8237 35.82 19.4913C35.0936 19.1528 34.5181 18.6634 34.0934 18.0233C33.6748 17.3831 33.4656 16.5983 33.4656 15.6689C33.4656 14.8687 33.6194 14.21 33.9272 13.693C34.235 13.176 34.6505 12.7666 35.1737 12.465C35.6969 12.1634 36.2816 11.9357 36.9279 11.7818C37.5742 11.6279 38.2328 11.5109 38.9038 11.4309C39.7532 11.3324 40.4426 11.2524 40.972 11.1909C41.5013 11.1232 41.886 11.0154 42.1261 10.8677C42.3661 10.72 42.4862 10.4799 42.4862 10.1475V10.0829C42.4862 9.27657 42.2584 8.65181 41.8029 8.20863C41.3536 7.76545 40.6827 7.54386 39.7901 7.54386C38.8607 7.54386 38.1282 7.75006 37.5927 8.16247C37.0633 8.56872 36.6971 9.02113 36.494 9.51971L33.8995 8.9288C34.2073 8.06706 34.6566 7.37151 35.2475 6.84215C35.8446 6.30664 36.5309 5.91886 37.3065 5.6788C38.082 5.43259 38.8976 5.30948 39.7532 5.30948C40.3195 5.30948 40.9196 5.37719 41.5536 5.51261C42.1938 5.64187 42.7908 5.88192 43.3448 6.23278C43.905 6.58363 44.3635 7.08529 44.7205 7.73775C45.0775 8.38406 45.256 9.22425 45.256 10.2583V19.676H42.56V17.737H42.4492C42.2707 18.094 42.003 18.4449 41.646 18.7896C41.289 19.1343 40.8304 19.4205 40.2703 19.6483C39.7101 19.876 39.0392 19.9899 38.2575 19.9899ZM38.8576 17.774C39.6209 17.774 40.2733 17.6232 40.815 17.3216C41.3628 17.0199 41.7783 16.626 42.0614 16.1397C42.3507 15.6473 42.4954 15.121 42.4954 14.5609V12.7328C42.3969 12.8313 42.2061 12.9236 41.923 13.0098C41.646 13.0898 41.329 13.1606 40.972 13.2221C40.6149 13.2775 40.2672 13.3298 39.9286 13.3791C39.5901 13.4222 39.3069 13.4591 39.0792 13.4899C38.5437 13.5576 38.0543 13.6715 37.6112 13.8315C37.1741 13.9915 36.8233 14.2224 36.5586 14.524C36.3001 14.8194 36.1708 15.2134 36.1708 15.7058C36.1708 16.389 36.4232 16.9061 36.9279 17.2569C37.4327 17.6016 38.0759 17.774 38.8576 17.774Z" fill="#48545D"/>
<path d="M51.4721 14.8656L51.4537 11.4956H51.9338L57.5844 5.49414H60.8897L54.4451 12.3265H54.0112L51.4721 14.8656ZM48.9331 19.676V0.766868H51.6937V19.676H48.9331ZM57.889 19.676L52.8109 12.9359L54.7129 11.0062L61.2775 19.676H57.889Z" fill="#48545D"/>
<path d="M63.4057 19.676V5.49414H66.0741V7.74698H66.2218C66.4803 6.98372 66.9358 6.38358 67.5883 5.94656C68.2469 5.50337 68.9917 5.28178 69.8226 5.28178C69.995 5.28178 70.1981 5.28794 70.432 5.30025C70.6721 5.31256 70.8598 5.32795 70.9952 5.34641V7.98704C70.8844 7.95626 70.6874 7.92241 70.4043 7.88548C70.1212 7.84239 69.838 7.82085 69.5549 7.82085C68.9024 7.82085 68.3207 7.95934 67.8099 8.23633C67.3051 8.50716 66.905 8.88571 66.6096 9.37198C66.3141 9.85209 66.1664 10.3999 66.1664 11.0154V19.676H63.4057Z" fill="#48545D"/>
<path d="M78.9886 19.9622C77.5914 19.9622 76.388 19.6636 75.3786 19.0666C74.3752 18.4634 73.5997 17.617 73.0519 16.5275C72.5102 15.4319 72.2394 14.1485 72.2394 12.6774C72.2394 11.2247 72.5102 9.94442 73.0519 8.83647C73.5997 7.72852 74.3629 6.8637 75.3416 6.24201C76.3265 5.62032 77.4775 5.30948 78.7948 5.30948C79.5949 5.30948 80.3705 5.44182 81.1215 5.7065C81.8724 5.97118 82.5464 6.38666 83.1435 6.95295C83.7405 7.51924 84.2114 8.25479 84.5561 9.15962C84.9008 10.0583 85.0732 11.1509 85.0732 12.4373V13.416H73.7997V11.3478H82.3679C82.3679 10.6215 82.2202 9.97828 81.9247 9.41815C81.6293 8.85186 81.2138 8.4056 80.6783 8.07937C80.1489 7.75314 79.5272 7.59002 78.8132 7.59002C78.0377 7.59002 77.3606 7.78084 76.782 8.16247C76.2095 8.53794 75.7663 9.03036 75.4524 9.63974C75.1447 10.243 74.9908 10.8985 74.9908 11.6064V13.2221C74.9908 14.17 75.157 14.9764 75.4894 15.6412C75.8279 16.3059 76.2988 16.8137 76.902 17.1646C77.5052 17.5093 78.21 17.6816 79.0163 17.6816C79.5395 17.6816 80.0166 17.6078 80.4474 17.46C80.8783 17.3062 81.2507 17.0784 81.5646 16.7768C81.8786 16.4752 82.1186 16.1028 82.2848 15.6596L84.8977 16.1305C84.6885 16.8999 84.313 17.5739 83.7713 18.1525C83.2358 18.725 82.5618 19.1712 81.7493 19.4913C80.943 19.8052 80.0227 19.9622 78.9886 19.9622Z" fill="#48545D"/>
<path d="M93.4451 19.9529C92.3003 19.9529 91.2785 19.6606 90.3798 19.0758C89.4873 18.4849 88.7856 17.6447 88.2747 16.5552C87.77 15.4596 87.5176 14.1454 87.5176 12.6127C87.5176 11.0801 87.773 9.769 88.2839 8.67951C88.801 7.59002 89.5088 6.75598 90.4075 6.17738C91.3062 5.59878 92.3249 5.30948 93.4636 5.30948C94.3438 5.30948 95.0517 5.45721 95.5872 5.75266C96.1289 6.04196 96.5474 6.3805 96.8429 6.76829C97.1445 7.15607 97.3784 7.49769 97.5446 7.79315H97.7108V0.766868H100.471V19.676H97.7754V17.4693H97.5446C97.3784 17.7709 97.1383 18.1156 96.8244 18.5034C96.5166 18.8912 96.0919 19.2297 95.5503 19.519C95.0086 19.8083 94.3069 19.9529 93.4451 19.9529ZM94.0545 17.5985C94.8485 17.5985 95.5195 17.3893 96.0673 16.9707C96.6213 16.546 97.0398 15.9582 97.323 15.2072C97.6123 14.4563 97.7569 13.5822 97.7569 12.585C97.7569 11.6002 97.6154 10.7385 97.3322 9.99982C97.0491 9.26119 96.6336 8.68567 96.0858 8.27326C95.5379 7.86085 94.8609 7.65465 94.0545 7.65465C93.2235 7.65465 92.5311 7.87009 91.9771 8.30096C91.4231 8.73183 91.0046 9.31966 90.7214 10.0645C90.4444 10.8092 90.3059 11.6494 90.3059 12.585C90.3059 13.533 90.4475 14.3855 90.7307 15.1426C91.0138 15.8997 91.4324 16.4998 91.9863 16.943C92.5465 17.38 93.2359 17.5985 94.0545 17.5985Z" fill="#48545D"/>
<path d="M104.412 19.676V5.49414H107.172V19.676H104.412ZM105.806 3.30593C105.326 3.30593 104.913 3.14589 104.569 2.82582C104.23 2.49959 104.061 2.1118 104.061 1.66246C104.061 1.20697 104.23 0.819188 104.569 0.499112C104.913 0.172881 105.326 0.00976562 105.806 0.00976562C106.286 0.00976562 106.695 0.172881 107.034 0.499112C107.378 0.819188 107.551 1.20697 107.551 1.66246C107.551 2.1118 107.378 2.49959 107.034 2.82582C106.695 3.14589 106.286 3.30593 105.806 3.30593Z" fill="#48545D"/>
<path d="M117.506 5.49414V7.71005H109.76V5.49414H117.506ZM111.837 2.09641H114.598V15.5119C114.598 16.0474 114.678 16.4506 114.838 16.7214C114.998 16.9861 115.204 17.1677 115.457 17.2662C115.715 17.3585 115.995 17.4047 116.297 17.4047C116.518 17.4047 116.712 17.3893 116.878 17.3585C117.045 17.3277 117.174 17.3031 117.266 17.2846L117.765 19.5652C117.605 19.6267 117.377 19.6883 117.082 19.7498C116.786 19.8175 116.417 19.8545 115.974 19.8606C115.247 19.8729 114.57 19.7437 113.942 19.4728C113.314 19.202 112.807 18.7834 112.419 18.2172C112.031 17.6509 111.837 16.9399 111.837 16.0843V2.09641Z" fill="#48545D"/>
<path d="M122.379 19.8514C121.874 19.8514 121.44 19.6729 121.077 19.3159C120.714 18.9527 120.532 18.5157 120.532 18.0048C120.532 17.5001 120.714 17.0692 121.077 16.7122C121.44 16.349 121.874 16.1674 122.379 16.1674C122.884 16.1674 123.318 16.349 123.681 16.7122C124.044 17.0692 124.226 17.5001 124.226 18.0048C124.226 18.3433 124.139 18.6542 123.967 18.9373C123.801 19.2143 123.579 19.4359 123.302 19.6021C123.025 19.7683 122.717 19.8514 122.379 19.8514Z" fill="#48545D"/>
<path d="M136.907 13.7946V5.49414H139.677V19.676H136.962V17.22H136.815C136.488 17.9771 135.965 18.608 135.245 19.1127C134.531 19.6113 133.642 19.8606 132.577 19.8606C131.666 19.8606 130.859 19.6606 130.158 19.2605C129.462 18.8542 128.914 18.2541 128.514 17.46C128.12 16.666 127.923 15.6842 127.923 14.5147V5.49414H130.684V14.1824C130.684 15.1487 130.952 15.9181 131.487 16.4906C132.023 17.063 132.718 17.3493 133.574 17.3493C134.091 17.3493 134.605 17.22 135.116 16.9615C135.633 16.7029 136.061 16.3121 136.399 15.7889C136.744 15.2657 136.913 14.6009 136.907 13.7946Z" fill="#48545D"/>
<path d="M143.091 19.676V17.7832L150.773 8.02397V7.89471H143.34V5.49414H154.216V7.50692L146.83 17.1461V17.2754H154.475V19.676H143.091Z" fill="#48545D"/>
</g>
</svg>
