<svg width="27" height="26" viewBox="0 0 27 26" fill="none" xmlns="http://www.w3.org/2000/svg">
<g id="Black text 1" clip-path="url(#clip0_126_5496)">
<path id="Vector" d="M2.64901 2.86147C16.4867 -6.01971 26.1252 7.77817 16.8146 16.9602C10.2825 23.4166 -2.94574 23.7388 1.37538 15.2611C1.35436 17.3107 2.40101 18.0044 3.44767 18.4893C6.17989 19.7318 11.2618 17.2576 13.7167 13.6152C18.1513 7.02417 11.9386 0.893377 2.64901 2.86147Z" fill="#00C695"/>
<path id="Vector_2" d="M1.37955 15.2608C1.35853 17.3103 2.40518 18.0041 3.45184 18.4891C6.18407 19.7315 11.266 17.2572 13.7208 13.6148C18.1512 7.02388 11.9385 0.893065 2.64898 2.86116C2.64898 2.86116 7.55018 0.684217 12.6615 2.14967C17.7771 3.61512 19.5888 10.1247 14.6035 15.9227C9.60984 21.7243 0.206796 22.1739 1.37955 15.2608Z" fill="#00C695"/>
<path id="Vector_3" d="M0.568359 22.2168C5.86467 26.8397 25.5619 20.6452 23.0105 8.13574C23.0105 8.13574 26.6296 12.3799 26.5035 19.877C26.5035 19.877 25.7889 18.9602 24.7422 17.962C24.7422 17.962 22.628 22.2416 15.4107 24.7512C8.20178 27.2609 2.32119 24.7548 0.568359 22.2168Z" fill="#00C695"/>
<path id="Vector_4" d="M0.568359 22.2168C5.86467 26.8397 25.5619 20.6452 23.0105 8.13574C23.0105 8.13574 26.6296 12.3799 26.5035 19.877C25.894 16.9568 25.5746 14.7515 24.2084 12.7941C23.6494 22.3725 7.4872 28.5104 0.568359 22.2168Z" fill="#00C695"/>
<path id="Vector_5" d="M5.39393 9.16598C6.8357 8.34835 9.00046 8.943 10.2405 10.4863C11.4805 12.0332 11.3081 13.9553 9.86634 14.7764C8.4246 15.5941 6.24722 14.9995 5.01982 13.4561C3.78402 11.8987 3.94375 9.98368 5.39393 9.16598Z" fill="#00C695"/>
<path id="Vector_6" d="M10.3162 13.0488C8.87442 13.8665 6.70967 13.2718 5.46966 11.7285C4.97786 11.1161 4.71304 10.4507 4.6584 9.81348C3.94381 10.7657 4.04049 12.2241 5.0199 13.4559C6.24729 15.0027 8.42467 15.5939 9.8664 14.7762C10.7407 14.2806 11.1484 13.3816 11.0518 12.4116C10.8711 12.663 10.6272 12.8789 10.3162 13.0488Z" fill="#00C695"/>
</g>
<defs>
<clipPath id="clip0_126_5496">
<rect width="26" height="26" fill="white" transform="translate(0.525146)"/>
</clipPath>
</defs>
</svg>
