<svg width="22" height="22" viewBox="0 0 22 22" fill="none" xmlns="http://www.w3.org/2000/svg">
<g id="Vector">
<mask id="path-1-outside-1_82_3234" maskUnits="userSpaceOnUse" x="0" y="0" width="22" height="22" fill="black">
<rect fill="white" width="22" height="22"/>
<path d="M19.451 14.9635C19.11 12.3635 16.9295 10.3523 14.2993 10.3523H9.83328C9.90728 10.1783 9.97462 10.0002 10.0333 9.81778C10.1106 9.5791 10.1494 9.3298 10.1494 9.07672C10.1494 8.88497 10.1271 8.69284 10.0833 8.50279C10.6189 8.13967 11.1661 7.67662 11.6823 7.14846C12.4697 6.34175 13.1041 5.46608 13.4682 4.68268C14.0133 3.5099 13.7893 2.91739 13.5058 2.62662C13.2218 2.33628 12.6428 2.10647 11.4976 2.6647C11.379 2.72226 11.2579 2.78743 11.1356 2.85855C11.1294 1.88426 10.8492 1.25579 10.3181 1.05814C9.18648 0.638717 7.83831 2.5551 7.0911 4.66577C6.88528 5.24687 6.72655 5.8381 6.6249 6.39553C4.31418 6.68121 2.42543 8.21669 1.69762 10.4708C1.62031 10.7095 1.58148 10.9588 1.58148 11.2119C1.58148 12.2886 2.2659 13.2916 3.2359 13.7212C2.99578 14.3413 2.87426 14.9969 2.87426 15.6761C2.87426 16.4836 3.05074 17.27 3.3884 17.9866H2.47133C1.66004 17.9866 1 18.6625 1 19.4933C1 20.3236 1.66004 20.9995 2.47133 20.9995L14.2993 21C15.6876 21 16.9928 20.4464 17.9756 19.4408C18.2446 19.1649 18.4802 18.8644 18.6806 18.5439C18.8492 18.5964 19.0253 18.6248 19.2034 18.6248C20.1941 18.6248 21 17.7995 21 16.7854C21 15.8569 20.3247 15.0874 19.451 14.9635ZM7.86807 4.95441C8.67441 2.67702 9.75269 1.74885 10.0358 1.85382C10.1672 1.9025 10.3871 2.35364 10.2804 3.43374C9.87997 3.73975 9.477 4.09777 9.09017 4.49394C8.50083 5.09707 8.00069 5.73446 7.62959 6.35192C7.5899 6.34942 7.48824 6.34684 7.47666 6.34684C7.57007 5.89527 7.70234 5.42209 7.86807 4.95441ZM18.1309 17.8355C17.9342 18.2003 17.6862 18.5393 17.3908 18.8423C16.5646 19.6879 15.4669 20.1535 14.2993 20.1535H9.75641V20.1531C9.40097 20.1531 9.11169 19.8572 9.11169 19.4932C9.11169 19.1288 9.40097 18.833 9.75641 18.833H11.627C11.8551 18.833 12.0402 18.6434 12.0402 18.4098V17.6928C12.0402 16.5116 12.9784 15.5508 14.1319 15.5508H14.6783C14.9064 15.5508 15.0916 15.3612 15.0916 15.1276C15.0916 14.8936 14.9064 14.7044 14.6783 14.7044H14.1319C12.5226 14.7044 11.2137 16.0448 11.2137 17.6928V17.9866H9.75641C8.9451 17.9866 8.28507 18.6625 8.28507 19.4933C8.28507 19.7299 8.33879 19.9537 8.43431 20.1531H2.47133C2.1159 20.1531 1.8266 19.8573 1.8266 19.4933C1.8266 19.1288 2.1159 18.833 2.47133 18.833H4.10094C4.18027 18.833 4.26047 18.8098 4.33156 18.7607C4.52086 18.6303 4.57086 18.3671 4.44356 18.1733C3.95754 17.4347 3.70086 16.5709 3.70086 15.6762C3.70086 14.966 3.85832 14.2867 4.1691 13.6578C4.27242 13.4495 4.19059 13.1947 3.98727 13.089C3.95543 13.0729 3.92277 13.0614 3.88973 13.0538C3.47438 12.9595 3.10406 12.7102 2.8375 12.3788C2.57094 12.0474 2.40809 11.6339 2.40809 11.2119C2.40809 11.0494 2.43289 10.889 2.48246 10.7362C2.82465 9.67685 3.46691 8.78465 4.3398 8.15616C5.21559 7.52644 6.27772 7.19334 7.41224 7.19334C7.44155 7.19334 7.68334 7.20432 7.77552 7.22124C7.95324 7.25341 8.12435 7.16414 8.20783 7.01177L8.20824 7.01219C8.54797 6.39515 9.06872 5.7133 9.67462 5.09241C10.0763 4.68106 10.4933 4.31622 10.9017 4.01613C10.9103 4.01021 10.9186 4.00429 10.9265 3.99793C11.2447 3.76556 11.5576 3.57299 11.8531 3.4291C12.4829 3.12224 12.8371 3.13876 12.921 3.22509C13.0053 3.31141 13.0219 3.67371 12.7218 4.31915C12.397 5.01744 11.8204 5.80978 11.098 6.54957C10.5607 7.09977 9.99076 7.57125 9.44562 7.91622L9.44934 7.92257C9.28441 7.98688 9.18317 8.14772 9.18317 8.31832C9.18317 8.36825 9.19183 8.41903 9.21003 8.46857C9.28483 8.66999 9.32286 8.87441 9.32286 9.07675C9.32286 9.23929 9.29766 9.39968 9.24848 9.55244C9.13359 9.90884 8.984 10.2478 8.80379 10.561C8.68803 10.7625 8.75379 11.0219 8.95052 11.1404C9.01621 11.1802 9.08855 11.1988 9.15966 11.1988H14.2993C16.7101 11.1988 18.6711 13.2075 18.6711 15.6762C18.6711 16.7237 18.1371 17.8219 18.1309 17.8355ZM19.2034 17.7784C19.1626 17.7784 19.1216 17.7754 19.0811 17.7703C19.334 17.1651 19.4754 16.5125 19.4952 15.8378C19.8878 15.9652 20.1734 16.3415 20.1734 16.7854C20.1734 17.3331 19.7382 17.7784 19.2034 17.7784Z"/>
<path d="M4.99649 10.2128C5.27314 10.2128 5.49738 9.9831 5.49738 9.69983C5.49738 9.41652 5.27314 9.18688 4.99649 9.18688C4.71986 9.18688 4.49559 9.41652 4.49559 9.69983C4.49559 9.9831 4.71986 10.2128 4.99649 10.2128Z"/>
<path d="M14.2991 11.8337C14.0709 11.8337 13.8858 12.0232 13.8858 12.2569C13.8858 12.4906 14.0709 12.6801 14.2991 12.6801C15.9123 12.6801 17.2247 14.0241 17.2247 15.676C17.2247 15.9097 17.4098 16.0993 17.638 16.0993C17.8662 16.0993 18.0512 15.9097 18.0512 15.676C18.0512 13.5573 16.3681 11.8337 14.2991 11.8337Z"/>
</mask>
<path d="M19.451 14.9635C19.11 12.3635 16.9295 10.3523 14.2993 10.3523H9.83328C9.90728 10.1783 9.97462 10.0002 10.0333 9.81778C10.1106 9.5791 10.1494 9.3298 10.1494 9.07672C10.1494 8.88497 10.1271 8.69284 10.0833 8.50279C10.6189 8.13967 11.1661 7.67662 11.6823 7.14846C12.4697 6.34175 13.1041 5.46608 13.4682 4.68268C14.0133 3.5099 13.7893 2.91739 13.5058 2.62662C13.2218 2.33628 12.6428 2.10647 11.4976 2.6647C11.379 2.72226 11.2579 2.78743 11.1356 2.85855C11.1294 1.88426 10.8492 1.25579 10.3181 1.05814C9.18648 0.638717 7.83831 2.5551 7.0911 4.66577C6.88528 5.24687 6.72655 5.8381 6.6249 6.39553C4.31418 6.68121 2.42543 8.21669 1.69762 10.4708C1.62031 10.7095 1.58148 10.9588 1.58148 11.2119C1.58148 12.2886 2.2659 13.2916 3.2359 13.7212C2.99578 14.3413 2.87426 14.9969 2.87426 15.6761C2.87426 16.4836 3.05074 17.27 3.3884 17.9866H2.47133C1.66004 17.9866 1 18.6625 1 19.4933C1 20.3236 1.66004 20.9995 2.47133 20.9995L14.2993 21C15.6876 21 16.9928 20.4464 17.9756 19.4408C18.2446 19.1649 18.4802 18.8644 18.6806 18.5439C18.8492 18.5964 19.0253 18.6248 19.2034 18.6248C20.1941 18.6248 21 17.7995 21 16.7854C21 15.8569 20.3247 15.0874 19.451 14.9635ZM7.86807 4.95441C8.67441 2.67702 9.75269 1.74885 10.0358 1.85382C10.1672 1.9025 10.3871 2.35364 10.2804 3.43374C9.87997 3.73975 9.477 4.09777 9.09017 4.49394C8.50083 5.09707 8.00069 5.73446 7.62959 6.35192C7.5899 6.34942 7.48824 6.34684 7.47666 6.34684C7.57007 5.89527 7.70234 5.42209 7.86807 4.95441ZM18.1309 17.8355C17.9342 18.2003 17.6862 18.5393 17.3908 18.8423C16.5646 19.6879 15.4669 20.1535 14.2993 20.1535H9.75641V20.1531C9.40097 20.1531 9.11169 19.8572 9.11169 19.4932C9.11169 19.1288 9.40097 18.833 9.75641 18.833H11.627C11.8551 18.833 12.0402 18.6434 12.0402 18.4098V17.6928C12.0402 16.5116 12.9784 15.5508 14.1319 15.5508H14.6783C14.9064 15.5508 15.0916 15.3612 15.0916 15.1276C15.0916 14.8936 14.9064 14.7044 14.6783 14.7044H14.1319C12.5226 14.7044 11.2137 16.0448 11.2137 17.6928V17.9866H9.75641C8.9451 17.9866 8.28507 18.6625 8.28507 19.4933C8.28507 19.7299 8.33879 19.9537 8.43431 20.1531H2.47133C2.1159 20.1531 1.8266 19.8573 1.8266 19.4933C1.8266 19.1288 2.1159 18.833 2.47133 18.833H4.10094C4.18027 18.833 4.26047 18.8098 4.33156 18.7607C4.52086 18.6303 4.57086 18.3671 4.44356 18.1733C3.95754 17.4347 3.70086 16.5709 3.70086 15.6762C3.70086 14.966 3.85832 14.2867 4.1691 13.6578C4.27242 13.4495 4.19059 13.1947 3.98727 13.089C3.95543 13.0729 3.92277 13.0614 3.88973 13.0538C3.47438 12.9595 3.10406 12.7102 2.8375 12.3788C2.57094 12.0474 2.40809 11.6339 2.40809 11.2119C2.40809 11.0494 2.43289 10.889 2.48246 10.7362C2.82465 9.67685 3.46691 8.78465 4.3398 8.15616C5.21559 7.52644 6.27772 7.19334 7.41224 7.19334C7.44155 7.19334 7.68334 7.20432 7.77552 7.22124C7.95324 7.25341 8.12435 7.16414 8.20783 7.01177L8.20824 7.01219C8.54797 6.39515 9.06872 5.7133 9.67462 5.09241C10.0763 4.68106 10.4933 4.31622 10.9017 4.01613C10.9103 4.01021 10.9186 4.00429 10.9265 3.99793C11.2447 3.76556 11.5576 3.57299 11.8531 3.4291C12.4829 3.12224 12.8371 3.13876 12.921 3.22509C13.0053 3.31141 13.0219 3.67371 12.7218 4.31915C12.397 5.01744 11.8204 5.80978 11.098 6.54957C10.5607 7.09977 9.99076 7.57125 9.44562 7.91622L9.44934 7.92257C9.28441 7.98688 9.18317 8.14772 9.18317 8.31832C9.18317 8.36825 9.19183 8.41903 9.21003 8.46857C9.28483 8.66999 9.32286 8.87441 9.32286 9.07675C9.32286 9.23929 9.29766 9.39968 9.24848 9.55244C9.13359 9.90884 8.984 10.2478 8.80379 10.561C8.68803 10.7625 8.75379 11.0219 8.95052 11.1404C9.01621 11.1802 9.08855 11.1988 9.15966 11.1988H14.2993C16.7101 11.1988 18.6711 13.2075 18.6711 15.6762C18.6711 16.7237 18.1371 17.8219 18.1309 17.8355ZM19.2034 17.7784C19.1626 17.7784 19.1216 17.7754 19.0811 17.7703C19.334 17.1651 19.4754 16.5125 19.4952 15.8378C19.8878 15.9652 20.1734 16.3415 20.1734 16.7854C20.1734 17.3331 19.7382 17.7784 19.2034 17.7784Z" fill="#7A889B"/>
<path d="M4.99649 10.2128C5.27314 10.2128 5.49738 9.9831 5.49738 9.69983C5.49738 9.41652 5.27314 9.18688 4.99649 9.18688C4.71986 9.18688 4.49559 9.41652 4.49559 9.69983C4.49559 9.9831 4.71986 10.2128 4.99649 10.2128Z" fill="#7A889B"/>
<path d="M14.2991 11.8337C14.0709 11.8337 13.8858 12.0232 13.8858 12.2569C13.8858 12.4906 14.0709 12.6801 14.2991 12.6801C15.9123 12.6801 17.2247 14.0241 17.2247 15.676C17.2247 15.9097 17.4098 16.0993 17.638 16.0993C17.8662 16.0993 18.0512 15.9097 18.0512 15.676C18.0512 13.5573 16.3681 11.8337 14.2991 11.8337Z" fill="#7A889B"/>
<path d="M19.451 14.9635C19.11 12.3635 16.9295 10.3523 14.2993 10.3523H9.83328C9.90728 10.1783 9.97462 10.0002 10.0333 9.81778C10.1106 9.5791 10.1494 9.3298 10.1494 9.07672C10.1494 8.88497 10.1271 8.69284 10.0833 8.50279C10.6189 8.13967 11.1661 7.67662 11.6823 7.14846C12.4697 6.34175 13.1041 5.46608 13.4682 4.68268C14.0133 3.5099 13.7893 2.91739 13.5058 2.62662C13.2218 2.33628 12.6428 2.10647 11.4976 2.6647C11.379 2.72226 11.2579 2.78743 11.1356 2.85855C11.1294 1.88426 10.8492 1.25579 10.3181 1.05814C9.18648 0.638717 7.83831 2.5551 7.0911 4.66577C6.88528 5.24687 6.72655 5.8381 6.6249 6.39553C4.31418 6.68121 2.42543 8.21669 1.69762 10.4708C1.62031 10.7095 1.58148 10.9588 1.58148 11.2119C1.58148 12.2886 2.2659 13.2916 3.2359 13.7212C2.99578 14.3413 2.87426 14.9969 2.87426 15.6761C2.87426 16.4836 3.05074 17.27 3.3884 17.9866H2.47133C1.66004 17.9866 1 18.6625 1 19.4933C1 20.3236 1.66004 20.9995 2.47133 20.9995L14.2993 21C15.6876 21 16.9928 20.4464 17.9756 19.4408C18.2446 19.1649 18.4802 18.8644 18.6806 18.5439C18.8492 18.5964 19.0253 18.6248 19.2034 18.6248C20.1941 18.6248 21 17.7995 21 16.7854C21 15.8569 20.3247 15.0874 19.451 14.9635ZM7.86807 4.95441C8.67441 2.67702 9.75269 1.74885 10.0358 1.85382C10.1672 1.9025 10.3871 2.35364 10.2804 3.43374C9.87997 3.73975 9.477 4.09777 9.09017 4.49394C8.50083 5.09707 8.00069 5.73446 7.62959 6.35192C7.5899 6.34942 7.48824 6.34684 7.47666 6.34684C7.57007 5.89527 7.70234 5.42209 7.86807 4.95441ZM18.1309 17.8355C17.9342 18.2003 17.6862 18.5393 17.3908 18.8423C16.5646 19.6879 15.4669 20.1535 14.2993 20.1535H9.75641V20.1531C9.40097 20.1531 9.11169 19.8572 9.11169 19.4932C9.11169 19.1288 9.40097 18.833 9.75641 18.833H11.627C11.8551 18.833 12.0402 18.6434 12.0402 18.4098V17.6928C12.0402 16.5116 12.9784 15.5508 14.1319 15.5508H14.6783C14.9064 15.5508 15.0916 15.3612 15.0916 15.1276C15.0916 14.8936 14.9064 14.7044 14.6783 14.7044H14.1319C12.5226 14.7044 11.2137 16.0448 11.2137 17.6928V17.9866H9.75641C8.9451 17.9866 8.28507 18.6625 8.28507 19.4933C8.28507 19.7299 8.33879 19.9537 8.43431 20.1531H2.47133C2.1159 20.1531 1.8266 19.8573 1.8266 19.4933C1.8266 19.1288 2.1159 18.833 2.47133 18.833H4.10094C4.18027 18.833 4.26047 18.8098 4.33156 18.7607C4.52086 18.6303 4.57086 18.3671 4.44356 18.1733C3.95754 17.4347 3.70086 16.5709 3.70086 15.6762C3.70086 14.966 3.85832 14.2867 4.1691 13.6578C4.27242 13.4495 4.19059 13.1947 3.98727 13.089C3.95543 13.0729 3.92277 13.0614 3.88973 13.0538C3.47438 12.9595 3.10406 12.7102 2.8375 12.3788C2.57094 12.0474 2.40809 11.6339 2.40809 11.2119C2.40809 11.0494 2.43289 10.889 2.48246 10.7362C2.82465 9.67685 3.46691 8.78465 4.3398 8.15616C5.21559 7.52644 6.27772 7.19334 7.41224 7.19334C7.44155 7.19334 7.68334 7.20432 7.77552 7.22124C7.95324 7.25341 8.12435 7.16414 8.20783 7.01177L8.20824 7.01219C8.54797 6.39515 9.06872 5.7133 9.67462 5.09241C10.0763 4.68106 10.4933 4.31622 10.9017 4.01613C10.9103 4.01021 10.9186 4.00429 10.9265 3.99793C11.2447 3.76556 11.5576 3.57299 11.8531 3.4291C12.4829 3.12224 12.8371 3.13876 12.921 3.22509C13.0053 3.31141 13.0219 3.67371 12.7218 4.31915C12.397 5.01744 11.8204 5.80978 11.098 6.54957C10.5607 7.09977 9.99076 7.57125 9.44562 7.91622L9.44934 7.92257C9.28441 7.98688 9.18317 8.14772 9.18317 8.31832C9.18317 8.36825 9.19183 8.41903 9.21003 8.46857C9.28483 8.66999 9.32286 8.87441 9.32286 9.07675C9.32286 9.23929 9.29766 9.39968 9.24848 9.55244C9.13359 9.90884 8.984 10.2478 8.80379 10.561C8.68803 10.7625 8.75379 11.0219 8.95052 11.1404C9.01621 11.1802 9.08855 11.1988 9.15966 11.1988H14.2993C16.7101 11.1988 18.6711 13.2075 18.6711 15.6762C18.6711 16.7237 18.1371 17.8219 18.1309 17.8355ZM19.2034 17.7784C19.1626 17.7784 19.1216 17.7754 19.0811 17.7703C19.334 17.1651 19.4754 16.5125 19.4952 15.8378C19.8878 15.9652 20.1734 16.3415 20.1734 16.7854C20.1734 17.3331 19.7382 17.7784 19.2034 17.7784Z" stroke="#7A889B" stroke-width="0.4" mask="url(#path-1-outside-1_82_3234)"/>
<path d="M4.99649 10.2128C5.27314 10.2128 5.49738 9.9831 5.49738 9.69983C5.49738 9.41652 5.27314 9.18688 4.99649 9.18688C4.71986 9.18688 4.49559 9.41652 4.49559 9.69983C4.49559 9.9831 4.71986 10.2128 4.99649 10.2128Z" stroke="#7A889B" stroke-width="0.4" mask="url(#path-1-outside-1_82_3234)"/>
<path d="M14.2991 11.8337C14.0709 11.8337 13.8858 12.0232 13.8858 12.2569C13.8858 12.4906 14.0709 12.6801 14.2991 12.6801C15.9123 12.6801 17.2247 14.0241 17.2247 15.676C17.2247 15.9097 17.4098 16.0993 17.638 16.0993C17.8662 16.0993 18.0512 15.9097 18.0512 15.676C18.0512 13.5573 16.3681 11.8337 14.2991 11.8337Z" stroke="#7A889B" stroke-width="0.4" mask="url(#path-1-outside-1_82_3234)"/>
</g>
</svg>
