<svg width="20" height="20" viewBox="0 0 20 20" fill="none" xmlns="http://www.w3.org/2000/svg">
<g id="refresh">
<path id="Vector" d="M14.7015 5.2928C13.3432 3.93447 11.4182 3.15113 9.30154 3.3678C6.2432 3.67613 3.72654 6.15947 3.38487 9.2178C2.92654 13.2595 6.05154 16.6678 9.9932 16.6678C12.6515 16.6678 14.9349 15.1095 16.0015 12.8678C16.2682 12.3095 15.8682 11.6678 15.2515 11.6678C14.9432 11.6678 14.6515 11.8345 14.5182 12.1095C13.5765 14.1345 11.3182 15.4178 8.85154 14.8678C7.00154 14.4595 5.50987 12.9511 5.1182 11.1011C4.4182 7.8678 6.87654 5.00113 9.9932 5.00113C11.3765 5.00113 12.6099 5.57613 13.5099 6.48447L12.2515 7.7428C11.7265 8.2678 12.0932 9.1678 12.8349 9.1678H15.8265C16.2849 9.1678 16.6599 8.7928 16.6599 8.33447V5.3428C16.6599 4.60113 15.7599 4.22613 15.2349 4.75113L14.7015 5.2928Z" fill="#2CB26D"/>
</g>
</svg>
