<svg width="20" height="20" viewBox="0 0 20 20" fill="none" xmlns="http://www.w3.org/2000/svg">
<g id="seeds 1">
<path id="Vector" d="M5.00006 16.6667L5.0074 16.5669C5.0042 16.5667 5.001 16.5664 4.99781 16.5662L7.45077 14.1132C7.54776 14.0162 7.60225 13.8847 7.60225 13.7475C7.60225 13.6103 7.54776 13.4788 7.45077 13.3818C7.35378 13.2848 7.22223 13.2303 7.08506 13.2303C6.94789 13.2303 6.81634 13.2848 6.71935 13.3818L4.26707 15.8341C4.26686 15.8315 4.26666 15.8289 4.26648 15.8263C4.22042 15.1707 4.31388 14.5127 4.5407 13.8958C4.7674 13.2792 5.12216 12.7177 5.58161 12.2482C6.05112 11.7888 6.61264 11.434 7.2292 11.2073C7.84609 10.9805 8.50406 10.887 9.15972 10.9331L9.1597 10.9333H9.16673C9.36122 10.9333 9.54774 11.0106 9.68527 11.1481C9.8228 11.2856 9.90006 11.4722 9.90006 11.6667H9.89981L9.9003 11.6737C9.94636 12.3293 9.8529 12.9873 9.62608 13.6042C9.39939 14.2208 9.04462 14.7823 8.58517 15.2518C8.11566 15.7112 7.55414 16.066 6.93758 16.2927C6.32069 16.5195 5.66272 16.613 5.00707 16.5669L5.00006 16.6667ZM5.00006 16.6667C5.66981 16.7137 6.34193 16.6182 6.97209 16.3865C7.60225 16.1549 8.17613 15.7922 8.65589 15.3225L4.90907 16.6549C4.93913 16.6605 4.96951 16.6644 5.00006 16.6667ZM9.31535 15.9828L9.31537 15.9828L9.31689 15.9812C9.86908 15.4112 10.2976 14.7333 10.5758 13.9899C10.8536 13.2474 10.9753 12.4556 10.9334 11.664C10.9327 11.1964 10.7466 10.7481 10.4159 10.4174C10.0854 10.0869 9.63732 9.90085 9.16993 9.9C8.37734 9.85014 7.58314 9.96822 6.83932 10.2465C6.09452 10.5252 5.41707 10.9582 4.85144 11.5172L4.85142 11.5172L4.8499 11.5188C4.29771 12.0888 3.86913 12.7667 3.59101 13.5101C3.31319 14.2526 3.19145 15.0444 3.23339 15.836C3.23411 16.3036 3.42016 16.7519 3.75084 17.0826C4.0814 17.4131 4.52947 17.5992 4.99686 17.6C5.78945 17.6499 6.58365 17.5318 7.32747 17.2535C8.07226 16.9748 8.74971 16.5418 9.31535 15.9828ZM9.16673 10.8333C9.38774 10.8333 9.5997 10.9211 9.75598 11.0774C9.91226 11.2337 10.0001 11.4457 10.0001 11.6667L9.16673 10.8333ZM17.5384 12.8499H17.5385L17.5383 12.8461C17.5119 12.164 17.3465 11.4945 17.0523 10.8786C16.7587 10.2636 16.3428 9.71496 15.83 9.26605C15.499 8.93635 15.0507 8.75119 14.5834 8.75119C14.1162 8.75119 13.6682 8.93621 13.3371 9.26568C12.8101 9.71752 12.3852 10.2762 12.0904 10.9048C11.7952 11.5345 11.6374 12.2198 11.6276 12.9153L11.6275 12.9153L11.6276 12.9183C11.6389 13.6134 11.7973 14.2982 12.0925 14.9276C12.3871 15.5559 12.8112 16.1148 13.337 16.5676C13.6681 16.8971 14.1162 17.0821 14.5834 17.0821C15.0505 17.0821 15.4986 16.8971 15.8296 16.5677C16.3656 16.1087 16.7959 15.539 17.0909 14.8979C17.3864 14.2556 17.5391 13.5569 17.5384 12.8499ZM14.0583 10.0051L14.0586 10.0054L14.0649 9.99905C14.2024 9.86157 14.3889 9.78434 14.5834 9.78434C14.7778 9.78434 14.9643 9.86157 15.1019 9.99905L15.1016 9.99933L15.1084 10.005C15.5274 10.3558 15.8682 10.7906 16.1088 11.2813C16.3491 11.7714 16.4841 12.3064 16.5051 12.8518C16.5041 13.4195 16.3788 13.9802 16.1377 14.4942C15.8964 15.0088 15.5451 15.4642 15.1085 15.8282L15.1085 15.8282L15.1073 15.8292C15.1049 15.8313 15.1025 15.8333 15.1001 15.8354V12.9167C15.1001 12.7796 15.0456 12.6482 14.9487 12.5513C14.8518 12.4544 14.7204 12.4 14.5834 12.4C14.4464 12.4 14.3149 12.4544 14.2181 12.5513C14.1212 12.6482 14.0667 12.7796 14.0667 12.9167V15.8354C14.0643 15.8333 14.0619 15.8313 14.0595 15.8292L14.0584 15.8283C13.6307 15.4707 13.2847 15.0256 13.0437 14.523C12.8029 14.021 12.6724 13.4733 12.6609 12.9166C12.6719 12.3599 12.8023 11.8121 13.0431 11.31C13.2842 10.8074 13.6304 10.3624 14.0583 10.0051ZM7.91812 3.29417L7.91812 3.29413L7.9151 3.29418C7.22001 3.3055 6.53521 3.46395 5.9058 3.75909C5.2775 4.0537 4.71862 4.47783 4.26583 5.00365C3.9363 5.33469 3.75125 5.78281 3.75125 6.25C3.75125 6.71715 3.93627 7.16523 4.26574 7.49626C4.7174 8.02347 5.27608 8.44858 5.90466 8.74332C6.53442 9.03861 7.21987 9.19628 7.91535 9.20582L7.91535 9.20589L7.91912 9.2058C8.61301 9.18921 9.29588 9.02847 9.92432 8.73379C10.5517 8.43959 11.1112 8.0183 11.5674 7.49662C11.897 7.16555 12.0822 6.71732 12.0822 6.25C12.0822 5.78285 11.8972 5.33476 11.5677 5.00373C11.1159 4.47665 10.5572 4.05163 9.92868 3.7569C9.29896 3.46162 8.61356 3.30388 7.91812 3.29417ZM10.8343 6.76846L10.8341 6.76819L10.8284 6.77497C10.4774 7.19418 10.0423 7.53509 9.55133 7.77569C9.06095 8.01599 8.52566 8.15087 7.97998 8.17166C7.41262 8.16989 6.8525 8.04411 6.33884 7.80312C5.82458 7.56185 5.36936 7.21095 5.00513 6.77504L5.00514 6.77503L5.00399 6.77371C5.00197 6.77137 4.99996 6.76903 4.99797 6.76666H7.91673C8.05375 6.76666 8.18517 6.71223 8.28206 6.61534C8.37896 6.51844 8.43339 6.38703 8.43339 6.25C8.43339 6.11297 8.37896 5.98155 8.28206 5.88466C8.18517 5.78777 8.05375 5.73333 7.91673 5.73333H4.9987C5.00056 5.73117 5.00242 5.72903 5.0043 5.72689L5.00432 5.72691L5.00582 5.72512C5.36404 5.29835 5.80919 4.95292 6.31154 4.71191C6.81327 4.47119 7.36054 4.34015 7.91687 4.32752C8.47352 4.33857 9.02135 4.46888 9.52337 4.70967C10.026 4.95076 10.471 5.29698 10.8283 5.72492L10.828 5.72518L10.8343 5.73153C10.9718 5.86905 11.049 6.05554 11.049 6.25C11.049 6.44445 10.9718 6.63094 10.8343 6.76846Z" fill="#7A889B" stroke="#7A889B" stroke-width="0.2"/>
</g>
</svg>
