<svg width="16" height="16" viewBox="0 0 16 16" fill="none" xmlns="http://www.w3.org/2000/svg">
<g id="shopping_bag">
<path id="Vector" d="M12 3.99998H10.6666C10.6666 2.52665 9.47329 1.33331 7.99996 1.33331C6.52663 1.33331 5.33329 2.52665 5.33329 3.99998H3.99996C3.26663 3.99998 2.66663 4.59998 2.66663 5.33331V13.3333C2.66663 14.0666 3.26663 14.6666 3.99996 14.6666H12C12.7333 14.6666 13.3333 14.0666 13.3333 13.3333V5.33331C13.3333 4.59998 12.7333 3.99998 12 3.99998ZM6.66663 6.66665C6.66663 7.03331 6.36663 7.33331 5.99996 7.33331C5.63329 7.33331 5.33329 7.03331 5.33329 6.66665V5.33331H6.66663V6.66665ZM7.99996 2.66665C8.73329 2.66665 9.33329 3.26665 9.33329 3.99998H6.66663C6.66663 3.26665 7.26663 2.66665 7.99996 2.66665ZM10.6666 6.66665C10.6666 7.03331 10.3666 7.33331 9.99996 7.33331C9.63329 7.33331 9.33329 7.03331 9.33329 6.66665V5.33331H10.6666V6.66665Z" fill="#BEBFC9"/>
</g>
</svg>
