<svg width="76" height="32" viewBox="0 0 76 32" fill="none" xmlns="http://www.w3.org/2000/svg">
<g id="&#208;&#161;&#208;&#179;&#209;&#128;&#209;&#131;&#208;&#191;&#208;&#191;&#208;&#184;&#209;&#128;&#208;&#190;&#208;&#178;&#208;&#176;&#209;&#130;&#209;&#140; 85">
<g id="&#208;&#161;&#208;&#179;&#209;&#128;&#209;&#131;&#208;&#191;&#208;&#191;&#208;&#184;&#209;&#128;&#208;&#190;&#208;&#178;&#208;&#176;&#209;&#130;&#209;&#140; 33">
<path id="&#208;&#159;&#209;&#128;&#209;&#143;&#208;&#188;&#208;&#190;&#209;&#131;&#208;&#179;&#208;&#190;&#208;&#187;&#209;&#140;&#208;&#189;&#208;&#184;&#208;&#186; 114" d="M28 0H4C1.79086 0 0 1.79086 0 4V28C0 30.2091 1.79086 32 4 32H28C30.2091 32 32 30.2091 32 28V4C32 1.79086 30.2091 0 28 0Z" fill="white"/>
<g id="instagram">
<path id="&#208;&#154;&#208;&#190;&#208;&#189;&#209;&#130;&#209;&#131;&#209;&#128; 37" d="M15.9302 11.854C15.1252 11.854 14.3383 12.0927 13.669 12.5399C12.9997 12.9871 12.478 13.6228 12.17 14.3665C11.8619 15.1102 11.7813 15.9285 11.9384 16.718C12.0954 17.5075 12.483 18.2327 13.0522 18.8019C13.6214 19.3711 14.3467 19.7588 15.1362 19.9158C15.9257 20.0728 16.744 19.9922 17.4877 19.6842C18.2314 19.3761 18.867 18.8545 19.3143 18.1852C19.7615 17.5159 20.0002 16.729 20.0002 15.924C20.0003 15.3895 19.8951 14.8602 19.6906 14.3663C19.4861 13.8725 19.1863 13.4237 18.8084 13.0458C18.4304 12.6678 17.9817 12.368 17.4878 12.1635C16.994 11.9591 16.4647 11.8539 15.9302 11.854ZM15.9302 18.565C15.4076 18.565 14.8968 18.4101 14.4624 18.1197C14.0279 17.8294 13.6892 17.4168 13.4893 16.9341C13.2893 16.4513 13.237 15.9201 13.3389 15.4076C13.4409 14.8951 13.6925 14.4243 14.062 14.0548C14.4315 13.6853 14.9022 13.4337 15.4147 13.3318C15.9272 13.2298 16.4585 13.2821 16.9412 13.4821C17.424 13.6821 17.8366 14.0207 18.1269 14.4552C18.4172 14.8897 18.5722 15.4005 18.5722 15.923C18.5723 16.27 18.5041 16.6136 18.3713 16.9342C18.2386 17.2548 18.044 17.5461 17.7986 17.7915C17.5533 18.0368 17.262 18.2314 16.9414 18.3642C16.6208 18.4969 16.2772 18.5651 15.9302 18.565Z" fill="#BEBFC9"/>
<path id="&#208;&#154;&#208;&#190;&#208;&#189;&#209;&#130;&#209;&#131;&#209;&#128; 38" d="M19.2272 7.97702C17.7552 7.90802 14.1092 7.91202 12.6362 7.97702C11.3907 7.95429 10.1855 8.41856 9.27719 9.27102C7.73819 10.809 7.93519 12.883 7.93519 15.926C7.93519 19.038 7.76219 21.063 9.27719 22.579C10.8222 24.12 12.9272 23.918 15.9272 23.918C19.0102 23.918 20.0742 23.918 21.1642 23.498C22.6462 22.923 23.7642 21.598 23.8742 19.219C23.9432 17.746 23.9392 14.101 23.8742 12.628C23.7442 9.81902 22.2372 8.11602 19.2272 7.97702ZM21.5572 21.558C20.5482 22.567 19.1492 22.477 15.9122 22.477C12.5792 22.477 11.2422 22.526 10.2672 21.548C9.14419 20.43 9.34719 18.635 9.34719 15.913C9.34719 12.23 8.96919 9.57702 12.6662 9.38802C13.5152 9.35802 13.7662 9.34802 15.9032 9.34802L15.9332 9.36802C19.4862 9.36802 22.2732 8.99602 22.4402 12.692C22.4782 13.535 22.4872 13.792 22.4872 15.923C22.4872 19.218 22.5492 20.562 21.5582 21.558H21.5572Z" fill="#BEBFC9"/>
<path id="&#208;&#173;&#208;&#187;&#208;&#187;&#208;&#184;&#208;&#191;&#209;&#129; 4" d="M20.1922 12.6289C20.7268 12.6289 21.1602 12.1955 21.1602 11.6609C21.1602 11.1263 20.7268 10.6929 20.1922 10.6929C19.6576 10.6929 19.2242 11.1263 19.2242 11.6609C19.2242 12.1955 19.6576 12.6289 20.1922 12.6289Z" fill="#BEBFC9"/>
</g>
</g>
<g id="&#208;&#161;&#208;&#179;&#209;&#128;&#209;&#131;&#208;&#191;&#208;&#191;&#208;&#184;&#209;&#128;&#208;&#190;&#208;&#178;&#208;&#176;&#209;&#130;&#209;&#140; 32">
<path id="&#208;&#159;&#209;&#128;&#209;&#143;&#208;&#188;&#208;&#190;&#209;&#131;&#208;&#179;&#208;&#190;&#208;&#187;&#209;&#140;&#208;&#189;&#208;&#184;&#208;&#186; 115" d="M72 0H48C45.7909 0 44 1.79086 44 4V28C44 30.2091 45.7909 32 48 32H72C74.2091 32 76 30.2091 76 28V4C76 1.79086 74.2091 0 72 0Z" fill="#2CB26D"/>
<path id="telegram" d="M58.278 17.7869L58.013 21.5099C58.1554 21.5111 58.2962 21.4795 58.4244 21.4174C58.5525 21.3553 58.6646 21.2644 58.752 21.1519L60.527 19.4519L64.206 22.1459C64.881 22.5219 65.356 22.3239 65.538 21.5249L67.954 10.2139C68.168 9.21389 67.593 8.82689 66.936 9.07089L52.743 14.4999C51.774 14.8759 51.789 15.4159 52.578 15.6609L56.207 16.7939L64.636 11.5199C65.036 11.2569 65.393 11.4029 65.097 11.6649L58.278 17.7869Z" fill="white"/>
</g>
</g>
</svg>
