<svg width="20" height="20" viewBox="0 0 20 20" fill="none" xmlns="http://www.w3.org/2000/svg">
<g id="Group 8191">
<path id="Vector" d="M10.2924 2.5C10.5885 2.55651 10.8901 2.5921 11.1796 2.67282C12.2131 2.96049 13.0232 3.56703 13.6168 4.45609C14.1145 5.18907 14.3643 6.06221 14.3297 6.94753C14.2824 8.32791 13.6961 9.44264 12.6108 10.2932C12.569 10.3262 12.5257 10.3574 12.4582 10.4084C13.969 10.9547 15.1882 11.8651 16.112 13.1574C17.0359 14.4497 17.4817 15.8984 17.5 17.4927H16.3366C16.2705 15.2948 15.3526 13.5386 13.5511 12.2727C12.3866 11.4549 11.0702 11.1092 9.65072 11.1815C6.42464 11.3459 3.68103 14.0501 3.66452 17.5H2.5V17.0597C2.51096 17.0183 2.51929 16.9763 2.52495 16.9338C2.57267 16.1637 2.74825 15.4069 3.04447 14.6945C3.89003 12.6786 5.33216 11.272 7.37085 10.4748L7.53963 10.4077C7.47395 10.3581 7.42956 10.3269 7.38883 10.2939C6.3043 9.44154 5.71654 8.32901 5.66958 6.94826C5.63523 6.06298 5.88531 5.18998 6.38318 4.45719C6.97681 3.56849 7.78691 2.96159 8.82081 2.67392C9.10992 2.5932 9.41187 2.55761 9.70795 2.5011L10.2924 2.5ZM13.1626 6.83452C13.1592 5.99782 12.8256 5.19633 12.2342 4.60445C11.6429 4.01257 10.8417 3.67822 10.0051 3.67417C8.26497 3.66903 6.83446 5.09785 6.83593 6.83929C6.83892 7.67633 7.17245 8.47829 7.7639 9.07056C8.35534 9.66282 9.15681 9.99741 9.99376 10.0015C11.7336 10.0059 13.1641 8.57705 13.1626 6.83562V6.83452Z" fill="#BEBFC9"/>
</g>
</svg>
