<svg width="20" height="20" viewBox="0 0 20 20" fill="none" xmlns="http://www.w3.org/2000/svg">
<g id="Group">
<path id="Vector" d="M19.8202 7.70751C18.5867 6.53003 16.9128 6.05017 15.3011 6.22103L15.4799 6.05038C16.2915 5.27614 16.7387 4.24562 16.7387 3.15037C16.7387 2.05454 16.2915 0.945831 15.4799 0.171651C15.2402 -0.0572169 14.8517 -0.0572169 14.6119 0.171651L13.744 1.00024C12.1338 2.53802 12.0885 5.07227 13.5747 6.68093C13.0722 6.90551 12.5993 7.20213 12.173 7.57903C12.0892 6.95934 11.8109 6.35945 11.3134 5.88448C10.117 4.74231 8.1701 4.74286 6.97247 5.88507C6.81199 6.03851 6.68351 6.21624 6.56308 6.39782C5.38142 5.62589 3.66553 5.72727 2.63337 6.71362C1.58201 7.71627 1.43135 9.28917 2.29104 10.4592C2.10515 10.5721 1.92753 10.7018 1.76545 10.8565C0.698787 11.8748 0.589536 13.4597 1.42484 14.6015C1.23813 14.7146 1.05965 14.8446 0.896914 15C-0.298965 16.1421 -0.298965 18.0012 0.896875 19.1434C2.09292 20.2852 4.04035 20.2859 5.23715 19.1434C5.39973 18.9882 5.53583 18.8179 5.6542 18.6398C6.89839 19.4694 8.54298 19.3023 9.57752 18.3148C9.74013 18.1594 9.87617 17.989 9.99457 17.8107C11.2371 18.6391 12.881 18.4754 13.9178 17.4857C14.9874 16.4646 15.0936 14.8748 14.2509 13.7323C14.4402 13.6175 14.6257 13.4956 14.7857 13.3428C15.9816 12.2006 15.9816 10.3415 14.7857 9.19937C14.3035 8.739 13.6985 8.47348 13.0709 8.3842C14.7557 6.95438 17.3381 6.99576 18.9522 8.53613C19.192 8.765 19.5804 8.765 19.8202 8.53613C20.0599 8.3072 20.0599 7.93638 19.8202 7.70751ZM7.841 6.713C8.55909 6.0292 9.72735 6.02807 10.4454 6.713C11.1635 7.39851 11.1635 8.51379 10.4454 9.19927C10.2659 9.37065 10.0464 9.48958 9.8136 9.57737C9.20529 9.23989 8.50606 9.11744 7.82854 9.2121C7.8501 9.07113 7.87221 8.93007 7.87221 8.78503C7.87221 8.25858 7.71646 7.75865 7.44551 7.3161C7.53762 7.09369 7.66217 6.88413 7.841 6.713ZM3.50128 7.54213C4.19658 6.87838 5.40981 6.87838 6.10514 7.54213C6.82409 8.22851 6.826 9.33969 6.10514 10.0279C5.92562 10.1992 5.70611 10.3182 5.47338 10.406C4.8728 10.0726 4.18368 9.95013 3.51385 10.0383C3.50981 10.0345 3.50529 10.0317 3.50132 10.0279C2.78235 9.34148 2.78047 8.23031 3.50128 7.54213ZM4.36923 18.3147C3.6518 18.9985 2.48352 18.9996 1.76484 18.3147C1.04737 17.6293 1.04737 16.514 1.76484 15.8284C2.48197 15.145 3.64862 15.1417 4.36923 15.8284C5.08732 16.514 5.08732 17.6293 4.36923 18.3147ZM5.23715 14.1713C5.05766 14.3426 4.83812 14.4616 4.60536 14.5494C4.00474 14.2161 3.31573 14.0936 2.64589 14.1817C2.64192 14.178 2.63734 14.1751 2.63337 14.1713C1.91533 13.4858 1.91533 12.3705 2.63337 11.685C3.32866 11.0212 4.54189 11.0212 5.23722 11.685C5.95527 12.3705 5.95527 13.4858 5.23715 14.1713ZM8.70957 17.4862C7.99213 18.17 6.82387 18.1711 6.10517 17.4862C6.1012 17.4824 6.0982 17.4781 6.09423 17.4742C6.18663 16.8347 6.05818 16.1768 5.70929 15.6033C5.80143 15.3806 5.92612 15.1709 6.10517 14.9999C6.82264 14.3144 7.9909 14.3144 8.70957 14.9999C9.42704 15.6854 9.42704 16.8007 8.70957 17.4862ZM9.57745 13.3427C9.39839 13.5137 9.17878 13.6327 8.94547 13.7206C8.33702 13.3832 7.6375 13.2606 6.95965 13.3556C7.05902 12.7085 6.93061 12.0408 6.57716 11.4598C6.66935 11.2371 6.79404 11.0274 6.97309 10.8565C7.69056 10.1727 8.85882 10.1715 9.57752 10.8565C10.2956 11.542 10.2956 12.6572 9.57745 13.3427ZM13.0498 16.657C12.3312 17.3431 11.1629 17.342 10.4454 16.657C10.4413 16.6531 10.4381 16.6486 10.4341 16.6446C10.5262 16.0054 10.3979 15.3479 10.0493 14.7747C10.1413 14.5523 10.2659 14.3428 10.4455 14.1713C11.1629 13.4858 12.3312 13.4858 13.0499 14.1713C13.7687 14.8575 13.7692 15.9702 13.0498 16.657ZM13.9178 10.0279C14.6352 10.7133 14.6352 11.8286 13.9178 12.5141C13.7387 12.6852 13.519 12.8041 13.2856 12.8921C12.6771 12.5548 11.9777 12.4321 11.3 12.5269C11.3993 11.8798 11.2709 11.2121 10.9175 10.6312C11.0096 10.4085 11.1343 10.1988 11.3134 10.0279C12.0309 9.34293 13.1991 9.34179 13.9178 10.0279ZM14.2217 5.59424C13.434 4.45724 13.5642 2.82958 14.6119 1.82872L15.0027 1.45564C15.3336 1.93056 15.511 2.56662 15.511 3.15029C15.511 3.93252 15.1915 4.66838 14.6118 5.22169L14.2217 5.59424Z" fill="#7A889B"/>
</g>
</svg>
