<svg width="48" height="48" viewBox="0 0 48 48" fill="none" xmlns="http://www.w3.org/2000/svg">
<g id="vuesax/bulk/gallery">
<g id="gallery">
<path id="Vector" opacity="0.4" d="M4 15.62V27.8L7.26 25C8.82 23.66 11.34 23.66 12.9 25L21.22 32.14C22.78 33.48 25.3 33.48 26.86 32.14L27.54 31.58C28.96 30.34 31.22 30.22 32.82 31.3L42.66 37.9L42.88 38.06C43.62 36.46 44 34.56 44 32.38V15.62C44 8.34 39.66 4 32.38 4H15.62C8.34 4 4 8.34 4 15.62Z" fill="#BBC0BB"/>
<path id="Vector_2" d="M30 20.7602C27.3711 20.7602 25.24 18.6291 25.24 16.0002C25.24 13.3714 27.3711 11.2402 30 11.2402C32.6289 11.2402 34.76 13.3714 34.76 16.0002C34.76 18.6291 32.6289 20.7602 30 20.7602Z" fill="#BBC0BB"/>
<path id="Vector_3" d="M4 27.8001V32.3801C4 39.6601 8.34 44.0001 15.62 44.0001H32.38C37.48 44.0001 41.16 41.8601 42.88 38.0601L42.66 37.9001L32.82 31.3001C31.22 30.2201 28.96 30.3401 27.54 31.5801L26.86 32.1401C25.3 33.4801 22.78 33.4801 21.22 32.1401L12.9 25.0001C11.34 23.6601 8.82 23.6601 7.26 25.0001L4 27.8001Z" fill="#BBC0BB"/>
</g>
</g>
</svg>
