<svg width="91" height="28" viewBox="0 0 91 28" fill="none" xmlns="http://www.w3.org/2000/svg">
<path fill-rule="evenodd" clip-rule="evenodd" d="M90.7121 13.604L90.717 14.968V15.533V15.9664L90.715 16.3317L90.7131 16.6534L90.7101 16.9441L90.7061 17.2114L90.7001 17.4602L90.6962 17.6934L90.6892 17.9139L90.6832 18.1236L90.6753 18.3237L90.6653 18.5154L90.6574 18.6997L90.6474 18.8772L90.6365 19.0487L90.6255 19.2148L90.6126 19.3758L90.5997 19.5323L90.5857 19.6843L90.5708 19.8325L90.5569 19.9765L90.541 20.1173L90.5241 20.255L90.5071 20.3894L90.4883 20.521L90.4704 20.6495L90.4505 20.7755L90.4306 20.8991L90.4097 21.0201L90.3878 21.1387L90.3649 21.2556L90.341 21.37L90.3182 21.4823L90.2933 21.5927L90.2674 21.7014L90.2406 21.808L90.2137 21.9131L90.1859 22.0162L90.158 22.1177L90.1282 22.2177L90.0983 22.3161L90.0675 22.4128L90.0357 22.5084L90.0028 22.6023L89.9702 22.6947L89.9365 22.7859L89.9019 22.8756L89.8661 22.9642L89.8294 23.0515L89.7936 23.1372L89.7557 23.2219L89.7168 23.3054L89.6778 23.3876L89.6379 23.4687L89.5968 23.5487L89.5548 23.6275L89.5118 23.7053L89.4686 23.782L89.4244 23.8577L89.3793 23.9322L89.3341 24.0055L89.2869 24.0782L89.2405 24.1492L89.1913 24.2199L89.1429 24.2892L89.0925 24.3577L89.0422 24.4253L88.9908 24.4919L88.9382 24.5573L88.8848 24.6222L88.8313 24.6858L88.7757 24.7488L88.7202 24.8104L88.6636 24.8716L88.6059 24.9318L88.5463 24.9913L88.4886 25.0494L88.428 25.1071L88.3662 25.1637L88.3044 25.2196L88.2407 25.2747L88.1769 25.3288L88.112 25.3821L88.0462 25.4348L87.9783 25.4866L87.9114 25.5375L87.8425 25.5875L87.7716 25.6369L87.7016 25.6852L87.6296 25.7329L87.5576 25.7797L87.4825 25.826L87.4075 25.8714L87.3314 25.9161L87.2543 25.9598L87.1761 26.0027L87.0971 26.0452L87.0169 26.0866L86.9347 26.1274L86.8515 26.1674L86.7672 26.2067L86.682 26.2452L86.5957 26.2832L86.5074 26.3202L86.4182 26.3566L86.3279 26.3922L86.2365 26.427L86.144 26.461L86.0488 26.4946L85.9533 26.5271L85.8559 26.5591L85.7574 26.5903L85.657 26.6207L85.5555 26.6507L85.452 26.6797L85.3465 26.7083L85.239 26.7359L85.1315 26.7628L85.0208 26.7891L84.9083 26.8147L84.7938 26.8394L84.6771 26.8639L84.5595 26.887L84.4389 26.9098L84.3162 26.932L84.1916 26.9533L84.0639 26.9739L83.9333 26.9942L83.8015 27.0133L83.6648 27.0321L83.5271 27.05L83.3854 27.0673L83.2406 27.0836L83.0928 27.0995L82.9401 27.1149L82.7844 27.1294L82.6246 27.1432L82.4598 27.1564L82.2901 27.169L82.1163 27.1806L81.9356 27.1918L81.7488 27.2023L81.5551 27.2122L81.3533 27.2213L81.1426 27.23L80.9229 27.2377L80.6903 27.245L80.4457 27.2516L80.1852 27.2573L79.9037 27.2628L79.5993 27.2676L79.263 27.2714L78.8819 27.275L78.4311 27.2782L77.852 27.2807L69.6901 27.3045L67.9033 27.3091L67.2893 27.31L66.8245 27.3096L66.4345 27.3083L66.0919 27.3062L65.7821 27.3036L65.4987 27.2999L65.2347 27.2957L64.987 27.2906L64.7535 27.2847L64.5312 27.2783L64.3201 27.2709L64.1169 27.2631L63.9219 27.2545L63.734 27.2452L63.5519 27.2353L63.3759 27.2246L63.2058 27.2132L63.0408 27.2009L62.8797 27.1881L62.7235 27.1746L62.5702 27.1605L62.4219 27.1454L62.2764 27.1299L62.1339 27.1136L61.9954 27.0965L61.8596 27.0786L61.7259 27.0602L61.5959 27.041L61.4679 27.0212L61.3417 27.0008L61.2186 26.9794L61.0983 26.9573L60.9788 26.9348L60.8621 26.9114L60.7474 26.8873L60.6346 26.8626L60.5236 26.837L60.4145 26.8108L60.3073 26.7838L60.2018 26.7561L60.0983 26.7275L59.9957 26.6985L59.8948 26.6687L59.7959 26.6381L59.6978 26.6069L59.6015 26.5749L59.5071 26.542L59.4135 26.5086L59.3208 26.4746L59.23 26.4396L59.141 26.4037L59.0529 26.3674L58.9654 26.3302L58.8801 26.2923L58.7953 26.2536L58.7125 26.2139L58.6304 26.1737L58.5495 26.1329L58.4691 26.0913L58.3906 26.0487L58.313 26.0054L58.2371 25.9613L58.1612 25.9167L58.0869 25.871L58.0136 25.8245L57.9411 25.7774L57.8694 25.7295L57.7996 25.6808L57.7304 25.631L57.6622 25.5806L57.5949 25.5294L57.5282 25.4775L57.4624 25.4247L57.3984 25.3709L57.3341 25.3166L57.2719 25.2612L57.2103 25.2048L57.1494 25.1478L57.0896 25.0898L57.0304 25.0311L56.9729 24.9712L56.9154 24.9108L56.8586 24.8494L56.8036 24.7868L56.7493 24.7235L56.695 24.6595L56.6421 24.5942L56.5903 24.5281L56.5392 24.4609L56.4889 24.393L56.4393 24.3238L56.3905 24.2538L56.3424 24.183L56.2951 24.111L56.2486 24.0381L56.2039 23.9638L56.1588 23.8887L56.1146 23.8126L56.0719 23.7351L56.0292 23.6569L55.9881 23.5772L55.9476 23.4964L55.907 23.4148L55.8681 23.3316L55.8298 23.2473L55.7923 23.1618L55.7554 23.075L55.7193 22.987L55.6838 22.8976L55.6499 22.8067L55.6157 22.7149L55.5832 22.6211L55.5504 22.5263L55.5191 22.4299L55.4886 22.3319L55.4586 22.2323L55.4292 22.1313L55.4004 22.0285L55.3731 21.9238L55.3455 21.8177L55.3193 21.7096L55.2937 21.5997L55.2696 21.4875L55.245 21.3737L55.2218 21.2576L55.1991 21.1393L55.1779 21.0185L55.156 20.8957L55.1365 20.7701L55.1163 20.642L55.0974 20.5111L55.0788 20.3775L55.0613 20.2405L55.0451 20.1002L55.0289 19.9566L55.0137 19.8091L54.9987 19.6578L54.9854 19.5022L54.972 19.3421L54.9593 19.1769L54.9472 19.0065L54.9365 18.8298L54.9262 18.6466L54.916 18.4564L54.9076 18.2577L54.8988 18.0499L54.8913 17.8312L54.8844 17.6001L54.8788 17.3539L54.8733 17.0899L54.868 16.8035L54.8639 16.4873L54.8602 16.1303L54.8569 15.7102L54.8544 15.1745L54.8508 14.2503L54.8468 12.4551L54.8454 11.8554L54.8458 11.407L54.8477 11.0329L54.8498 10.7052L54.8526 10.4102L54.8567 10.1395L54.861 9.8883L54.8662 9.65268L54.8721 9.43022L54.8789 9.21912L54.8872 9.0174L54.8949 8.82466L54.9045 8.63899L54.914 8.4605L54.925 8.2879L54.9365 8.12098L54.9485 7.95924L54.9607 7.80219L54.974 7.64963L54.9885 7.50096L55.0039 7.35588L55.0193 7.21458L55.0356 7.07678L55.0536 6.94147L55.0716 6.80964L55.0902 6.68052L55.1097 6.55408L55.1298 6.43023L55.1505 6.30888L55.172 6.18972L55.195 6.07276L55.2175 5.95799L55.2417 5.84531L55.2664 5.73443L55.2915 5.62574L55.3183 5.51855L55.3445 5.41355L55.3721 5.31015L55.4013 5.20805L55.4299 5.10793L55.4599 5.00941L55.4904 4.91229L55.5222 4.81667L55.5544 4.72244L55.5872 4.6298L55.6212 4.53847L55.6555 4.44833L55.6913 4.35958L55.7274 4.27223L55.7639 4.18608L55.8018 4.10132L55.84 4.01766L55.8795 3.9351L55.9194 3.85383L55.9596 3.77376L56.0012 3.69479L56.0439 3.61681L56.087 3.54004L56.1315 3.46415L56.1762 3.38957L56.2214 3.31608L56.2675 3.24339L56.3153 3.17169L56.3631 3.10119L56.4123 3.0315L56.4618 2.96299L56.5125 2.89529L56.5637 2.82878L56.6159 2.76297L56.6695 2.69805L56.7233 2.63404L56.7784 2.57112L56.8338 2.509L56.8904 2.44787L56.9483 2.38744L57.0065 2.32811L57.0658 2.26948L57.1256 2.21195L57.1873 2.15491L57.2486 2.09917L57.312 2.04383L57.3755 1.98969L57.4405 1.93604L57.5066 1.88339L57.573 1.83164L57.6407 1.78059L57.7095 1.73033L57.7796 1.68077L57.8499 1.63221L57.9215 1.58455L57.9943 1.53749L58.0683 1.49102L58.1437 1.44555L58.2192 1.40088L58.296 1.357L58.374 1.31383L58.4533 1.27145L58.5336 1.22977L58.6154 1.18889L58.6983 1.1485L58.7824 1.10921L58.8668 1.07073L58.9534 1.03264L59.0412 0.995343L59.1294 0.959146L59.2197 0.923448L59.3112 0.888449L59.4039 0.854248L59.4989 0.820444L59.5941 0.787838L59.6917 0.755631L59.7893 0.724619L59.8902 0.693609L59.9914 0.663894L60.0948 0.634679L60.1994 0.60616L60.3063 0.578339L60.4145 0.551418L60.5248 0.524892L60.6374 0.499066L60.7512 0.474138L60.8663 0.450007L60.9846 0.426475L61.1051 0.403343L61.227 0.381305L61.352 0.359767L61.4793 0.338928L61.6089 0.318785L61.7408 0.29954L61.8758 0.280694L62.0142 0.262447L62.1548 0.245296L62.2987 0.228645L62.4469 0.21249L62.5983 0.197233L62.7531 0.182676L62.9122 0.168815L63.0766 0.155455L63.2453 0.14279L63.4193 0.130924L63.5987 0.119657L63.7843 0.108988L63.9765 0.0992157L64.177 0.0899421L64.3859 0.0812676L64.6043 0.07339L64.8343 0.0661115L65.0777 0.0592305L65.3357 0.0532471L65.6125 0.0478629L65.9131 0.0429769L66.244 0.0388898L66.6161 0.0354987L67.0533 0.0322085L67.6048 0.0295154L68.5036 0.026324L77.5347 0.000897691L78.1886 0L78.6703 0.000300498L79.0704 0.00119629L79.4188 0.00319137L79.7335 0.00578364L80.0212 0.0091747L80.2871 0.0136613L80.5371 0.0183475L80.7732 0.0240322L80.9963 0.0306128L81.2106 0.037393L81.4149 0.0452706L81.6103 0.0538462L81.7997 0.063019L81.9822 0.0728917L82.1587 0.0836602L82.3293 0.0950278L82.4959 0.106894L82.6577 0.119556L82.8153 0.133018L82.9681 0.147079L83.1179 0.161936L83.2638 0.177391L83.4067 0.193644L83.5466 0.210396L83.6816 0.228344L83.8156 0.246692L83.9467 0.265638L84.0757 0.285281L84.2018 0.305723L84.3251 0.326961L84.4462 0.348798L84.5655 0.371334L84.6817 0.394666L84.797 0.418797L84.9103 0.443227L85.0216 0.468655L85.1311 0.494879L85.2375 0.521902L85.344 0.549324L85.4485 0.577542L85.551 0.606559L85.6526 0.636173L85.7511 0.666885L85.8498 0.697895L85.9455 0.730005L86.0411 0.76251L86.1349 0.795915L86.2276 0.829917L86.3184 0.864816L86.4082 0.900315L86.4961 0.93671L86.583 0.973705L86.669 1.01159L86.7539 1.05018L86.8368 1.08937L86.9188 1.12956L86.9999 1.17054L87.0809 1.21192L87.16 1.2542L87.2382 1.29737L87.3144 1.34115L87.3896 1.38612L87.4648 1.43139L87.5381 1.47776L87.6104 1.52482L87.6817 1.57258L87.7522 1.62135L87.8215 1.6707L87.8899 1.72106L87.9575 1.77211L88.0239 1.82396L88.0895 1.87671L88.155 1.93006L88.2177 1.9846L88.2812 2.03974L88.3429 2.09588L88.4037 2.15292L88.4634 2.21065L88.5231 2.26938L88.5809 2.32891L88.6388 2.38934L88.6957 2.45046L88.7506 2.51298L88.8055 2.5761L88.8596 2.64022L88.9126 2.70513L88.9646 2.77114L89.0157 2.83825L89.0668 2.90576L89.1161 2.97476L89.1652 3.04456L89.2135 3.11535L89.2608 3.18725L89.3072 3.26014L89.3525 3.33403L89.3979 3.40891L89.4414 3.48509L89.4848 3.56217L89.5274 3.64035L89.568 3.71992L89.6096 3.80029L89.6492 3.88215L89.688 3.96511L89.7277 4.04887L89.7645 4.13433L89.8014 4.22088L89.8373 4.30883L89.8732 4.39797L89.9083 4.48831L89.9424 4.58025L89.9744 4.67368L90.0076 4.76831L90.0387 4.86463L90.0705 4.96225L90.1003 5.06146L90.1292 5.16237L90.158 5.26478L90.1849 5.36938L90.2127 5.47518L90.2386 5.58307L90.2645 5.69275L90.2893 5.80433L90.3142 5.91801L90.3371 6.03377L90.3589 6.15173L90.3818 6.27179L90.4037 6.39434L90.4236 6.51948L90.4435 6.64731L90.4624 6.77764L90.4813 6.91095L90.4992 7.04736L90.5161 7.18706L90.532 7.33005L90.5469 7.47703L90.5619 7.6275L90.5758 7.78245L90.5887 7.94189L90.6016 8.10622L90.6136 8.27593L90.6245 8.45143L90.6345 8.63361L90.6444 8.82276L90.6534 9.02L90.6623 9.2264L90.6703 9.44308L90.6772 9.67202L90.6832 9.91563L90.6882 10.1763L90.6942 10.4589L90.6981 10.7699L90.7011 11.1195L90.7061 11.5269L90.7081 12.0377L90.7111 12.8341L90.7121 13.604ZM69.6385 21.1661L75.2641 21.1502C80.5929 21.1351 83.6934 17.9109 83.681 13.5811C83.669 9.20826 80.5938 6.13039 75.3065 6.14535L69.5954 6.16181L69.6385 21.1661ZM66.8252 21.1743L62.6061 21.1863L62.564 6.18155L66.7831 6.16958L66.8252 21.1743ZM15.4384 13.8179C15.4502 17.9561 12.3681 21.67 7.71961 21.683C3.07013 21.6963 0.0112444 18.0434 3.42694e-05 13.8617C-0.0118523 9.72338 3.06943 6.00974 7.71891 5.99638C12.3674 5.98332 15.4263 9.63633 15.4384 13.8179ZM1.18419 13.8582C1.19474 17.6065 3.96594 20.6756 7.75969 20.665C11.5543 20.6538 14.265 17.6128 14.2541 13.8211C14.2436 10.0729 11.4715 7.00418 7.67783 7.01485C3.88398 7.02552 1.17335 10.0667 1.18419 13.8582ZM20.7984 21.3049L19.7109 21.308L19.6678 6.3036L20.7336 6.30061L31.2777 19.3247L31.2414 6.27049L32.3288 6.2675L32.3709 21.2721L31.5224 21.2746L20.761 7.97231L20.7984 21.3049ZM47.8391 21.228L36.8968 21.2592L36.8547 6.25464L47.6879 6.22383L47.6909 7.25267L37.9883 7.28029L38.0051 13.175L46.7283 13.1501L46.7312 14.1791L38.0081 14.2038L38.0255 20.227L47.8362 20.1992L47.8391 21.228ZM79.1242 17.6009C79.028 17.6683 78.9297 17.7313 78.8292 17.79C78.4158 18.0374 78.0149 18.1855 77.6422 18.2868C77.5821 18.3032 77.5229 18.3184 77.4656 18.3327C76.9853 18.4516 76.5135 18.5056 76.0995 18.5181C75.4924 18.5369 74.8772 18.533 74.2835 18.5289C73.9944 18.527 73.7105 18.5251 73.4345 18.526L72.4459 18.5286C72.4267 17.9733 72.5191 17.2099 72.6917 16.6017C72.8335 16.1045 73.4685 15.7393 74.0471 15.4357L74.0886 15.4139C74.269 15.3188 74.5956 15.1468 74.901 15.0299C74.915 15.0246 74.929 15.0193 74.944 15.0139C74.9627 15.0069 74.9825 15 75.0022 14.9929C75.2651 14.8979 75.5731 14.7867 75.6033 14.4828C75.6274 14.248 75.5044 14.1018 75.3574 13.9277C75.3224 13.8858 75.2858 13.8423 75.2495 13.7956C74.8225 13.2449 74.4192 12.4932 74.489 11.4735C74.5565 10.473 75.2146 9.69416 76.3192 9.57111C76.4472 9.55676 76.5722 9.55037 76.6931 9.55177C76.8143 9.54978 76.9379 9.55546 77.0668 9.56892C78.1726 9.68569 78.8337 10.4608 78.9073 11.4613C78.9836 12.4803 78.5839 13.2343 78.1593 13.7875C78.1241 13.8343 78.0878 13.878 78.0524 13.9201C77.9072 14.0951 77.785 14.2419 77.81 14.4762C77.8415 14.7803 78.1509 14.8895 78.4149 14.9831C78.4491 14.9954 78.4834 15.0075 78.5157 15.0198C78.8212 15.1347 79.1487 15.3049 79.3301 15.3991L79.3717 15.4206C79.7629 15.623 80.179 15.8533 80.4545 16.1338C80.336 16.3601 80.1283 16.6522 80.0086 16.7901C79.7128 17.1271 79.4155 17.3908 79.1211 17.5994L79.1242 17.6009Z" fill="#4825C2"/>
</svg>
