<svg xmlns="http://www.w3.org/2000/svg" width="55" height="15" viewBox="0 0 55 15" fill="none">
  <path d="M17.6 6.31049H18.955C18.992 6.31049 19.029 6.33139 19.045 6.36479L20.683 9.36809C20.725 9.43899 20.828 9.43899 20.865 9.36809L22.503 6.36479C22.519 6.33139 22.556 6.31049 22.593 6.31049H23.948C24.005 6.31049 24.05 6.35639 24.05 6.41479V12.3923C24.05 12.4507 24.005 12.4966 23.948 12.4966H22.635C22.577 12.4966 22.532 12.4507 22.532 12.3923V9.32219C22.532 9.21379 22.388 9.17619 22.338 9.27219L20.865 11.971C20.823 12.0419 20.721 12.0419 20.683 11.971L19.21 9.27219C19.156 9.17619 19.016 9.21379 19.016 9.32219V12.3923C19.016 12.4507 18.971 12.4966 18.914 12.4966H17.6C17.543 12.4966 17.498 12.4507 17.498 12.3923V6.41479C17.498 6.35639 17.543 6.31049 17.6 6.31049Z" fill="white"/>
  <path d="M29.134 11.5998H26.858C26.817 11.5998 26.775 11.6248 26.763 11.6665L26.459 12.434C26.442 12.4757 26.405 12.5008 26.364 12.5008H24.882C24.808 12.5008 24.759 12.4257 24.783 12.3548L27.117 6.37729C27.134 6.33559 27.171 6.31049 27.216 6.31049H28.78C28.821 6.31049 28.862 6.33559 28.879 6.37729L31.213 12.3548C31.242 12.4257 31.188 12.5008 31.114 12.5008H29.632C29.591 12.5008 29.55 12.4757 29.537 12.434L29.233 11.6665C29.216 11.6248 29.179 11.5998 29.138 11.5998H29.134ZM28.677 10.2483L28.093 8.74239C28.06 8.65479 27.932 8.65479 27.899 8.74239L27.315 10.2483C27.286 10.3192 27.339 10.3943 27.414 10.3943H28.582C28.657 10.3943 28.706 10.3192 28.681 10.2483H28.677Z" fill="white"/>
  <path d="M35.477 12.4588L34.308 10.7694C34.217 10.6401 34.073 10.565 33.917 10.565H33.522C33.464 10.565 33.419 10.6109 33.419 10.6693V12.3962C33.419 12.4546 33.373 12.5005 33.316 12.5005H32.003C31.945 12.5005 31.9 12.4546 31.9 12.3962V6.41871C31.9 6.36031 31.945 6.31451 32.003 6.31451H34.736C36.078 6.31451 37.057 7.18631 37.057 8.44181C37.057 9.29691 36.601 9.98521 35.876 10.3272C35.818 10.3564 35.794 10.4274 35.831 10.4816L37.119 12.3378C37.169 12.4087 37.119 12.5047 37.033 12.5047H35.563C35.53 12.5047 35.497 12.488 35.477 12.4588ZM33.419 9.05501C33.419 9.11341 33.464 9.15931 33.522 9.15931H34.592C35.119 9.15931 35.489 8.87151 35.489 8.43761C35.489 8.00381 35.115 7.71601 34.592 7.71601H33.522C33.464 7.71601 33.419 7.76191 33.419 7.82031V9.05081V9.05501Z" fill="white"/>
  <path d="M38.14 6.31049H39.453C39.511 6.31049 39.556 6.35639 39.556 6.41479V8.66729C39.556 8.76329 39.675 8.80919 39.737 8.73819L41.791 6.34809C41.812 6.32309 41.84 6.31049 41.869 6.31049H43.392C43.483 6.31049 43.528 6.41899 43.47 6.48569L41.359 8.87589C41.326 8.91339 41.322 8.96769 41.351 9.00939L43.684 12.3339C43.734 12.4048 43.684 12.5008 43.598 12.5008H42.021C41.989 12.5008 41.956 12.4841 41.935 12.4549L40.326 10.1565C40.289 10.1023 40.21 10.0981 40.165 10.144L39.576 10.7864C39.576 10.7864 39.548 10.8322 39.548 10.8573V12.3965C39.548 12.4549 39.502 12.5008 39.445 12.5008H38.132C38.074 12.5008 38.029 12.4549 38.029 12.3965V6.41899C38.029 6.36059 38.074 6.31469 38.132 6.31469L38.14 6.31049Z" fill="white"/>
  <path d="M45.874 8.17491C45.874 8.44181 46.088 8.65871 46.352 8.65871H48.76C48.817 8.65871 48.862 8.70461 48.862 8.76301V9.93101C48.862 9.98941 48.817 10.0353 48.76 10.0353H45.981C45.924 10.0353 45.878 10.0811 45.878 10.1395V11.0197C45.878 11.0781 45.924 11.124 45.981 11.124H49.064C49.122 11.124 49.167 11.1698 49.167 11.2282V12.3962C49.167 12.4546 49.122 12.5005 49.064 12.5005H44.462C44.405 12.5005 44.359 12.4546 44.359 12.3962V6.41871C44.359 6.36031 44.405 6.31451 44.462 6.31451H49.064C49.122 6.31451 49.167 6.36031 49.167 6.41871V7.58671C49.167 7.64511 49.122 7.69101 49.064 7.69101H46.356C46.092 7.69101 45.878 7.90791 45.878 8.17491H45.874Z" fill="white"/>
  <path d="M51.526 7.69101H49.875C49.818 7.69101 49.772 7.64511 49.772 7.58671V6.41871C49.772 6.36031 49.818 6.31451 49.875 6.31451H54.893C54.951 6.31451 54.996 6.36031 54.996 6.41871V7.58671C54.996 7.64511 54.951 7.69101 54.893 7.69101H53.251C53.193 7.69101 53.148 7.73691 53.148 7.79531V12.3962C53.148 12.4546 53.102 12.5005 53.045 12.5005H51.732C51.674 12.5005 51.629 12.4546 51.629 12.3962V7.79531C51.629 7.73691 51.584 7.69101 51.526 7.69101Z" fill="white"/>
  <path d="M12.71 0H2.06599C0.925994 0 0 0.9396 0 2.0973V7.4497C0 11.6191 3.33 15 7.438 15C9.466 15 11.301 14.1653 12.627 12.8188C13.954 11.4723 14.776 9.6099 14.776 7.5503V2.0973C14.776 0.9396 13.855 0 12.71 0ZM12.371 9.9329C11.07 11.8456 9.301 12.8985 7.388 12.8985C5.475 12.8985 3.711 11.8456 2.405 9.9329C2.083 9.4547 2.20201 8.8003 2.66901 8.4732C3.14001 8.1418 3.78499 8.2634 4.10699 8.7374C5.01199 10.0713 6.177 10.8012 7.388 10.8012C8.599 10.8012 9.76401 10.0713 10.669 8.7374C10.995 8.2634 11.64 8.1418 12.107 8.4732C12.578 8.8003 12.694 9.4547 12.371 9.9329Z" fill="white"/>
  <path d="M25.886 0.0625H25.018C24.981 0.0625 24.944 0.0833992 24.927 0.116699L23.853 2.0898C23.812 2.1607 23.713 2.1607 23.672 2.0898L22.593 0.116699C22.577 0.0833992 22.54 0.0625 22.503 0.0625H21.634C21.577 0.0625 21.531 0.1084 21.531 0.1668V4.1671C21.531 4.2255 21.577 4.2713 21.634 4.2713H22.461C22.519 4.2713 22.564 4.2255 22.564 4.1671V2.2357C22.564 2.1273 22.704 2.0898 22.758 2.1857L23.676 3.8626C23.717 3.9335 23.816 3.9335 23.857 3.8626L24.767 2.1899C24.82 2.0939 24.96 2.1315 24.96 2.2399V4.1671C24.96 4.2255 25.005 4.2713 25.063 4.2713H25.89C25.948 4.2713 25.993 4.2255 25.993 4.1671V0.171C25.993 0.1126 25.948 0.0667 25.89 0.0667L25.886 0.0625Z" fill="white"/>
  <path d="M29.266 0.1292C29.249 0.0875 29.212 0.0625 29.171 0.0625H28.154C28.113 0.0625 28.072 0.0875 28.06 0.1292L26.5 4.1295C26.471 4.1963 26.524 4.2713 26.594 4.2713H27.533C27.574 4.2713 27.611 4.2463 27.627 4.2046L27.817 3.7207C27.833 3.679 27.87 3.654 27.911 3.654H29.414C29.455 3.654 29.492 3.679 29.509 3.7207L29.698 4.2046C29.714 4.2463 29.751 4.2713 29.793 4.2713H30.735C30.809 4.2713 30.859 4.1963 30.83 4.1295L29.262 0.1292H29.266ZM29.011 2.8364H28.315C28.241 2.8364 28.191 2.7613 28.22 2.6946L28.566 1.7936C28.599 1.706 28.722 1.706 28.759 1.7936L29.109 2.6946C29.134 2.7613 29.085 2.8364 29.015 2.8364H29.011Z" fill="white"/>
  <path d="M34.007 2.9282C33.97 2.874 33.991 2.803 34.049 2.7738C34.522 2.5361 34.818 2.0814 34.818 1.5099C34.818 0.658999 34.156 0.0625 33.238 0.0625H31.418C31.361 0.0625 31.315 0.1084 31.315 0.1668V4.1671C31.315 4.2255 31.361 4.2713 31.418 4.2713H32.246C32.303 4.2713 32.349 4.2255 32.349 4.1671V3.0617C32.349 3.0033 32.394 2.9574 32.451 2.9574H32.797C32.83 2.9574 32.863 2.9741 32.88 3.0033L33.736 4.2296C33.756 4.2588 33.785 4.2755 33.818 4.2755H34.74C34.822 4.2755 34.872 4.1796 34.822 4.1087L34.003 2.9282H34.007ZM33.143 2.0022H32.451C32.394 2.0022 32.349 1.9563 32.349 1.8979V1.1304C32.349 1.072 32.394 1.0261 32.451 1.0261H33.143C33.501 1.0261 33.756 1.2221 33.756 1.5141C33.756 1.8061 33.501 2.0022 33.143 2.0022Z" fill="white"/>
  <path d="M38.695 0.0625H35.349C35.291 0.0625 35.246 0.1084 35.246 0.1668V0.892599C35.246 0.950999 35.291 0.996901 35.349 0.996901H36.411C36.469 0.996901 36.514 1.0428 36.514 1.1012V4.1629C36.514 4.2213 36.559 4.2672 36.617 4.2672H37.44C37.498 4.2672 37.543 4.2213 37.543 4.1629V1.1053C37.543 1.0469 37.588 1.001 37.646 1.001H38.695C38.753 1.001 38.798 0.955199 38.798 0.896799V0.171C38.798 0.1126 38.753 0.0667 38.695 0.0667V0.0625Z" fill="white"/>
  <path d="M19.403 1.7144C18.782 1.5809 18.588 1.4933 18.588 1.2389C18.588 1.0303 18.773 0.871799 19.107 0.871799C19.494 0.871799 19.905 1.0261 20.292 1.3223L20.572 1.535C20.597 1.5642 20.63 1.5768 20.671 1.5768C20.749 1.5768 20.811 1.5142 20.811 1.4349V0.679899C20.811 0.613199 20.782 0.5464 20.733 0.5089C20.305 0.1794 19.786 0 19.132 0C18.251 0 17.629 0.4714 17.555 1.2013C17.547 1.2514 17.547 1.3014 17.547 1.3515C17.547 1.4016 17.547 1.4558 17.555 1.5058C17.629 2.2191 18.259 2.4486 19.09 2.6363C19.7 2.7864 19.889 2.8407 19.889 3.0909C19.889 3.3204 19.691 3.4789 19.3 3.4789C18.876 3.4789 18.494 3.3454 18.144 3.0993L17.934 2.9449L17.666 2.7447C17.666 2.7447 17.637 2.7239 17.617 2.7239C17.58 2.7239 17.547 2.7572 17.547 2.7948V3.6999C17.547 3.7709 17.576 3.8376 17.637 3.8793C18.098 4.1922 18.658 4.359 19.263 4.359C20.284 4.359 20.922 3.8251 20.922 2.9825C20.922 2.7823 20.889 2.6154 20.807 2.4694C20.593 2.0606 20.091 1.8729 19.395 1.7227L19.403 1.7144Z" fill="white"/>
</svg>