<svg xmlns="http://www.w3.org/2000/svg" width="20" height="20" viewBox="0 0 20 20" fill="none">
  <path d="M10.0167 2.4248C7.25835 2.4248 5.01668 4.66647 5.01668 7.4248V9.83314C5.01668 10.3415 4.80001 11.1165 4.54168 11.5498L3.58335 13.1415C2.99168 14.1248 3.40001 15.2165 4.48335 15.5831C8.07501 16.7831 11.95 16.7831 15.5417 15.5831C16.55 15.2498 16.9917 14.0581 16.4417 13.1415L15.4833 11.5498C15.2333 11.1165 15.0167 10.3415 15.0167 9.83314V7.4248C15.0167 4.6748 12.7667 2.4248 10.0167 2.4248Z" stroke="#BEBFC9" stroke-width="1.5" stroke-miterlimit="10" stroke-linecap="round"/>
  <path d="M11.5583 2.66621C11.3 2.59121 11.0333 2.53288 10.7583 2.49954C9.95834 2.39954 9.19167 2.45788 8.47501 2.66621C8.71667 2.04954 9.31667 1.61621 10.0167 1.61621C10.7167 1.61621 11.3167 2.04954 11.5583 2.66621Z" stroke="#BEBFC9" stroke-width="1.5" stroke-miterlimit="10" stroke-linecap="round" stroke-linejoin="round"/>
  <path d="M12.5167 15.8838C12.5167 17.2588 11.3917 18.3838 10.0167 18.3838C9.33333 18.3838 8.7 18.1005 8.25 17.6505C7.8 17.2005 7.51666 16.5671 7.51666 15.8838" stroke="#BEBFC9" stroke-width="1.5" stroke-miterlimit="10"/>
</svg>