<svg xmlns="http://www.w3.org/2000/svg" width="10" height="12" viewBox="0 0 10 12" fill="none">
  <g clip-path="url(#clip0_241_5318)">
    <path d="M0.806292 1.29692C6.05956 -2.72836 9.71865 3.52536 6.18402 7.687C3.70421 10.6133 -1.31767 10.7593 0.322776 6.9169C0.314797 7.84584 0.712143 8.16026 1.10949 8.38006C2.14674 8.94319 4.07602 7.82177 5.00795 6.1709C6.69149 3.18362 4.33293 0.404912 0.806292 1.29692Z" fill="white"/>
    <path d="M0.324192 6.91644C0.316213 7.84534 0.713559 8.15979 1.11091 8.3796C2.14815 8.94272 4.07745 7.82127 5.00938 6.1704C6.69131 3.18315 4.33275 0.404433 0.806113 1.29645C0.806113 1.29645 2.66678 0.309776 4.60722 0.973972C6.54927 1.63817 7.23706 4.58853 5.34448 7.21644C3.4487 9.84595 -0.121026 10.0497 0.324192 6.91644Z" fill="white"/>
    <path d="M0.0161133 10.0696C2.02678 12.1648 9.50453 9.35724 8.53592 3.6875C8.53592 3.6875 9.90987 5.61111 9.86199 9.00908C9.86199 9.00908 9.59071 8.59356 9.19336 8.14114C9.19336 8.14114 8.3907 10.0808 5.65077 11.2183C2.91402 12.3558 0.681548 11.2199 0.0161133 10.0696Z" fill="white"/>
    <path d="M0.0161133 10.0696C2.02678 12.1648 9.50453 9.35724 8.53592 3.6875C8.53592 3.6875 9.90987 5.61111 9.86199 9.00908C9.63059 7.68553 9.50934 6.68601 8.99071 5.79882C8.77846 10.1401 2.64275 12.9221 0.0161133 10.0696Z" fill="white"/>
    <path d="M1.84828 4.15371C2.39563 3.78313 3.21745 4.05265 3.68821 4.75213C4.15894 5.45323 4.09352 6.32439 3.54617 6.69658C2.99883 7.06719 2.17222 6.79768 1.70626 6.09816C1.2371 5.39226 1.29774 4.52433 1.84828 4.15371Z" fill="white"/>
    <path d="M3.71695 5.91463C3.1696 6.28521 2.34779 6.01569 1.87703 5.31621C1.69033 5.03866 1.5898 4.73705 1.56905 4.44824C1.29777 4.87982 1.33447 5.54082 1.70629 6.09911C2.17225 6.80021 2.99886 7.06814 3.54619 6.69753C3.87812 6.47292 4.0329 6.06543 3.99622 5.62582C3.92759 5.73976 3.83503 5.8376 3.71695 5.91463Z" fill="white"/>
  </g>
  <defs>
    <clipPath id="clip0_241_5318">
      <rect width="9.8705" height="11.7842" fill="white"/>
    </clipPath>
  </defs>
</svg>