<svg xmlns="http://www.w3.org/2000/svg" width="20" height="20" viewBox="0 0 20 20" fill="none">
  <path d="M2.64166 6.2002L9.99999 10.4585L17.3083 6.22517" stroke="#BEBFC9" stroke-width="1.5" stroke-linecap="round" stroke-linejoin="round"/>
  <path d="M10 18.0085V10.4502" stroke="#BEBFC9" stroke-width="1.5" stroke-linecap="round" stroke-linejoin="round"/>
  <path d="M8.27498 2.06699L3.82499 4.54202C2.81665 5.10035 1.99167 6.50034 1.99167 7.65034V12.3587C1.99167 13.5087 2.81665 14.9087 3.82499 15.467L8.27498 17.942C9.22498 18.467 10.7833 18.467 11.7333 17.942L16.1833 15.467C17.1917 14.9087 18.0167 13.5087 18.0167 12.3587V7.65034C18.0167 6.50034 17.1917 5.10035 16.1833 4.54202L11.7333 2.06699C10.775 1.53366 9.22498 1.53366 8.27498 2.06699Z" stroke="#BEBFC9" stroke-width="1.5" stroke-linecap="round" stroke-linejoin="round"/>
  <path d="M14.1667 11.0337V7.98369L6.25833 3.41699" stroke="#BEBFC9" stroke-width="1.5" stroke-linecap="round" stroke-linejoin="round"/>
</svg>