<svg width="20" height="20" viewBox="0 0 20 20" fill="none" xmlns="http://www.w3.org/2000/svg">
<g id="vuesax/bold/message-text">
<g id="message-text">
<path id="Vector" d="M14.1666 1.66699H5.83329C3.53329 1.66699 1.66663 3.52533 1.66663 5.81699V10.8003V11.6337C1.66663 13.9253 3.53329 15.7837 5.83329 15.7837H7.08329C7.30829 15.7837 7.60829 15.9337 7.74996 16.117L8.99996 17.7753C9.54996 18.5087 10.45 18.5087 11 17.7753L12.25 16.117C12.4083 15.9087 12.6583 15.7837 12.9166 15.7837H14.1666C16.4666 15.7837 18.3333 13.9253 18.3333 11.6337V5.81699C18.3333 3.52533 16.4666 1.66699 14.1666 1.66699ZM10.8333 11.4587H5.83329C5.49163 11.4587 5.20829 11.1753 5.20829 10.8337C5.20829 10.492 5.49163 10.2087 5.83329 10.2087H10.8333C11.175 10.2087 11.4583 10.492 11.4583 10.8337C11.4583 11.1753 11.175 11.4587 10.8333 11.4587ZM14.1666 7.29199H5.83329C5.49163 7.29199 5.20829 7.00866 5.20829 6.66699C5.20829 6.32533 5.49163 6.04199 5.83329 6.04199H14.1666C14.5083 6.04199 14.7916 6.32533 14.7916 6.66699C14.7916 7.00866 14.5083 7.29199 14.1666 7.29199Z" fill="#7AD334"/>
</g>
</g>
</svg>
