<svg width="20" height="20" viewBox="0 0 20 20" fill="none" xmlns="http://www.w3.org/2000/svg">
<g id="vuesax/bold/document-text">
<g id="document-text">
<path id="Vector" d="M13.1667 1.84207C12.8251 1.5004 12.2334 1.73373 12.2334 2.20873V5.11707C12.2334 6.33373 13.2667 7.34207 14.5251 7.34207C15.3167 7.3504 16.4167 7.3504 17.3584 7.3504C17.8334 7.3504 18.0834 6.79207 17.7501 6.45873C16.5501 5.2504 14.4001 3.0754 13.1667 1.84207Z" fill="#BEBFC9"/>
<path id="Vector_2" d="M17.0833 8.49199H14.6749C12.6999 8.49199 11.0916 6.88366 11.0916 4.90866V2.50033C11.0916 2.04199 10.7166 1.66699 10.2583 1.66699H6.72492C4.15825 1.66699 2.08325 3.33366 2.08325 6.30866V13.692C2.08325 16.667 4.15825 18.3337 6.72492 18.3337H13.2749C15.8416 18.3337 17.9166 16.667 17.9166 13.692V9.32533C17.9166 8.86699 17.5416 8.49199 17.0833 8.49199ZM9.58325 14.792H6.24992C5.90825 14.792 5.62492 14.5087 5.62492 14.167C5.62492 13.8253 5.90825 13.542 6.24992 13.542H9.58325C9.92492 13.542 10.2083 13.8253 10.2083 14.167C10.2083 14.5087 9.92492 14.792 9.58325 14.792ZM11.2499 11.4587H6.24992C5.90825 11.4587 5.62492 11.1753 5.62492 10.8337C5.62492 10.492 5.90825 10.2087 6.24992 10.2087H11.2499C11.5916 10.2087 11.8749 10.492 11.8749 10.8337C11.8749 11.1753 11.5916 11.4587 11.2499 11.4587Z" fill="#BEBFC9"/>
</g>
</g>
</svg>
