<svg width="25" height="24" viewBox="0 0 25 24" fill="none" xmlns="http://www.w3.org/2000/svg">
<path d="M18.5 4.99994C19.4428 4.99994 19.9142 4.99994 20.2071 5.29283C20.5 5.58573 20.5 6.05713 20.5 6.99994V16.9999C20.5 17.9427 20.5 18.4142 20.2071 18.707C19.9142 18.9999 19.4428 18.9999 18.5 18.9999H16.5C15.5572 18.9999 15.0858 18.9999 14.7929 18.707C14.5 18.4142 14.5 17.9427 14.5 16.9999L14.5 6.99994C14.5 6.05713 14.5 5.58573 14.7929 5.29283C15.0858 4.99994 15.5572 4.99994 16.5 4.99994L18.5 4.99994Z" fill="currentColor"/>
<path d="M18.5 4.99994C19.4428 4.99994 19.9142 4.99994 20.2071 5.29283C20.5 5.58573 20.5 6.05713 20.5 6.99994V16.9999C20.5 17.9427 20.5 18.4142 20.2071 18.707C19.9142 18.9999 19.4428 18.9999 18.5 18.9999H16.5C15.5572 18.9999 15.0858 18.9999 14.7929 18.707C14.5 18.4142 14.5 17.9427 14.5 16.9999L14.5 6.99994C14.5 6.05713 14.5 5.58573 14.7929 5.29283C15.0858 4.99994 15.5572 4.99994 16.5 4.99994L18.5 4.99994Z" stroke="currentColor" stroke-width="1.5" stroke-linejoin="round"/>
<path d="M8.5 4.99994C9.44281 4.99994 9.91421 4.99994 10.2071 5.29283C10.5 5.58573 10.5 6.05713 10.5 6.99994L10.5 16.9999C10.5 17.9427 10.5 18.4142 10.2071 18.707C9.91421 18.9999 9.44281 18.9999 8.5 18.9999H6.5C5.55719 18.9999 5.08579 18.9999 4.79289 18.707C4.5 18.4142 4.5 17.9427 4.5 16.9999L4.5 6.99994C4.5 6.05713 4.5 5.58573 4.79289 5.29283C5.08579 4.99994 5.55719 4.99994 6.5 4.99994L8.5 4.99994Z" stroke="currentColor" stroke-width="1.5" stroke-linejoin="round"/>
<rect x="14.5" y="5" width="6" height="14" fill="currentColor"/>
</svg>
