<svg xmlns="http://www.w3.org/2000/svg" width="20" height="20" viewBox="0 0 20 20" fill="none">
  <path d="M10 4.63379H18.3333" stroke="#BEBFC9" stroke-width="1.5" stroke-miterlimit="10" stroke-linecap="round" stroke-linejoin="round"/>
  <path d="M11.85 1.66699H16.4833C17.9667 1.66699 18.3333 2.03366 18.3333 3.50033V6.92533C18.3333 8.39199 17.9667 8.75866 16.4833 8.75866H11.85C10.3667 8.75866 10 8.39199 10 6.92533V3.50033C10 2.03366 10.3667 1.66699 11.85 1.66699Z" stroke="#BEBFC9" stroke-width="1.5" stroke-linecap="round" stroke-linejoin="round"/>
  <path d="M1.66666 14.2168H9.99999" stroke="#BEBFC9" stroke-width="1.5" stroke-miterlimit="10" stroke-linecap="round" stroke-linejoin="round"/>
  <path d="M3.51666 11.25H8.14999C9.63332 11.25 9.99999 11.6167 9.99999 13.0833V16.5083C9.99999 17.975 9.63332 18.3417 8.14999 18.3417H3.51666C2.03332 18.3417 1.66666 17.975 1.66666 16.5083V13.0833C1.66666 11.6167 2.03332 11.25 3.51666 11.25Z" stroke="#BEBFC9" stroke-width="1.5" stroke-linecap="round" stroke-linejoin="round"/>
  <path d="M18.3333 12.5C18.3333 15.725 15.725 18.3333 12.5 18.3333L13.375 16.875" stroke="#BEBFC9" stroke-width="1.5" stroke-linecap="round" stroke-linejoin="round"/>
  <path d="M1.66666 7.50033C1.66666 4.27533 4.27499 1.66699 7.49999 1.66699L6.625 3.12533" stroke="#BEBFC9" stroke-width="1.5" stroke-linecap="round" stroke-linejoin="round"/>
</svg>