<svg width="32" height="32" viewBox="0 0 32 32" fill="none" xmlns="http://www.w3.org/2000/svg">
<g id="laptop_windows_FILL0_wght400_GRAD0_opsz48 2">
<path id="Vector" d="M1 26.6667C0.711111 26.6667 0.472222 26.5722 0.283333 26.3833C0.0944445 26.1944 0 25.9556 0 25.6667C0 25.3778 0.0944445 25.1389 0.283333 24.95C0.472222 24.7611 0.711111 24.6667 1 24.6667H4.7V23.2667C4.16667 23.2667 3.7 23.0667 3.3 22.6667C2.9 22.2667 2.7 21.8 2.7 21.2667V6C2.7 5.46667 2.9 5 3.3 4.6C3.7 4.2 4.16667 4 4.7 4H27.3C27.8333 4 28.3 4.2 28.7 4.6C29.1 5 29.3 5.46667 29.3 6V21.2667C29.3 21.8 29.1 22.2667 28.7 22.6667C28.3 23.0667 27.8333 23.2667 27.3 23.2667V24.6667H31C31.2889 24.6667 31.5278 24.7611 31.7167 24.95C31.9056 25.1389 32 25.3778 32 25.6667C32 25.9556 31.9056 26.1944 31.7167 26.3833C31.5278 26.5722 31.2889 26.6667 31 26.6667H1ZM4.7 21.2667H27.3V6H4.7V21.2667Z" fill="#2CB26D"/>
</g>
</svg>
