<svg width="25" height="24" viewBox="0 0 25 24" fill="none" xmlns="http://www.w3.org/2000/svg">
<path d="M6.38993 14.3878L12.032 19.5701C12.1537 19.682 12.2146 19.7379 12.279 19.7696C12.4183 19.8383 12.5817 19.8383 12.721 19.7696C12.7854 19.7379 12.8463 19.682 12.968 19.5701L18.6101 14.3878C20.2388 12.8918 20.4355 10.3918 19.0609 8.65947L18.8575 8.40314C17.2373 6.36133 14.0414 6.70892 12.898 9.05129C12.7362 9.38277 12.2638 9.38277 12.102 9.05129C10.9586 6.70892 7.76266 6.36133 6.14249 8.40314L5.9391 8.65947C4.56446 10.3918 4.76121 12.8918 6.38993 14.3878Z"  stroke="currentColor" stroke-width="1.5"/>
</svg>
