<svg xmlns="http://www.w3.org/2000/svg" width="20" height="20" viewBox="0 0 20 20" fill="none">
  <path d="M1.66666 10.5088H15.8333" stroke="#BEBFC9" stroke-width="1.5" stroke-miterlimit="10" stroke-linecap="round" stroke-linejoin="round"/>
  <path d="M15.8333 8.56634V14.5247C15.8083 16.8997 15.1583 17.4997 12.6833 17.4997H4.81668C2.30001 17.4997 1.66666 16.8747 1.66666 14.3913V8.56634C1.66666 6.31634 2.19166 5.59134 4.16666 5.47467C4.36666 5.46634 4.58335 5.45801 4.81668 5.45801H12.6833C15.2 5.45801 15.8333 6.08301 15.8333 8.56634Z" stroke="#BEBFC9" stroke-width="1.5" stroke-linecap="round" stroke-linejoin="round"/>
  <path d="M18.3333 5.60833V11.4333C18.3333 13.6833 17.8083 14.4083 15.8333 14.525V8.56667C15.8333 6.08333 15.2 5.45833 12.6833 5.45833H4.81668C4.58335 5.45833 4.36666 5.46667 4.16666 5.475C4.19166 3.1 4.84168 2.5 7.31668 2.5H15.1833C17.7 2.5 18.3333 3.125 18.3333 5.60833Z" stroke="#BEBFC9" stroke-width="1.5" stroke-linecap="round" stroke-linejoin="round"/>
  <path d="M4.375 14.8418H5.80831" stroke="#BEBFC9" stroke-width="1.5" stroke-miterlimit="10" stroke-linecap="round" stroke-linejoin="round"/>
  <path d="M7.59164 14.8418H10.4583" stroke="#BEBFC9" stroke-width="1.5" stroke-miterlimit="10" stroke-linecap="round" stroke-linejoin="round"/>
</svg>