<svg xmlns="http://www.w3.org/2000/svg" width="72" height="16" viewBox="0 0 72 16" fill="none">
  <g clip-path="url(#clip0_241_6121)">
    <path d="M14.8179 8.12754L9.68414 15.1095C9.48769 15.376 9.19115 15.5318 8.87608 15.5318H2.59229L5.98299 10.9197L9.06327 6.72894C9.25972 6.46249 9.55626 6.30664 9.87133 6.30664H14.0099C14.8754 6.30664 15.3573 7.39254 14.8179 8.12654V8.12754Z" fill="#F8635E"/>
    <path d="M0.227115 7.40426L5.3609 0.422296C5.55736 0.155847 5.8539 0 6.16897 0H12.4537L9.06298 4.61208L5.9827 8.80287C5.78625 9.06931 5.48971 9.22516 5.17464 9.22516H1.03518C0.169661 9.22516 -0.312211 8.13926 0.227115 7.40527V7.40426Z" fill="#F8635E"/>
    <path d="M24.4949 12.8234H23.0159C22.9298 12.8234 22.8538 12.7651 22.8232 12.6787L21.5342 8.9333C21.5045 8.84582 21.4276 8.78851 21.3414 8.78851H19.8124C19.716 8.78851 19.6317 8.86191 19.6113 8.96447L18.8746 12.6485C18.8542 12.7511 18.7708 12.8245 18.6735 12.8245H17.3475C17.2159 12.8245 17.1186 12.6927 17.1464 12.553L19.2518 2.18862C19.2722 2.08607 19.3565 2.01367 19.4529 2.01367H23.2912C24.0974 2.01367 24.7942 2.28414 25.3827 2.82408C25.9702 3.36502 26.2639 4.0779 26.2639 4.96371C26.2639 5.94706 25.9822 6.77858 25.4197 7.45928C24.9101 8.07563 24.2679 8.46676 23.4922 8.63065C23.3662 8.6578 23.2939 8.80259 23.3421 8.93229L24.684 12.5168C24.7386 12.6636 24.6395 12.8234 24.4931 12.8234H24.4949ZM22.3654 7.11843H22.3951C23.0224 7.11843 23.5182 6.93242 23.8815 6.55939C24.2447 6.18636 24.4263 5.71379 24.4263 5.14168C24.4263 4.72039 24.2818 4.37149 23.9936 4.09599C23.7045 3.8205 23.3662 3.68275 22.9779 3.68275H20.8577C20.7613 3.68275 20.6779 3.75514 20.6566 3.8577L20.0459 6.84796C20.0172 6.98772 20.1154 7.11943 20.247 7.11943H22.3663L22.3654 7.11843Z" fill="#3A302F"/>
    <path d="M29.9093 13.0175C28.7834 13.0175 27.8947 12.7038 27.2432 12.0774C26.5908 11.451 26.2646 10.5973 26.2646 9.51645C26.2646 8.2194 26.6603 7.10936 27.4517 6.18534C28.2431 5.26131 29.2217 4.7998 30.3865 4.7998C31.3326 4.7998 32.099 5.11552 32.6865 5.74796C33.274 6.3804 33.5678 7.21996 33.5678 8.26867C33.5678 8.63466 33.5354 8.97752 33.4714 9.29726C33.451 9.39781 33.3667 9.46819 33.2713 9.46819H27.8465C27.8465 9.47925 27.8437 9.51947 27.8391 9.58985C27.8335 9.66023 27.8317 9.71151 27.8317 9.74369C27.8317 10.2303 28.0253 10.6647 28.4145 11.0488C28.8028 11.4329 29.3403 11.6239 30.0279 11.6239C30.7155 11.6239 31.278 11.457 31.7598 11.1242C31.8655 11.0508 32.0054 11.096 32.0564 11.2197L32.3779 11.9899C32.4187 12.0874 32.3909 12.2051 32.3084 12.2654C31.6218 12.7671 30.822 13.0175 29.9083 13.0175H29.9093ZM28.2765 8.26867H31.9591C32.0721 8.26867 32.1648 8.17013 32.1648 8.04847C32.1648 8.04646 32.1648 8.04445 32.1648 8.04244C32.1648 7.51356 32.0008 7.07317 31.6718 6.72125C31.3428 6.37034 30.8749 6.19439 30.2679 6.19439C29.71 6.19439 29.2198 6.3995 28.7963 6.80973C28.4488 7.14657 28.2107 7.53468 28.0809 7.97306C28.0383 8.11885 28.1347 8.26867 28.2755 8.26867H28.2765Z" fill="#3A302F"/>
    <path d="M38.3636 4.80078C38.8714 4.80078 39.3366 4.91742 39.7601 5.14968C40.0464 5.30653 40.2901 5.50461 40.4922 5.7429C40.6061 5.87764 40.8119 5.82334 40.848 5.64437L40.9425 5.1718C40.9629 5.06924 41.0463 4.99584 41.1436 4.99584H42.2899C42.4215 4.99584 42.5188 5.12756 42.491 5.26732L40.9833 12.6495C40.962 12.752 40.8786 12.8244 40.7822 12.8244H39.6341C39.5025 12.8244 39.4052 12.6927 39.433 12.5539L39.4358 12.5419C39.4784 12.3317 39.2523 12.189 39.0994 12.3267C38.586 12.7882 37.9966 13.0195 37.3322 13.0195C36.4954 13.0195 35.8254 12.7359 35.3232 12.1688C34.82 11.6018 34.5688 10.8105 34.5688 9.79494C34.5688 8.96342 34.7134 8.17111 35.0025 7.42002C35.2917 6.66894 35.7318 6.04555 36.3249 5.54784C36.917 5.05114 37.5972 4.80179 38.3636 4.80179V4.80078ZM38.6027 6.30798C37.916 6.30798 37.3452 6.62168 36.892 7.24809C36.4389 7.87449 36.2128 8.60949 36.2128 9.45207C36.2128 10.0785 36.3768 10.5782 36.7058 10.9512C37.0347 11.3243 37.4629 11.5103 37.9901 11.5103C38.358 11.5103 38.7092 11.4077 39.0428 11.2026C39.3625 11.0055 39.6294 10.7542 39.8444 10.4485C39.863 10.4223 39.8759 10.3912 39.8824 10.359L40.481 7.46728C40.4931 7.40896 40.4848 7.34763 40.4551 7.29836C40.2874 7.02085 40.0511 6.7906 39.7462 6.60761C39.4126 6.40752 39.0317 6.30798 38.6036 6.30798H38.6027Z" fill="#3A302F"/>
    <path d="M44.3824 12.8235H43.2352C43.1036 12.8235 43.0063 12.6918 43.0341 12.552L45.1395 2.18765C45.1599 2.08509 45.2442 2.0127 45.3406 2.0127H46.4878C46.6194 2.0127 46.7167 2.14441 46.6889 2.28417L44.5835 12.6485C44.5631 12.7511 44.4788 12.8235 44.3824 12.8235Z" fill="#3A302F"/>
    <path d="M48.2067 12.8235H46.8797C46.7481 12.8235 46.6508 12.6918 46.6786 12.552L48.784 2.18765C48.8044 2.08509 48.8887 2.0127 48.9851 2.0127H52.8234C53.7491 2.0127 54.4738 2.29121 54.9964 2.84723C55.5191 3.40426 55.7804 4.09803 55.7804 4.92956C55.7804 5.27544 55.7378 5.6183 55.6535 5.95915C55.5691 6.30001 55.4264 6.64287 55.2281 6.98875C55.0289 7.33463 54.7824 7.63728 54.4886 7.89669C54.1949 8.1561 53.8168 8.36926 53.3534 8.53717C52.8901 8.70508 52.3702 8.78854 51.7929 8.78854H49.3585C49.2622 8.78854 49.1788 8.86093 49.1575 8.96349L48.4068 12.6495C48.3865 12.7521 48.3021 12.8245 48.2058 12.8245L48.2067 12.8235ZM49.5772 6.84698C49.5485 6.98674 49.6467 7.11846 49.7783 7.11846H51.9125C52.5398 7.11846 53.0375 6.92641 53.4063 6.54333C53.7742 6.16025 53.9586 5.68165 53.9586 5.10853C53.9586 4.70936 53.8242 4.37152 53.5555 4.09602C53.2867 3.82053 52.9476 3.68278 52.5398 3.68278H50.3899C50.2936 3.68278 50.2102 3.75517 50.1888 3.85773L49.5782 6.84799L49.5772 6.84698Z" fill="#F8635E"/>
    <path d="M59.4261 4.80078C59.9339 4.80078 60.3991 4.91742 60.8226 5.14968C61.1089 5.30653 61.3526 5.50461 61.5547 5.7429C61.6686 5.87764 61.8744 5.82334 61.9105 5.64437L62.005 5.1718C62.0254 5.06924 62.1088 4.99584 62.2061 4.99584H63.3524C63.484 4.99584 63.5813 5.12756 63.5535 5.26732L62.0458 12.6495C62.0245 12.752 61.9411 12.8244 61.8447 12.8244H60.6966C60.565 12.8244 60.4677 12.6927 60.4955 12.5539L60.4983 12.5419C60.5409 12.3317 60.3148 12.189 60.1619 12.3267C59.6485 12.7882 59.0591 13.0195 58.3947 13.0195C57.5579 13.0195 56.8879 12.7359 56.3857 12.1688C55.8825 11.6018 55.6313 10.8105 55.6313 9.79494C55.6313 8.96342 55.7759 8.17111 56.065 7.42002C56.3542 6.66894 56.7943 6.04555 57.3874 5.54784C57.9795 5.05114 58.6597 4.80179 59.4261 4.80179V4.80078ZM59.6652 6.30798C58.9785 6.30798 58.4077 6.62168 57.9545 7.24809C57.5014 7.87449 57.2753 8.60949 57.2753 9.45207C57.2753 10.0785 57.4393 10.5782 57.7683 10.9512C58.0972 11.3243 58.5254 11.5103 59.0526 11.5103C59.4205 11.5103 59.7717 11.4077 60.1053 11.2026C60.425 11.0055 60.6919 10.7542 60.9069 10.4485C60.9255 10.4223 60.9384 10.3912 60.9449 10.359L61.5435 7.46728C61.5556 7.40896 61.5472 7.34763 61.5176 7.29836C61.3499 7.02085 61.1136 6.7906 60.8087 6.60761C60.4751 6.40752 60.0942 6.30798 59.6661 6.30798H59.6652Z" fill="#F8635E"/>
    <path d="M63.2085 15.5977L63.5819 14.5329C63.619 14.4284 63.7219 14.366 63.821 14.3942C63.9739 14.4384 64.1565 14.4606 64.3696 14.4606C64.7477 14.4606 65.072 14.2444 65.3408 13.812L65.8634 12.9463C65.8921 12.8981 65.9033 12.8407 65.894 12.7844L64.6383 5.25852C64.6152 5.12178 64.7125 4.99609 64.8404 4.99609H66.0478C66.1488 4.99609 66.2341 5.07553 66.2508 5.18311L67.0282 10.2738C67.0597 10.4779 67.3072 10.5302 67.4063 10.3542L70.3745 5.10368C70.4115 5.03732 70.4783 4.9971 70.5496 4.9971H71.7941C71.9563 4.9971 72.0545 5.19115 71.9684 5.33896L66.7901 14.2353C66.4213 14.8617 66.0386 15.3132 65.6401 15.5887C65.2416 15.8642 64.7681 16.0019 64.2213 16.0019C63.8979 16.0019 63.6069 15.9667 63.3493 15.8954C63.2307 15.8622 63.1658 15.7234 63.2094 15.5987L63.2085 15.5977Z" fill="#F8635E"/>
  </g>
  <defs>
    <clipPath id="clip0_241_6121">
      <rect width="72" height="16" fill="white"/>
    </clipPath>
  </defs>
</svg>